<svg width="48" height="48" viewBox="0 0 48 48" fill="none" xmlns="http://www.w3.org/2000/svg">
<path d="M8 18H40M16 18V40M12.4 40H35.6C37.8402 40 38.9604 40 39.816 39.564C40.5686 39.1806 41.1806 38.5686 41.564 37.816C42 36.9604 42 35.8402 42 33.6V14.4C42 12.1598 42 11.0397 41.564 10.184C41.1806 9.43138 40.5686 8.81946 39.816 8.43598C38.9604 8 37.8402 8 35.6 8H12.4C10.1598 8 9.03968 8 8.18404 8.43598C7.43138 8.81946 6.81946 9.43138 6.43598 10.184C6 11.0397 6 12.1598 6 14.4V33.6C6 35.8402 6 36.9604 6.43598 37.816C6.81946 38.5686 7.43138 39.1806 8.18404 39.564C9.03968 40 10.1598 40 12.4 40Z" stroke="#080D10" stroke-width="2" stroke-linecap="round" stroke-linejoin="round"/>
</svg>
