<svg width="48" height="48" viewBox="0 0 48 48" fill="none" xmlns="http://www.w3.org/2000/svg">
<path d="M8 18V14.4C8 12.1598 8 11.0397 8.43598 10.184C8.81946 9.43138 9.43138 8.81946 10.184 8.43598C11.0397 8 12.1598 8 14.4 8H33.6C35.8402 8 36.9604 8 37.816 8.43598C38.5686 8.81946 39.1806 9.43138 39.564 10.184C40 11.0397 40 12.1598 40 14.4V33.6C40 35.8402 40 36.9604 39.564 37.816C39.1806 38.5686 38.5686 39.1806 37.816 39.564C36.9604 40 35.8402 40 33.6 40H21M22 32H34M16 22L22 18V24L34 14M34 14H28M34 14V20M14 29C13 28.752 11.3702 28.7428 10 28.752C9.54182 28.755 9.81882 28.7356 9.2 28.752C7.58516 28.8024 6.0033 29.4736 6 31.375C5.9965 33.4008 8 34 10 34C12 34 14 34.4624 14 36.625C14 38.2502 12.385 38.9624 10.3722 39.1982C8.7722 39.1982 8 39.25 6 39M10 40V42M10 26V28" stroke="#080D10" stroke-width="2" stroke-linecap="round" stroke-linejoin="round"/>
</svg>
