<svg width="48" height="48" viewBox="0 0 48 48" fill="none" xmlns="http://www.w3.org/2000/svg">
<path d="M18.3298 35.3008C17.8503 35.7484 17.4792 36.048 17.0999 36.267C15.2435 37.3388 12.9563 37.3388 11.0999 36.267C10.4158 35.872 9.75823 35.2144 8.44305 33.8994C7.12787 32.5842 6.47027 31.9266 6.07533 31.2424C5.00353 29.386 5.00353 27.0988 6.07533 25.2424C6.47027 24.5584 7.12787 23.9008 8.44305 22.5856L14.0999 16.9287C15.4151 15.6135 16.0727 14.9559 16.7568 14.561C18.6132 13.4892 20.9004 13.4892 22.7568 14.561C23.4408 14.9559 24.0984 15.6135 25.4136 16.9287C26.7288 18.2439 27.3864 18.9015 27.7814 19.5856C28.8532 21.442 28.8532 23.7292 27.7814 25.5856C27.5624 25.9648 27.2628 26.336 26.815 26.8154M21.1838 21.1842C20.736 21.6636 20.4364 22.0348 20.2174 22.414C19.1457 24.2704 19.1457 26.5576 20.2174 28.414C20.6124 29.0982 21.27 29.7558 22.5852 31.0708C23.9004 32.386 24.558 33.0436 25.242 33.4386C27.0984 34.5104 29.3856 34.5104 31.242 33.4386C31.9262 33.0436 32.5838 32.386 33.899 31.0708L39.5558 25.414C40.871 24.0988 41.5286 23.4412 41.9234 22.7572C42.9952 20.9008 42.9952 18.6135 41.9234 16.7571C41.5286 16.0731 40.871 15.4155 39.5558 14.1003C38.2406 12.7851 37.583 12.1275 36.899 11.7326C35.0424 10.6608 32.7554 10.6608 30.899 11.7326C30.5196 11.9515 30.1486 12.2512 29.669 12.6989" stroke="#080D10" stroke-width="2" stroke-linecap="round"/>
</svg>
