<svg width="48" height="48" viewBox="0 0 48 48" fill="none" xmlns="http://www.w3.org/2000/svg">
<path d="M22 38H12.4C10.1598 38 9.03968 38 8.18404 37.564C7.43138 37.1806 6.81946 36.5686 6.43598 35.816C6 34.9604 6 33.8402 6 31.6V16.4C6 14.1598 6 13.0397 6.43598 12.184C6.81946 11.4314 7.43138 10.8195 8.18404 10.436C9.03968 10 10.1598 10 12.4 10H35.6C37.8402 10 38.9604 10 39.816 10.436C40.5686 10.8195 41.1806 11.4314 41.564 12.184C42 13.0397 42 14.1598 42 16.4V24M6 18H42M36 42V30M42 36.0016L30 36" stroke="#080D10" stroke-width="2" stroke-linecap="round" stroke-linejoin="round"/>
</svg>
