<svg width="48" height="48" viewBox="0 0 48 48" fill="none" xmlns="http://www.w3.org/2000/svg">
<path d="M16 13H32M15.41 17.4184L24.5652 30.6068M9.2 18H12.8C13.9201 18 14.4802 18 14.908 17.782C15.2843 17.5903 15.5903 17.2843 15.782 16.908C16 16.4802 16 15.9201 16 14.8V11.2C16 10.0799 16 9.51984 15.782 9.09202C15.5903 8.7157 15.2843 8.40974 14.908 8.21798C14.4802 8 13.9201 8 12.8 8H9.2C8.0799 8 7.51984 8 7.09202 8.21798C6.7157 8.40974 6.40974 8.7157 6.21798 9.09202C6 9.51984 6 10.0799 6 11.2V14.8C6 15.9201 6 16.4802 6.21798 16.908C6.40974 17.2843 6.7157 17.5903 7.09202 17.782C7.51984 18 8.0799 18 9.2 18ZM27.2 40H30.8C31.9202 40 32.4802 40 32.908 39.782C33.2844 39.5902 33.5902 39.2844 33.782 38.908C34 38.4802 34 37.9202 34 36.8V33.2C34 32.0798 34 31.5198 33.782 31.092C33.5902 30.7156 33.2844 30.4098 32.908 30.218C32.4802 30 31.9202 30 30.8 30H27.2C26.0798 30 25.5198 30 25.092 30.218C24.7156 30.4098 24.4098 30.7156 24.218 31.092C24 31.5198 24 32.0798 24 33.2V36.8C24 37.9202 24 38.4802 24.218 38.908C24.4098 39.2844 24.7156 39.5902 25.092 39.782C25.5198 40 26.0798 40 27.2 40ZM35.2 18H38.8C39.9202 18 40.4802 18 40.908 17.782C41.2844 17.5903 41.5902 17.2843 41.782 16.908C42 16.4802 42 15.9201 42 14.8V11.2C42 10.0799 42 9.51984 41.782 9.09202C41.5902 8.7157 41.2844 8.40974 40.908 8.21798C40.4802 8 39.9202 8 38.8 8H35.2C34.0798 8 33.5198 8 33.092 8.21798C32.7156 8.40974 32.4098 8.7157 32.218 9.09202C32 9.51984 32 10.0799 32 11.2V14.8C32 15.9201 32 16.4802 32.218 16.908C32.4098 17.2843 32.7156 17.5903 33.092 17.782C33.5198 18 34.0798 18 35.2 18Z" stroke="#080D10" stroke-width="2" stroke-linecap="round" stroke-linejoin="round"/>
</svg>
