<svg width="48" height="48" viewBox="0 0 48 48" fill="none" xmlns="http://www.w3.org/2000/svg">
<path d="M33.0016 28.3004H33.0196M38 8.00195H12.4C10.1598 8.00195 9.03968 8.00195 8.18404 8.43791C7.43138 8.82141 6.81946 9.43333 6.43598 10.186C6 11.0416 6 12.1617 6 14.402V33.602C6 35.8422 6 36.9622 6.43598 37.818C6.81946 38.5706 7.43138 39.1824 8.18404 39.566C9.03968 40.002 10.1598 40.002 12.4 40.002H35.6C37.8402 40.002 38.9604 40.002 39.816 39.566C40.5686 39.1824 41.1806 38.5706 41.564 37.818C42 36.9622 42 35.8422 42 33.602V22.402C42 20.1618 42 19.0416 41.564 18.186C41.1806 17.4333 40.5686 16.8214 39.816 16.4379C38.9604 16.002 37.8402 16.002 35.6 16.002H14M33.9016 28.3004C33.9016 28.7974 33.4986 29.2004 33.0016 29.2004C32.5046 29.2004 32.1016 28.7974 32.1016 28.3004C32.1016 27.8034 32.5046 27.4004 33.0016 27.4004C33.4986 27.4004 33.9016 27.8034 33.9016 28.3004Z" stroke="#080D10" stroke-width="2" stroke-linecap="round" stroke-linejoin="round"/>
</svg>
