<svg width="48" height="48" viewBox="0 0 48 48" fill="none" xmlns="http://www.w3.org/2000/svg">
<path d="M33.168 12C31.6248 8.4682 28.1006 6 24 6C18.4772 6 14 10.4772 14 16V20.0576M14 20.0576C14.9428 20 16.1052 20 17.6 20H30.4C33.7604 20 35.4404 20 36.724 20.654C37.853 21.2292 38.7708 22.147 39.346 23.276C40 24.5596 40 26.2396 40 29.6V32.4C40 35.7604 40 37.4404 39.346 38.724C38.7708 39.853 37.853 40.7708 36.724 41.346C35.4404 42 33.7604 42 30.4 42H17.6C14.2397 42 12.5595 42 11.2761 41.346C10.1471 40.7708 9.2292 39.853 8.65396 38.724C8 37.4404 8 35.7604 8 32.4V29.6C8 26.2396 8 24.5596 8.65396 23.276C9.2292 22.147 10.1471 21.2292 11.2761 20.654C11.9886 20.291 12.8234 20.1294 14 20.0576ZM24 29V33" stroke="#080D10" stroke-width="2" stroke-linecap="round" stroke-linejoin="round"/>
</svg>
