<svg width="48" height="48" viewBox="0 0 48 48" fill="none" xmlns="http://www.w3.org/2000/svg">
<path d="M33.2639 14.4074L33.2625 14.4088C32.5294 15.1464 31.3332 15.1474 30.5945 14.4081L30.5944 14.408L24.7238 8.53758C24.7238 8.53754 24.7238 8.5375 24.7237 8.53747C24.3599 8.17346 23.7997 8.13922 23.399 8.45541L23.381 8.46967L23.3725 8.47813C23.3719 8.47857 23.3713 8.47906 23.3706 8.47962C23.3661 8.4831 23.3561 8.49089 23.3455 8.49964C23.3345 8.5088 23.3197 8.52156 23.3038 8.53749C23.3038 8.53752 23.3038 8.53754 23.3037 8.53757L8.56155 23.2819L8.56146 23.2819C8.16523 23.6785 8.16523 24.3058 8.56146 24.7023L8.56159 24.7024L23.3084 39.4467C23.3085 39.4467 23.3085 39.4467 23.3085 39.4468C23.7049 39.8434 24.3322 39.8433 24.7285 39.4467L24.7287 39.4464L30.5891 33.5721C30.5892 33.572 30.5893 33.5719 30.5894 33.5718C30.9441 33.2188 31.424 33.0206 31.9241 33.0206C32.4244 33.0206 32.9044 33.2189 33.2592 33.5721L33.2592 33.5722C33.9968 34.3064 33.9968 35.5034 33.2592 36.2377L33.2586 36.2383L25.5172 43.9811C25.1144 44.3834 24.5687 44.6094 23.9997 44.6094C23.4308 44.6094 22.8851 44.3835 22.4824 43.9812C22.4823 43.9812 22.4823 43.9811 22.4822 43.9811L4.02173 25.5202L4.0209 25.5194C3.82118 25.3209 3.66267 25.0848 3.5545 24.8247C3.44632 24.5646 3.39062 24.2856 3.39062 24.0039C3.39062 23.7221 3.44632 23.4431 3.5545 23.183L3.19382 23.033L3.5545 23.183C3.66267 22.9229 3.82118 22.6868 4.0209 22.4883L4.02173 22.4875L22.4871 4.02181L22.4872 4.02171C23.3203 3.18796 24.6825 3.17992 25.5235 4.00007C27.6326 6.10612 29.123 7.59776 29.9903 8.46566L33.2632 11.7411L33.2639 11.7419C34.0014 12.4761 34.0014 13.6732 33.2639 14.4074ZM43.9783 22.5631L43.9784 22.5633C44.178 22.7618 44.3365 22.9979 44.4448 23.2579C44.5531 23.5179 44.609 23.7968 44.6094 24.0785C44.6097 24.3602 44.5545 24.6392 44.4469 24.8995C44.3393 25.1598 44.1815 25.3962 43.9824 25.5953L38.2717 31.3057C37.917 31.659 37.437 31.8572 36.9367 31.8572C36.4364 31.8572 35.9564 31.659 35.6017 31.3057C35.4263 31.131 35.2872 30.9233 35.1922 30.6946C35.0972 30.4659 35.0484 30.2206 35.0484 29.9729C35.0484 29.7252 35.0972 29.4799 35.1922 29.2512C35.2872 29.0225 35.4264 28.8148 35.6017 28.6401L35.6022 28.6396L39.4378 24.8057L39.438 24.8055C39.8342 24.409 39.8342 23.7817 39.438 23.3852L39.4378 23.385L35.5459 19.4948L35.5455 19.4943C35.3701 19.3196 35.2309 19.1119 35.136 18.8832C35.041 18.6545 34.9921 18.4092 34.9921 18.1615C34.9921 17.9138 35.041 17.6685 35.1359 17.4398C35.2309 17.211 35.3701 17.0033 35.5455 16.8286L35.5468 16.8273C36.28 16.0896 37.4767 16.0886 38.2155 16.824C38.2155 16.824 38.2155 16.824 38.2155 16.824L43.9783 22.5631ZM20.8475 27.3454C19.986 26.4841 19.502 25.3158 19.502 24.0977C19.502 22.8796 19.986 21.7113 20.8475 20.85C21.709 19.9886 22.8775 19.5047 24.0958 19.5047C25.3142 19.5047 26.4827 19.9886 27.3442 20.85C28.2057 21.7113 28.6896 22.8796 28.6896 24.0977C28.6896 25.3158 28.2057 26.4841 27.3442 27.3454C26.4827 28.2068 25.3142 28.6907 24.0958 28.6907C22.8775 28.6907 21.709 28.2068 20.8475 27.3454Z" fill="#080D10" stroke="#080D10" stroke-width="0.78125"/>
</svg>
