<svg width="48" height="48" viewBox="0 0 48 48" fill="none" xmlns="http://www.w3.org/2000/svg">
<mask id="path-1-inside-1_17023_24443" fill="white">
<path d="M29.8308 35.7661C29.7975 35.6767 29.7975 35.585 29.8308 35.491C29.8338 35.483 29.8352 35.4745 29.8349 35.4659C29.8347 35.4573 29.8328 35.449 29.8293 35.4412C29.8259 35.4335 29.821 35.4266 29.8149 35.421C29.8088 35.4153 29.8017 35.411 29.794 35.4084C29.636 35.3555 29.5175 35.2498 29.3582 35.2187C28.8317 35.117 28.367 34.7498 28.0103 34.5872C27.0722 34.1572 26.4816 33.8613 26.2385 33.6996C26.0744 33.5921 25.9146 33.5271 25.7593 33.5045C25.4355 33.4571 25.2038 33.3649 24.9221 33.3324C26.7071 33.2985 28.7619 32.8907 30.231 31.7782C30.239 31.7721 30.2484 31.7681 30.2583 31.7665C30.2681 31.765 30.2782 31.7659 30.2876 31.7693C30.2971 31.7726 30.3056 31.7782 30.3125 31.7857C30.3193 31.7931 30.3244 31.8022 30.3271 31.812C30.7001 33.2339 30.5346 34.552 29.8308 35.7661Z"/>
<path d="M21.1046 32.9598C22.3605 33.2633 23.6329 33.3875 24.9221 33.3324C25.2038 33.3649 25.4355 33.4571 25.7593 33.5045C25.9146 33.5271 26.0744 33.5921 26.2385 33.6996C26.4816 33.8613 27.0722 34.1572 28.0103 34.5872C28.367 34.7498 28.8317 35.117 29.3582 35.2187C29.5175 35.2498 29.636 35.3555 29.794 35.4084C29.8017 35.411 29.8088 35.4153 29.8149 35.421C29.821 35.4266 29.8259 35.4335 29.8293 35.4412C29.8328 35.449 29.8347 35.4573 29.8349 35.4659C29.8352 35.4745 29.8338 35.483 29.8308 35.491C29.7975 35.585 29.7975 35.6767 29.8308 35.7661C29.5877 36.1925 29.2955 36.5859 28.9541 36.9464L28.8896 36.9125C28.8736 36.9039 28.8574 36.8983 28.8433 36.8966C28.8293 36.8949 28.8183 36.8971 28.812 36.903C28.496 37.193 27.9379 36.7079 27.6575 36.5236C27.4693 36.4016 27.2731 36.4328 27.0888 36.3284C26.6 36.0556 25.9138 35.7173 25.03 35.3135C24.6957 35.1617 24.0744 34.8027 23.4083 34.5615C23.2056 34.4869 23.0845 34.327 22.9041 34.2566C22.4763 34.0885 22.1261 33.8365 21.697 33.678C21.3534 33.5506 21.106 33.4869 20.9414 33.1278C20.9337 33.1109 20.9323 33.0917 20.9377 33.0741C20.9431 33.0565 20.9548 33.0418 20.9704 33.0329L21.1046 32.9598Z"/>
<path d="M33.9339 20.2845C33.7417 20.3956 33.8984 19.8604 33.7101 20.0718C33.6154 20.1788 33.6838 20.4133 33.7654 20.5068C33.7783 20.5222 33.7879 20.5403 33.7935 20.5599C33.7992 20.5795 33.8008 20.6002 33.7983 20.6206C33.7861 20.7299 33.8137 20.8202 33.8813 20.8916C33.8937 20.9045 33.9037 20.9211 33.9105 20.9404C33.9172 20.9598 33.9208 20.9814 33.9208 21.0041L33.9221 21.2304C33.922 21.2509 33.9168 21.2705 33.9072 21.286C33.8977 21.3015 33.8844 21.3119 33.8694 21.3157C33.4864 21.4092 33.5417 20.9878 33.281 20.8198C33.2477 20.7981 33.22 20.7665 33.1981 20.7249C33.0059 20.3564 32.7202 20.9133 32.432 20.4986C32.4219 20.484 32.407 20.4735 32.3898 20.4689C32.3726 20.4642 32.354 20.4656 32.3372 20.4729C32.1897 20.537 32.0572 20.5135 31.9396 20.4024C31.909 20.3735 31.8691 20.3563 31.8264 20.3536C31.7027 20.3464 31.6031 20.2872 31.5276 20.1761C31.5155 20.1584 31.4997 20.1444 31.4821 20.136C31.4645 20.1275 31.446 20.125 31.4289 20.1287C31.3227 20.1504 31.2385 20.2019 31.1761 20.2832C31.1644 20.2989 31.1486 20.3104 31.131 20.3161C31.1134 20.3217 31.095 20.3211 31.0787 20.3143C30.8602 20.2231 30.6759 20.0853 30.5259 19.9011C30.5112 19.883 30.4939 19.8685 30.4754 19.8589C30.4568 19.8492 30.4376 19.8446 30.4192 19.8455C30.306 19.8491 30.2156 19.8947 30.1481 19.9824C30.1436 19.9882 30.138 19.9931 30.1315 19.9965C30.125 20 30.1179 20.0019 30.1106 20.0023C30.1032 20.0027 30.0959 20.0015 30.0889 19.9987C30.082 19.996 30.0757 19.9918 30.0704 19.9864L29.8177 19.7276C29.8046 19.7147 29.7872 19.7053 29.7668 19.7004C29.7464 19.6954 29.7236 19.695 29.7005 19.6991C29.4732 19.7398 29.2486 19.7141 29.0265 19.6219C28.989 19.607 28.9459 19.6061 28.9041 19.6192C28.5926 19.7168 28.371 19.6066 28.2393 19.2886C28.2208 19.2425 28.1925 19.2076 28.1604 19.191C28.0814 19.1494 27.9945 19.1413 27.8997 19.1666C27.8807 19.1715 27.861 19.171 27.8429 19.1653C27.8247 19.1595 27.8088 19.1487 27.797 19.1341C27.6075 18.9028 27.3806 18.8586 27.1165 19.0013C27.0991 19.0105 27.0796 19.0136 27.0613 19.0101C27.043 19.0067 27.0271 18.9968 27.0164 18.9823L26.8966 18.8156C26.8865 18.8018 26.8718 18.792 26.8549 18.7878C26.8379 18.7836 26.8197 18.7853 26.8032 18.7926C26.4688 18.9417 26.249 17.737 26.1779 17.5053C26.1639 17.4592 26.1481 17.4583 26.1305 17.5026C26.0015 17.8224 26.2727 17.9362 26.1674 18.2181C25.6487 16.4809 25.1433 14.7401 24.6509 12.9957C24.5127 12.5065 24.2613 11.9184 23.6913 12.31C23.5553 12.4031 23.4561 12.5607 23.3938 12.7829C23.0208 14.1118 22.64 15.437 22.2512 16.7587C22.0827 16.905 21.9677 17.0884 21.9063 17.3088C21.9019 17.326 21.9015 17.326 21.905 17.3088C21.9498 17.0631 21.8971 16.8617 21.747 16.7045C21.7341 16.6911 21.7172 16.6811 21.6977 16.6755C21.6783 16.6698 21.6568 16.6686 21.6351 16.6719C21.4342 16.7063 21.3148 16.6372 21.2771 16.4646C21.2692 16.4267 21.2521 16.4217 21.2258 16.4497C21.0836 16.6069 20.9348 16.6028 20.7795 16.4375C20.7745 16.4323 20.7685 16.4282 20.7618 16.4256C20.755 16.4229 20.7478 16.4218 20.7404 16.4222C20.733 16.4225 20.7257 16.4245 20.7188 16.4278C20.712 16.4311 20.7057 16.4358 20.7005 16.4416C20.6619 16.4849 20.6128 16.4922 20.5531 16.4633C20.536 16.4547 20.5171 16.451 20.4986 16.4524C20.4801 16.4538 20.4625 16.4604 20.4478 16.4714C20.3539 16.5401 20.256 16.5536 20.1542 16.512C20.1205 16.499 20.0884 16.467 20.0647 16.4226C19.9068 16.1272 19.6619 15.97 19.3302 15.951C19.2944 15.9493 19.2554 15.9315 19.2196 15.9009C19.167 15.8566 19.1007 15.83 19.0208 15.821C19.0036 15.8195 18.9872 15.8118 18.9744 15.7991C18.9615 15.7863 18.9528 15.7692 18.9498 15.7505C18.9322 15.6403 18.8738 15.5725 18.7747 15.5472C18.7573 15.5428 18.7383 15.5444 18.7199 15.5519C18.7015 15.5593 18.6844 15.5723 18.6707 15.5892C18.59 15.6931 18.489 15.7749 18.3679 15.8345C18.3523 15.8422 18.3341 15.8434 18.3164 15.838C18.2986 15.8326 18.2824 15.8208 18.2705 15.8047L18.1547 15.6489C18.1432 15.6337 18.1277 15.6213 18.1092 15.6126C18.0907 15.6039 18.0698 15.5992 18.048 15.5987C17.79 15.5969 17.5518 15.5319 17.3333 15.4036C17.2332 15.3453 17.224 15.218 17.0608 15.2478C17.0392 15.2516 17.0178 15.2515 16.9981 15.2476C16.9784 15.2436 16.9608 15.2358 16.9463 15.2247C16.8058 15.1218 16.6641 15.1123 16.5211 15.1963C16.5007 15.2086 16.4792 15.2164 16.4586 15.2188C16.4381 15.2212 16.4192 15.2181 16.4039 15.2098L16.1841 15.0865C16.1688 15.0784 16.1515 15.0758 16.1353 15.0793C16.1191 15.0828 16.1051 15.0921 16.0959 15.1055C16.0388 15.1913 15.9656 15.2378 15.876 15.2451C15.8687 15.2456 15.8615 15.2441 15.8549 15.2407C15.8482 15.2373 15.8424 15.2321 15.8379 15.2255C15.8334 15.2189 15.8304 15.211 15.829 15.2027C15.8276 15.1943 15.8279 15.1856 15.83 15.1773L16.1222 13.9564C16.1336 13.9085 16.1183 13.8963 16.0761 13.9198L15.9708 13.9781C17.1117 10.034 17.8335 7.61833 18.1362 6.73122C18.5206 5.60787 19.4223 5.07263 20.557 5.04417C22.6509 4.99087 24.7444 4.98364 26.8374 5.02249C28.7119 5.05772 29.5044 5.42494 30.0493 7.23937C31.3561 11.5837 32.6509 15.9321 33.9339 20.2845Z"/>
<path d="M22.2512 16.7587L19.1209 27.7306C19.1122 27.761 19.0954 27.7884 19.0723 27.8094C19.0493 27.8305 19.021 27.8445 18.9906 27.8498C16.2297 28.3512 13.5886 29.2641 11.0674 30.5884C11.0086 30.62 10.9888 30.6033 11.0081 30.5383L15.9708 13.9781L16.0761 13.9198C16.1183 13.8963 16.1336 13.9085 16.1222 13.9564L15.83 15.1773C15.8279 15.1856 15.8276 15.1943 15.829 15.2027C15.8304 15.211 15.8334 15.2189 15.8379 15.2255C15.8424 15.2321 15.8482 15.2373 15.8549 15.2407C15.8615 15.2441 15.8687 15.2456 15.876 15.2451C15.9656 15.2378 16.0388 15.1913 16.0959 15.1055C16.1051 15.0921 16.1191 15.0828 16.1353 15.0793C16.1515 15.0758 16.1688 15.0784 16.1841 15.0865L16.4039 15.2098C16.4192 15.2181 16.4381 15.2212 16.4586 15.2188C16.4792 15.2164 16.5007 15.2086 16.5211 15.1963C16.6641 15.1123 16.8058 15.1218 16.9463 15.2247C16.9608 15.2358 16.9784 15.2436 16.9981 15.2476C17.0178 15.2515 17.0392 15.2516 17.0608 15.2478C17.224 15.218 17.2332 15.3453 17.3333 15.4036C17.5518 15.5319 17.79 15.5969 18.048 15.5987C18.0698 15.5992 18.0907 15.6039 18.1092 15.6126C18.1277 15.6213 18.1432 15.6337 18.1547 15.6489L18.2705 15.8047C18.2824 15.8208 18.2986 15.8326 18.3164 15.838C18.3341 15.8434 18.3523 15.8422 18.3679 15.8345C18.489 15.7749 18.59 15.6931 18.6707 15.5892C18.6844 15.5723 18.7015 15.5593 18.7199 15.5519C18.7383 15.5444 18.7573 15.5428 18.7747 15.5472C18.8738 15.5725 18.9322 15.6403 18.9498 15.7505C18.9528 15.7692 18.9615 15.7863 18.9744 15.7991C18.9872 15.8118 19.0036 15.8195 19.0208 15.821C19.1007 15.83 19.167 15.8566 19.2196 15.9009C19.2554 15.9315 19.2944 15.9493 19.3302 15.951C19.6619 15.97 19.9068 16.1272 20.0647 16.4226C20.0884 16.467 20.1205 16.499 20.1542 16.512C20.256 16.5536 20.3539 16.5401 20.4478 16.4714C20.4625 16.4604 20.4801 16.4538 20.4986 16.4524C20.5171 16.451 20.536 16.4547 20.5531 16.4633C20.6128 16.4922 20.6619 16.4849 20.7005 16.4416C20.7057 16.4358 20.712 16.4311 20.7188 16.4278C20.7257 16.4245 20.733 16.4225 20.7404 16.4222C20.7478 16.4218 20.755 16.4229 20.7618 16.4256C20.7685 16.4282 20.7745 16.4323 20.7795 16.4375C20.9348 16.6028 21.0836 16.6069 21.2258 16.4497C21.2521 16.4217 21.2692 16.4267 21.2771 16.4646C21.3148 16.6372 21.4342 16.7063 21.6351 16.6719C21.6568 16.6686 21.6783 16.6698 21.6977 16.6755C21.7172 16.6811 21.7341 16.6911 21.747 16.7045C21.8971 16.8617 21.9498 17.0631 21.905 17.3088C21.9015 17.326 21.9019 17.326 21.9063 17.3088C21.9677 17.0884 22.0827 16.905 22.2512 16.7587Z"/>
<path d="M33.9339 20.2845L36.9945 30.5532C37.012 30.6119 36.994 30.6273 36.9405 30.5993C34.4341 29.2785 31.7944 28.362 29.0213 27.8498C28.9974 27.8454 28.9752 27.8341 28.9571 27.8174C28.939 27.8007 28.9257 27.7791 28.9186 27.755L26.1674 18.2181C26.2727 17.9362 26.0015 17.8224 26.1305 17.5026C26.1481 17.4583 26.1639 17.4592 26.1779 17.5053C26.249 17.737 26.4688 18.9417 26.8032 18.7926C26.8197 18.7853 26.8379 18.7836 26.8549 18.7878C26.8718 18.792 26.8865 18.8018 26.8966 18.8156L27.0164 18.9823C27.0271 18.9968 27.043 19.0067 27.0613 19.0101C27.0796 19.0136 27.0991 19.0105 27.1165 19.0013C27.3806 18.8586 27.6075 18.9028 27.797 19.1341C27.8088 19.1487 27.8247 19.1595 27.8429 19.1653C27.861 19.171 27.8807 19.1715 27.8997 19.1666C27.9945 19.1413 28.0814 19.1494 28.1604 19.191C28.1925 19.2076 28.2208 19.2425 28.2393 19.2886C28.371 19.6066 28.5926 19.7168 28.9041 19.6192C28.9459 19.6061 28.989 19.607 29.0265 19.6219C29.2486 19.7141 29.4732 19.7398 29.7005 19.6991C29.7236 19.695 29.7464 19.6954 29.7668 19.7004C29.7872 19.7053 29.8046 19.7147 29.8177 19.7276L30.0704 19.9864C30.0757 19.9918 30.082 19.996 30.0889 19.9987C30.0959 20.0015 30.1032 20.0027 30.1106 20.0023C30.1179 20.0019 30.125 20 30.1315 19.9965C30.138 19.9931 30.1436 19.9882 30.1481 19.9824C30.2156 19.8947 30.306 19.8491 30.4192 19.8455C30.4376 19.8446 30.4568 19.8492 30.4754 19.8589C30.4939 19.8685 30.5112 19.883 30.5259 19.9011C30.6759 20.0853 30.8602 20.2231 31.0787 20.3143C31.095 20.3211 31.1134 20.3217 31.131 20.3161C31.1486 20.3104 31.1644 20.2989 31.1761 20.2832C31.2385 20.2019 31.3227 20.1504 31.4289 20.1287C31.446 20.125 31.4645 20.1275 31.4821 20.136C31.4997 20.1444 31.5155 20.1584 31.5276 20.1761C31.6031 20.2872 31.7027 20.3464 31.8264 20.3536C31.8691 20.3563 31.909 20.3735 31.9396 20.4024C32.0572 20.5135 32.1897 20.537 32.3372 20.4729C32.354 20.4656 32.3726 20.4642 32.3898 20.4689C32.407 20.4735 32.4219 20.484 32.432 20.4986C32.7202 20.9133 33.0059 20.3564 33.1981 20.7249C33.22 20.7665 33.2477 20.7981 33.281 20.8198C33.5417 20.9878 33.4864 21.4092 33.8694 21.3157C33.8844 21.3119 33.8977 21.3015 33.9072 21.286C33.9168 21.2705 33.922 21.2509 33.9221 21.2304L33.9208 21.0041C33.9208 20.9814 33.9172 20.9598 33.9105 20.9404C33.9037 20.9211 33.8937 20.9045 33.8813 20.8916C33.8137 20.8202 33.7861 20.7299 33.7983 20.6206C33.8008 20.6002 33.7992 20.5795 33.7935 20.5599C33.7879 20.5403 33.7783 20.5222 33.7654 20.5068C33.6838 20.4133 33.6154 20.1788 33.7101 20.0718C33.8984 19.8604 33.7417 20.3956 33.9339 20.2845Z"/>
<path d="M21.1046 32.9598L20.9704 33.0329C20.9548 33.0418 20.9431 33.0565 20.9377 33.0741C20.9323 33.0917 20.9337 33.1109 20.9414 33.1278C21.106 33.4869 21.3534 33.5506 21.697 33.678C22.1261 33.8365 22.4763 34.0885 22.9041 34.2566C23.0845 34.327 23.2056 34.4869 23.4083 34.5615C24.0744 34.8027 24.6957 35.1617 25.03 35.3135C25.9138 35.7173 26.6 36.0556 27.0888 36.3284C27.2731 36.4328 27.4693 36.4016 27.6575 36.5236C27.9379 36.7079 28.496 37.193 28.812 36.903C28.8183 36.8971 28.8293 36.8949 28.8433 36.8966C28.8574 36.8983 28.8736 36.9039 28.8896 36.9125L28.9541 36.9464C28.2556 37.5263 27.5289 38.0665 26.7742 38.567C25.213 39.6009 24.6312 41.0237 25.4144 42.9208C25.446 42.9967 25.4254 43.0166 25.3526 42.9804C24.0099 42.3065 23.1832 41.2473 22.8725 39.8028C22.6303 38.6714 23.1345 36.6984 21.7628 36.2106C20.6426 35.8135 19.5105 36.5358 19.3368 37.7784C19.3227 37.8786 19.2837 37.8904 19.2196 37.8136C17.6466 35.9395 17.2885 33.4815 17.8875 31.121C17.9068 31.046 17.9379 31.0406 17.9809 31.1047C18.6654 32.1278 19.9765 32.6522 21.1046 32.9598Z"/>
</mask>
<path d="M29.8308 35.7661C29.7975 35.6767 29.7975 35.585 29.8308 35.491C29.8338 35.483 29.8352 35.4745 29.8349 35.4659C29.8347 35.4573 29.8328 35.449 29.8293 35.4412C29.8259 35.4335 29.821 35.4266 29.8149 35.421C29.8088 35.4153 29.8017 35.411 29.794 35.4084C29.636 35.3555 29.5175 35.2498 29.3582 35.2187C28.8317 35.117 28.367 34.7498 28.0103 34.5872C27.0722 34.1572 26.4816 33.8613 26.2385 33.6996C26.0744 33.5921 25.9146 33.5271 25.7593 33.5045C25.4355 33.4571 25.2038 33.3649 24.9221 33.3324C26.7071 33.2985 28.7619 32.8907 30.231 31.7782C30.239 31.7721 30.2484 31.7681 30.2583 31.7665C30.2681 31.765 30.2782 31.7659 30.2876 31.7693C30.2971 31.7726 30.3056 31.7782 30.3125 31.7857C30.3193 31.7931 30.3244 31.8022 30.3271 31.812C30.7001 33.2339 30.5346 34.552 29.8308 35.7661Z" fill="#080D10"/>
<path d="M21.1046 32.9598C22.3605 33.2633 23.6329 33.3875 24.9221 33.3324C25.2038 33.3649 25.4355 33.4571 25.7593 33.5045C25.9146 33.5271 26.0744 33.5921 26.2385 33.6996C26.4816 33.8613 27.0722 34.1572 28.0103 34.5872C28.367 34.7498 28.8317 35.117 29.3582 35.2187C29.5175 35.2498 29.636 35.3555 29.794 35.4084C29.8017 35.411 29.8088 35.4153 29.8149 35.421C29.821 35.4266 29.8259 35.4335 29.8293 35.4412C29.8328 35.449 29.8347 35.4573 29.8349 35.4659C29.8352 35.4745 29.8338 35.483 29.8308 35.491C29.7975 35.585 29.7975 35.6767 29.8308 35.7661C29.5877 36.1925 29.2955 36.5859 28.9541 36.9464L28.8896 36.9125C28.8736 36.9039 28.8574 36.8983 28.8433 36.8966C28.8293 36.8949 28.8183 36.8971 28.812 36.903C28.496 37.193 27.9379 36.7079 27.6575 36.5236C27.4693 36.4016 27.2731 36.4328 27.0888 36.3284C26.6 36.0556 25.9138 35.7173 25.03 35.3135C24.6957 35.1617 24.0744 34.8027 23.4083 34.5615C23.2056 34.4869 23.0845 34.327 22.9041 34.2566C22.4763 34.0885 22.1261 33.8365 21.697 33.678C21.3534 33.5506 21.106 33.4869 20.9414 33.1278C20.9337 33.1109 20.9323 33.0917 20.9377 33.0741C20.9431 33.0565 20.9548 33.0418 20.9704 33.0329L21.1046 32.9598Z" fill="#080D10"/>
<path d="M33.9339 20.2845C33.7417 20.3956 33.8984 19.8604 33.7101 20.0718C33.6154 20.1788 33.6838 20.4133 33.7654 20.5068C33.7783 20.5222 33.7879 20.5403 33.7935 20.5599C33.7992 20.5795 33.8008 20.6002 33.7983 20.6206C33.7861 20.7299 33.8137 20.8202 33.8813 20.8916C33.8937 20.9045 33.9037 20.9211 33.9105 20.9404C33.9172 20.9598 33.9208 20.9814 33.9208 21.0041L33.9221 21.2304C33.922 21.2509 33.9168 21.2705 33.9072 21.286C33.8977 21.3015 33.8844 21.3119 33.8694 21.3157C33.4864 21.4092 33.5417 20.9878 33.281 20.8198C33.2477 20.7981 33.22 20.7665 33.1981 20.7249C33.0059 20.3564 32.7202 20.9133 32.432 20.4986C32.4219 20.484 32.407 20.4735 32.3898 20.4689C32.3726 20.4642 32.354 20.4656 32.3372 20.4729C32.1897 20.537 32.0572 20.5135 31.9396 20.4024C31.909 20.3735 31.8691 20.3563 31.8264 20.3536C31.7027 20.3464 31.6031 20.2872 31.5276 20.1761C31.5155 20.1584 31.4997 20.1444 31.4821 20.136C31.4645 20.1275 31.446 20.125 31.4289 20.1287C31.3227 20.1504 31.2385 20.2019 31.1761 20.2832C31.1644 20.2989 31.1486 20.3104 31.131 20.3161C31.1134 20.3217 31.095 20.3211 31.0787 20.3143C30.8602 20.2231 30.6759 20.0853 30.5259 19.9011C30.5112 19.883 30.4939 19.8685 30.4754 19.8589C30.4568 19.8492 30.4376 19.8446 30.4192 19.8455C30.306 19.8491 30.2156 19.8947 30.1481 19.9824C30.1436 19.9882 30.138 19.9931 30.1315 19.9965C30.125 20 30.1179 20.0019 30.1106 20.0023C30.1032 20.0027 30.0959 20.0015 30.0889 19.9987C30.082 19.996 30.0757 19.9918 30.0704 19.9864L29.8177 19.7276C29.8046 19.7147 29.7872 19.7053 29.7668 19.7004C29.7464 19.6954 29.7236 19.695 29.7005 19.6991C29.4732 19.7398 29.2486 19.7141 29.0265 19.6219C28.989 19.607 28.9459 19.6061 28.9041 19.6192C28.5926 19.7168 28.371 19.6066 28.2393 19.2886C28.2208 19.2425 28.1925 19.2076 28.1604 19.191C28.0814 19.1494 27.9945 19.1413 27.8997 19.1666C27.8807 19.1715 27.861 19.171 27.8429 19.1653C27.8247 19.1595 27.8088 19.1487 27.797 19.1341C27.6075 18.9028 27.3806 18.8586 27.1165 19.0013C27.0991 19.0105 27.0796 19.0136 27.0613 19.0101C27.043 19.0067 27.0271 18.9968 27.0164 18.9823L26.8966 18.8156C26.8865 18.8018 26.8718 18.792 26.8549 18.7878C26.8379 18.7836 26.8197 18.7853 26.8032 18.7926C26.4688 18.9417 26.249 17.737 26.1779 17.5053C26.1639 17.4592 26.1481 17.4583 26.1305 17.5026C26.0015 17.8224 26.2727 17.9362 26.1674 18.2181C25.6487 16.4809 25.1433 14.7401 24.6509 12.9957C24.5127 12.5065 24.2613 11.9184 23.6913 12.31C23.5553 12.4031 23.4561 12.5607 23.3938 12.7829C23.0208 14.1118 22.64 15.437 22.2512 16.7587C22.0827 16.905 21.9677 17.0884 21.9063 17.3088C21.9019 17.326 21.9015 17.326 21.905 17.3088C21.9498 17.0631 21.8971 16.8617 21.747 16.7045C21.7341 16.6911 21.7172 16.6811 21.6977 16.6755C21.6783 16.6698 21.6568 16.6686 21.6351 16.6719C21.4342 16.7063 21.3148 16.6372 21.2771 16.4646C21.2692 16.4267 21.2521 16.4217 21.2258 16.4497C21.0836 16.6069 20.9348 16.6028 20.7795 16.4375C20.7745 16.4323 20.7685 16.4282 20.7618 16.4256C20.755 16.4229 20.7478 16.4218 20.7404 16.4222C20.733 16.4225 20.7257 16.4245 20.7188 16.4278C20.712 16.4311 20.7057 16.4358 20.7005 16.4416C20.6619 16.4849 20.6128 16.4922 20.5531 16.4633C20.536 16.4547 20.5171 16.451 20.4986 16.4524C20.4801 16.4538 20.4625 16.4604 20.4478 16.4714C20.3539 16.5401 20.256 16.5536 20.1542 16.512C20.1205 16.499 20.0884 16.467 20.0647 16.4226C19.9068 16.1272 19.6619 15.97 19.3302 15.951C19.2944 15.9493 19.2554 15.9315 19.2196 15.9009C19.167 15.8566 19.1007 15.83 19.0208 15.821C19.0036 15.8195 18.9872 15.8118 18.9744 15.7991C18.9615 15.7863 18.9528 15.7692 18.9498 15.7505C18.9322 15.6403 18.8738 15.5725 18.7747 15.5472C18.7573 15.5428 18.7383 15.5444 18.7199 15.5519C18.7015 15.5593 18.6844 15.5723 18.6707 15.5892C18.59 15.6931 18.489 15.7749 18.3679 15.8345C18.3523 15.8422 18.3341 15.8434 18.3164 15.838C18.2986 15.8326 18.2824 15.8208 18.2705 15.8047L18.1547 15.6489C18.1432 15.6337 18.1277 15.6213 18.1092 15.6126C18.0907 15.6039 18.0698 15.5992 18.048 15.5987C17.79 15.5969 17.5518 15.5319 17.3333 15.4036C17.2332 15.3453 17.224 15.218 17.0608 15.2478C17.0392 15.2516 17.0178 15.2515 16.9981 15.2476C16.9784 15.2436 16.9608 15.2358 16.9463 15.2247C16.8058 15.1218 16.6641 15.1123 16.5211 15.1963C16.5007 15.2086 16.4792 15.2164 16.4586 15.2188C16.4381 15.2212 16.4192 15.2181 16.4039 15.2098L16.1841 15.0865C16.1688 15.0784 16.1515 15.0758 16.1353 15.0793C16.1191 15.0828 16.1051 15.0921 16.0959 15.1055C16.0388 15.1913 15.9656 15.2378 15.876 15.2451C15.8687 15.2456 15.8615 15.2441 15.8549 15.2407C15.8482 15.2373 15.8424 15.2321 15.8379 15.2255C15.8334 15.2189 15.8304 15.211 15.829 15.2027C15.8276 15.1943 15.8279 15.1856 15.83 15.1773L16.1222 13.9564C16.1336 13.9085 16.1183 13.8963 16.0761 13.9198L15.9708 13.9781C17.1117 10.034 17.8335 7.61833 18.1362 6.73122C18.5206 5.60787 19.4223 5.07263 20.557 5.04417C22.6509 4.99087 24.7444 4.98364 26.8374 5.02249C28.7119 5.05772 29.5044 5.42494 30.0493 7.23937C31.3561 11.5837 32.6509 15.9321 33.9339 20.2845Z" fill="#080D10"/>
<path d="M22.2512 16.7587L19.1209 27.7306C19.1122 27.761 19.0954 27.7884 19.0723 27.8094C19.0493 27.8305 19.021 27.8445 18.9906 27.8498C16.2297 28.3512 13.5886 29.2641 11.0674 30.5884C11.0086 30.62 10.9888 30.6033 11.0081 30.5383L15.9708 13.9781L16.0761 13.9198C16.1183 13.8963 16.1336 13.9085 16.1222 13.9564L15.83 15.1773C15.8279 15.1856 15.8276 15.1943 15.829 15.2027C15.8304 15.211 15.8334 15.2189 15.8379 15.2255C15.8424 15.2321 15.8482 15.2373 15.8549 15.2407C15.8615 15.2441 15.8687 15.2456 15.876 15.2451C15.9656 15.2378 16.0388 15.1913 16.0959 15.1055C16.1051 15.0921 16.1191 15.0828 16.1353 15.0793C16.1515 15.0758 16.1688 15.0784 16.1841 15.0865L16.4039 15.2098C16.4192 15.2181 16.4381 15.2212 16.4586 15.2188C16.4792 15.2164 16.5007 15.2086 16.5211 15.1963C16.6641 15.1123 16.8058 15.1218 16.9463 15.2247C16.9608 15.2358 16.9784 15.2436 16.9981 15.2476C17.0178 15.2515 17.0392 15.2516 17.0608 15.2478C17.224 15.218 17.2332 15.3453 17.3333 15.4036C17.5518 15.5319 17.79 15.5969 18.048 15.5987C18.0698 15.5992 18.0907 15.6039 18.1092 15.6126C18.1277 15.6213 18.1432 15.6337 18.1547 15.6489L18.2705 15.8047C18.2824 15.8208 18.2986 15.8326 18.3164 15.838C18.3341 15.8434 18.3523 15.8422 18.3679 15.8345C18.489 15.7749 18.59 15.6931 18.6707 15.5892C18.6844 15.5723 18.7015 15.5593 18.7199 15.5519C18.7383 15.5444 18.7573 15.5428 18.7747 15.5472C18.8738 15.5725 18.9322 15.6403 18.9498 15.7505C18.9528 15.7692 18.9615 15.7863 18.9744 15.7991C18.9872 15.8118 19.0036 15.8195 19.0208 15.821C19.1007 15.83 19.167 15.8566 19.2196 15.9009C19.2554 15.9315 19.2944 15.9493 19.3302 15.951C19.6619 15.97 19.9068 16.1272 20.0647 16.4226C20.0884 16.467 20.1205 16.499 20.1542 16.512C20.256 16.5536 20.3539 16.5401 20.4478 16.4714C20.4625 16.4604 20.4801 16.4538 20.4986 16.4524C20.5171 16.451 20.536 16.4547 20.5531 16.4633C20.6128 16.4922 20.6619 16.4849 20.7005 16.4416C20.7057 16.4358 20.712 16.4311 20.7188 16.4278C20.7257 16.4245 20.733 16.4225 20.7404 16.4222C20.7478 16.4218 20.755 16.4229 20.7618 16.4256C20.7685 16.4282 20.7745 16.4323 20.7795 16.4375C20.9348 16.6028 21.0836 16.6069 21.2258 16.4497C21.2521 16.4217 21.2692 16.4267 21.2771 16.4646C21.3148 16.6372 21.4342 16.7063 21.6351 16.6719C21.6568 16.6686 21.6783 16.6698 21.6977 16.6755C21.7172 16.6811 21.7341 16.6911 21.747 16.7045C21.8971 16.8617 21.9498 17.0631 21.905 17.3088C21.9015 17.326 21.9019 17.326 21.9063 17.3088C21.9677 17.0884 22.0827 16.905 22.2512 16.7587Z" fill="#080D10"/>
<path d="M33.9339 20.2845L36.9945 30.5532C37.012 30.6119 36.994 30.6273 36.9405 30.5993C34.4341 29.2785 31.7944 28.362 29.0213 27.8498C28.9974 27.8454 28.9752 27.8341 28.9571 27.8174C28.939 27.8007 28.9257 27.7791 28.9186 27.755L26.1674 18.2181C26.2727 17.9362 26.0015 17.8224 26.1305 17.5026C26.1481 17.4583 26.1639 17.4592 26.1779 17.5053C26.249 17.737 26.4688 18.9417 26.8032 18.7926C26.8197 18.7853 26.8379 18.7836 26.8549 18.7878C26.8718 18.792 26.8865 18.8018 26.8966 18.8156L27.0164 18.9823C27.0271 18.9968 27.043 19.0067 27.0613 19.0101C27.0796 19.0136 27.0991 19.0105 27.1165 19.0013C27.3806 18.8586 27.6075 18.9028 27.797 19.1341C27.8088 19.1487 27.8247 19.1595 27.8429 19.1653C27.861 19.171 27.8807 19.1715 27.8997 19.1666C27.9945 19.1413 28.0814 19.1494 28.1604 19.191C28.1925 19.2076 28.2208 19.2425 28.2393 19.2886C28.371 19.6066 28.5926 19.7168 28.9041 19.6192C28.9459 19.6061 28.989 19.607 29.0265 19.6219C29.2486 19.7141 29.4732 19.7398 29.7005 19.6991C29.7236 19.695 29.7464 19.6954 29.7668 19.7004C29.7872 19.7053 29.8046 19.7147 29.8177 19.7276L30.0704 19.9864C30.0757 19.9918 30.082 19.996 30.0889 19.9987C30.0959 20.0015 30.1032 20.0027 30.1106 20.0023C30.1179 20.0019 30.125 20 30.1315 19.9965C30.138 19.9931 30.1436 19.9882 30.1481 19.9824C30.2156 19.8947 30.306 19.8491 30.4192 19.8455C30.4376 19.8446 30.4568 19.8492 30.4754 19.8589C30.4939 19.8685 30.5112 19.883 30.5259 19.9011C30.6759 20.0853 30.8602 20.2231 31.0787 20.3143C31.095 20.3211 31.1134 20.3217 31.131 20.3161C31.1486 20.3104 31.1644 20.2989 31.1761 20.2832C31.2385 20.2019 31.3227 20.1504 31.4289 20.1287C31.446 20.125 31.4645 20.1275 31.4821 20.136C31.4997 20.1444 31.5155 20.1584 31.5276 20.1761C31.6031 20.2872 31.7027 20.3464 31.8264 20.3536C31.8691 20.3563 31.909 20.3735 31.9396 20.4024C32.0572 20.5135 32.1897 20.537 32.3372 20.4729C32.354 20.4656 32.3726 20.4642 32.3898 20.4689C32.407 20.4735 32.4219 20.484 32.432 20.4986C32.7202 20.9133 33.0059 20.3564 33.1981 20.7249C33.22 20.7665 33.2477 20.7981 33.281 20.8198C33.5417 20.9878 33.4864 21.4092 33.8694 21.3157C33.8844 21.3119 33.8977 21.3015 33.9072 21.286C33.9168 21.2705 33.922 21.2509 33.9221 21.2304L33.9208 21.0041C33.9208 20.9814 33.9172 20.9598 33.9105 20.9404C33.9037 20.9211 33.8937 20.9045 33.8813 20.8916C33.8137 20.8202 33.7861 20.7299 33.7983 20.6206C33.8008 20.6002 33.7992 20.5795 33.7935 20.5599C33.7879 20.5403 33.7783 20.5222 33.7654 20.5068C33.6838 20.4133 33.6154 20.1788 33.7101 20.0718C33.8984 19.8604 33.7417 20.3956 33.9339 20.2845Z" fill="#080D10"/>
<path d="M21.1046 32.9598L20.9704 33.0329C20.9548 33.0418 20.9431 33.0565 20.9377 33.0741C20.9323 33.0917 20.9337 33.1109 20.9414 33.1278C21.106 33.4869 21.3534 33.5506 21.697 33.678C22.1261 33.8365 22.4763 34.0885 22.9041 34.2566C23.0845 34.327 23.2056 34.4869 23.4083 34.5615C24.0744 34.8027 24.6957 35.1617 25.03 35.3135C25.9138 35.7173 26.6 36.0556 27.0888 36.3284C27.2731 36.4328 27.4693 36.4016 27.6575 36.5236C27.9379 36.7079 28.496 37.193 28.812 36.903C28.8183 36.8971 28.8293 36.8949 28.8433 36.8966C28.8574 36.8983 28.8736 36.9039 28.8896 36.9125L28.9541 36.9464C28.2556 37.5263 27.5289 38.0665 26.7742 38.567C25.213 39.6009 24.6312 41.0237 25.4144 42.9208C25.446 42.9967 25.4254 43.0166 25.3526 42.9804C24.0099 42.3065 23.1832 41.2473 22.8725 39.8028C22.6303 38.6714 23.1345 36.6984 21.7628 36.2106C20.6426 35.8135 19.5105 36.5358 19.3368 37.7784C19.3227 37.8786 19.2837 37.8904 19.2196 37.8136C17.6466 35.9395 17.2885 33.4815 17.8875 31.121C17.9068 31.046 17.9379 31.0406 17.9809 31.1047C18.6654 32.1278 19.9765 32.6522 21.1046 32.9598Z" fill="#080D10"/>
<path d="M29.8308 35.491L26.5604 34.279L26.552 34.3016L26.544 34.3243L29.8308 35.491ZM29.794 35.4084L30.9312 32.1112L30.9159 32.1059L30.9005 32.1008L29.794 35.4084ZM29.3582 35.2187L30.028 31.7958L30.0192 31.7941L29.3582 35.2187ZM28.0103 34.5872L26.557 37.7578L26.5637 37.7608L28.0103 34.5872ZM26.2385 33.6996L28.1702 30.7957L28.16 30.7888L28.1497 30.7821L26.2385 33.6996ZM25.7593 33.5045L25.2539 36.9555L25.2575 36.956L25.7593 33.5045ZM28.8896 36.9125L27.2396 39.9853L27.2537 39.9929L27.268 40.0003L28.8896 36.9125ZM28.812 36.903L31.1704 39.4725L31.1758 39.4675L28.812 36.903ZM27.6575 36.5236L29.5732 33.609L29.5636 33.6027L29.5539 33.5964L27.6575 36.5236ZM27.0888 36.3284L28.8072 33.2934L28.7979 33.2881L28.7886 33.2829L27.0888 36.3284ZM25.03 35.3135L26.4796 32.1412L26.4716 32.1376L25.03 35.3135ZM23.4083 34.5615L22.2048 37.835L22.2128 37.8379L22.2208 37.8408L23.4083 34.5615ZM22.9041 34.2566L21.6291 37.5029L21.6348 37.5052L22.9041 34.2566ZM21.697 33.678L20.4846 36.9482L20.4883 36.9496L21.697 33.678ZM20.9414 33.1278L24.1122 31.6749L24.1099 31.6699L20.9414 33.1278ZM20.9704 33.0329L19.3013 29.9704L19.2781 29.9831L19.2551 29.9961L20.9704 33.0329ZM33.7101 20.0718L31.1054 17.7523L31.0988 17.7598L33.7101 20.0718ZM33.7654 20.5068L36.4427 18.2714L36.4182 18.242L36.393 18.2132L33.7654 20.5068ZM33.7983 20.6206L30.3364 20.1968L30.3343 20.2139L30.3324 20.231L33.7983 20.6206ZM33.8813 20.8916L31.3487 23.2896L31.3615 23.3031L31.3744 23.3165L33.8813 20.8916ZM33.9208 21.0041L30.433 21.0059L30.433 21.0151L30.433 21.0243L33.9208 21.0041ZM33.9221 21.2304L37.4098 21.2431L37.4099 21.2266L37.4098 21.2101L33.9221 21.2304ZM33.8694 21.3157L34.6965 24.704L34.7121 24.7002L34.7277 24.6963L33.8694 21.3157ZM33.281 20.8198L31.3799 23.7439L31.3912 23.7512L33.281 20.8198ZM33.1981 20.7249L30.1055 22.3375L30.1096 22.3454L30.1138 22.3533L33.1981 20.7249ZM32.432 20.4986L29.5607 22.4787L29.5683 22.4896L32.432 20.4986ZM32.3372 20.4729L30.9518 17.272L30.9458 17.2746L32.3372 20.4729ZM31.9396 20.4024L29.5433 22.9366L29.5442 22.9375L31.9396 20.4024ZM31.8264 20.3536L32.0402 16.8724L32.0298 16.8718L31.8264 20.3536ZM31.5276 20.1761L34.4128 18.2164L34.4083 18.2099L31.5276 20.1761ZM31.4289 20.1287L32.1266 23.546L32.1463 23.542L32.1659 23.5377L31.4289 20.1287ZM31.1761 20.2832L28.4078 18.1616L28.3939 18.1797L28.3803 18.198L31.1761 20.2832ZM31.0787 20.3143L29.7349 23.5329L29.7465 23.5377L31.0787 20.3143ZM30.5259 19.9011L27.8176 22.0988L27.8213 22.1033L30.5259 19.9011ZM30.4192 19.8455L30.5305 23.3315L30.5563 23.3307L30.582 23.3295L30.4192 19.8455ZM30.1481 19.9824L27.3861 17.8525L27.3758 17.8658L27.3657 17.8793L30.1481 19.9824ZM30.0704 19.9864L27.575 22.4232L27.5827 22.431L30.0704 19.9864ZM29.8177 19.7276L32.313 17.2908L32.2937 17.2711L32.2741 17.2516L29.8177 19.7276ZM29.7005 19.6991L30.3146 23.1325L30.3156 23.1323L29.7005 19.6991ZM29.0265 19.6219L30.3634 16.4005L30.3379 16.3899L30.3122 16.3797L29.0265 19.6219ZM28.9041 19.6192L29.9464 22.9476L29.9491 22.9468L28.9041 19.6192ZM28.2393 19.2886L25.0044 20.5924L25.0105 20.6075L25.0168 20.6226L28.2393 19.2886ZM28.1604 19.191L26.5364 22.2776L26.5483 22.2839L26.5603 22.2901L28.1604 19.191ZM27.8997 19.1666L28.7694 22.5442L28.7842 22.5404L28.7991 22.5364L27.8997 19.1666ZM27.797 19.1341L30.5148 16.9481L30.5047 16.9356L30.4945 16.9231L27.797 19.1341ZM27.1165 19.0013L28.7475 22.0842L28.7611 22.077L28.7745 22.0698L27.1165 19.0013ZM27.0164 18.9823L24.1843 21.0179L24.1965 21.0349L24.2089 21.0518L27.0164 18.9823ZM26.8966 18.8156L29.7288 16.7801L29.7225 16.7713L29.7161 16.7625L26.8966 18.8156ZM26.8032 18.7926L25.3929 15.6027L25.3831 15.607L26.8032 18.7926ZM26.1779 17.5053L22.8416 18.5221L22.8435 18.5282L26.1779 17.5053ZM26.1305 17.5026L29.365 18.8074L29.3689 18.7978L29.3727 18.7882L26.1305 17.5026ZM21.9063 17.3088L18.5466 16.3725L18.5365 16.4086L18.5272 16.445L21.9063 17.3088ZM21.905 17.3088L25.3221 18.0077L25.3296 17.9708L25.3363 17.9338L21.905 17.3088ZM21.747 16.7045L24.2698 14.296L24.2621 14.288L24.2544 14.28L21.747 16.7045ZM21.6351 16.6719L21.1045 13.2248L21.0761 13.2291L21.0479 13.234L21.6351 16.6719ZM21.2771 16.4646L17.8625 17.1754L17.8661 17.1926L17.8698 17.2098L21.2771 16.4646ZM21.2258 16.4497L18.6846 14.0608L18.6616 14.0852L18.639 14.1102L21.2258 16.4497ZM20.7795 16.4375L23.3213 14.0492L23.3137 14.0412L23.3061 14.0331L20.7795 16.4375ZM20.7005 16.4416L18.1161 14.0995L18.1059 14.1107L18.0958 14.1221L20.7005 16.4416ZM20.5531 16.4633L18.9959 19.5841L19.0142 19.5932L19.0325 19.6021L20.5531 16.4633ZM20.4478 16.4714L22.5063 19.2869L22.5214 19.2759L22.5362 19.2648L20.4478 16.4714ZM20.1542 16.512L21.4724 13.2829L21.4423 13.2707L21.412 13.2589L20.1542 16.512ZM20.0647 16.4226L23.1413 14.7796L23.1404 14.7779L20.0647 16.4226ZM19.3302 15.951L19.5293 12.469L19.5164 12.4682L19.5035 12.4676L19.3302 15.951ZM19.2196 15.9009L21.4893 13.2527L21.4767 13.2419L21.464 13.2312L19.2196 15.9009ZM19.0208 15.821L19.4129 12.3553L19.3604 12.3493L19.3077 12.345L19.0208 15.821ZM18.9498 15.7505L15.5054 16.299L15.5066 16.307L15.508 16.315L18.9498 15.7505ZM18.7747 15.5472L19.6367 12.1677L19.6338 12.1669L18.7747 15.5472ZM18.6707 15.5892L15.9601 13.3943L15.9382 13.4215L15.9168 13.449L18.6707 15.5892ZM18.3679 15.8345L16.8274 12.7054L16.8272 12.7055L18.3679 15.8345ZM18.2705 15.8047L21.074 13.7298L21.0696 13.7239L18.2705 15.8047ZM18.1547 15.6489L20.9538 13.5681L20.9463 13.558L20.9388 13.548L18.1547 15.6489ZM18.048 15.5987L18.1185 12.1117L18.0955 12.1112L18.0725 12.111L18.048 15.5987ZM17.3333 15.4036L19.099 12.3958L19.0886 12.3897L17.3333 15.4036ZM17.0608 15.2478L17.6689 18.6821L17.6782 18.6805L17.6874 18.6788L17.0608 15.2478ZM16.9463 15.2247L19.0653 12.4545L19.0374 12.4331L19.009 12.4123L16.9463 15.2247ZM16.5211 15.1963L14.7547 12.1888L14.7323 12.202L14.7102 12.2155L16.5211 15.1963ZM16.4039 15.2098L14.6976 18.2517L14.723 18.266L14.7487 18.2798L16.4039 15.2098ZM16.1841 15.0865L17.8904 12.0446L17.8581 12.0265L17.8255 12.0091L16.1841 15.0865ZM16.0959 15.1055L13.2187 13.134L13.2048 13.1543L13.1912 13.1748L16.0959 15.1055ZM15.876 15.2451L16.14 18.7228L16.1484 18.7222L16.1567 18.7215L15.876 15.2451ZM15.83 15.1773L19.2169 16.01L19.2195 15.9996L19.2219 15.9892L15.83 15.1773ZM16.1222 13.9564L19.5142 14.7683L19.515 14.7648L16.1222 13.9564ZM16.0761 13.9198L17.7647 16.9716L17.7747 16.9661L16.0761 13.9198ZM33.0988 34.5475C33.3654 35.2626 33.3453 36.0164 33.1177 36.6577L26.544 34.3243C26.2496 35.1536 26.2295 36.0908 26.5628 36.9847L33.0988 34.5475ZM33.1012 36.703C33.2602 36.274 33.3348 35.8185 33.3212 35.3618L26.3487 35.57C26.3356 35.1304 26.4073 34.692 26.5604 34.279L33.1012 36.703ZM33.3212 35.3618C33.3075 34.9054 33.2058 34.4493 33.0148 34.0208L26.6439 36.8616C26.4597 36.4486 26.3618 36.0093 26.3487 35.57L33.3212 35.3618ZM33.0148 34.0208C32.8237 33.5922 32.5456 33.1973 32.189 32.8659L27.4408 37.976C27.0963 37.656 26.8281 37.2748 26.6439 36.8616L33.0148 34.0208ZM32.189 32.8659C31.8317 32.534 31.4047 32.2745 30.9312 32.1112L28.6567 38.7055C28.1987 38.5476 27.7859 38.2967 27.4408 37.976L32.189 32.8659ZM30.9005 32.1008C31.0661 32.1562 31.1857 32.2135 31.236 32.2386C31.258 32.2495 31.3153 32.2798 31.2172 32.2275C31.1209 32.1762 30.6574 31.9189 30.028 31.7958L28.6885 38.6415C28.4413 38.5932 28.2471 38.5228 28.1201 38.4694C28.0576 38.4432 28.0092 38.42 27.9796 38.4054C27.9511 38.3913 27.9329 38.3816 27.936 38.3832C27.9375 38.384 27.9402 38.3855 27.9494 38.3904C27.9566 38.3943 27.9708 38.402 27.9857 38.4099C28.0158 38.426 28.0665 38.4528 28.1272 38.4831C28.1891 38.5139 28.2685 38.5518 28.3614 38.5916C28.4548 38.6317 28.564 38.6747 28.6874 38.716L30.9005 32.1008ZM30.0192 31.7941C30.1742 31.824 30.2773 31.8639 30.3156 31.8799C30.3526 31.8953 30.3555 31.8995 30.3037 31.871C30.279 31.8574 30.2484 31.84 30.2038 31.8141C30.1812 31.801 30.1589 31.788 30.131 31.7718C30.1048 31.7565 30.0736 31.7384 30.0416 31.7199C29.9325 31.6569 29.7113 31.5295 29.4569 31.4136L26.5637 37.7608C26.4877 37.7262 26.4583 37.7057 26.5531 37.7605C26.6012 37.7882 26.7837 37.8959 26.9375 37.9806C27.2597 38.1581 27.8906 38.4875 28.6973 38.6432L30.0192 31.7941ZM29.4636 31.4166C29.0133 31.2102 28.6711 31.0473 28.4259 30.9244C28.3035 30.8631 28.2185 30.8184 28.164 30.7885C28.1 30.7534 28.1139 30.7582 28.1702 30.7957L24.3067 36.6036C24.8252 36.9485 25.6913 37.361 26.557 37.7578L29.4636 31.4166ZM28.1497 30.7821C27.6636 30.4637 27.0289 30.1646 26.2611 30.053L25.2575 36.956C24.8004 36.8895 24.4851 36.7206 24.3273 36.6172L28.1497 30.7821ZM26.2647 30.0535C26.296 30.0581 26.317 30.0653 26.1619 30.027C26.0421 29.9974 25.7126 29.9127 25.3221 29.8676L24.5221 36.7972C24.4133 36.7846 24.3405 36.7623 24.4879 36.7987C24.6 36.8265 24.8988 36.9035 25.2539 36.9555L26.2647 30.0535ZM30.5758 33.8585L30.5113 33.8246L27.268 40.0003L27.3325 40.0342L30.5758 33.8585ZM30.5396 33.8397C30.2478 33.683 29.8146 33.5015 29.2662 33.4345L28.4205 40.3586C27.9001 40.2951 27.4993 40.1247 27.2396 39.9853L30.5396 33.8397ZM29.2662 33.4345C28.8618 33.3851 27.5712 33.3032 26.4481 34.3385L31.1758 39.4675C30.6003 39.9981 29.9725 40.2223 29.5229 40.3141C29.073 40.4061 28.6882 40.3913 28.4205 40.3586L29.2662 33.4345ZM26.4535 34.3335C27.214 33.6355 28.129 33.4638 28.7984 33.5139C29.3518 33.5554 29.7164 33.7389 29.7932 33.7776C29.9012 33.8321 29.9504 33.8706 29.8955 33.8327C29.8704 33.8153 29.8497 33.8005 29.7942 33.7611C29.7548 33.7331 29.6676 33.6711 29.5732 33.609L25.7418 39.4382C25.7175 39.4222 25.7091 39.4156 25.7551 39.4483C25.7851 39.4696 25.8564 39.5206 25.928 39.5701C26.0665 39.6659 26.3276 39.8421 26.6497 40.0047C26.9404 40.1515 27.5214 40.4134 28.277 40.47C29.1488 40.5353 30.252 40.3155 31.1704 39.4725L26.4535 34.3335ZM29.5539 33.5964C28.8737 33.1557 28.2133 33.0328 28.1028 33.0091C28.0549 32.9989 28.0692 33.002 28.0735 33.0029C28.0875 33.0061 28.1341 33.0169 28.1975 33.0352C28.3303 33.0736 28.5527 33.1492 28.8072 33.2934L25.3705 39.3635C25.7171 39.5598 26.0331 39.6707 26.2605 39.7364C26.3711 39.7684 26.4651 39.7908 26.5267 39.8048C26.5579 39.8119 26.5849 39.8178 26.6031 39.8217C26.6123 39.8237 26.6208 39.8255 26.6267 39.8267C26.6335 39.8282 26.6371 39.829 26.6406 39.8297C26.6567 39.8332 26.6344 39.8286 26.5999 39.82C26.5625 39.8107 26.4974 39.7934 26.4156 39.7662C26.2437 39.7091 26.0111 39.6127 25.7611 39.4507L29.5539 33.5964ZM28.7886 33.2829C28.1801 32.9433 27.3964 32.5602 26.4796 32.1412L23.5805 38.4858C24.4311 38.8745 25.02 39.168 25.389 39.374L28.7886 33.2829ZM26.4716 32.1376C26.477 32.14 26.4674 32.1358 26.435 32.1198C26.4036 32.1043 26.364 32.0843 26.3092 32.0565C26.2095 32.0058 26.053 31.9256 25.8917 31.8457C25.5659 31.6842 25.1093 31.468 24.5958 31.2821L22.2208 37.8408C22.3734 37.8961 22.5605 37.98 22.7954 38.0964C22.9145 38.1554 23.0177 38.2084 23.1493 38.2753C23.2581 38.3306 23.4249 38.4152 23.5885 38.4894L26.4716 32.1376ZM24.6118 31.2879C24.8375 31.3709 25.0076 31.466 25.1128 31.5315C25.2048 31.5887 25.2676 31.6374 25.2285 31.6083C25.2218 31.6033 25.1783 31.5708 25.1374 31.5411C25.0914 31.5078 25.0223 31.4586 24.9385 31.4039C24.7706 31.2941 24.5109 31.1398 24.1734 31.0079L21.6348 37.5052C21.3875 37.4085 21.2106 37.3006 21.1224 37.243C21.0785 37.2143 21.0486 37.1927 21.0415 37.1876C21.0395 37.1862 21.0347 37.1826 21.0671 37.2066C21.1062 37.2357 21.2486 37.3427 21.4259 37.4531C21.6164 37.5717 21.8778 37.7148 22.2048 37.835L24.6118 31.2879ZM24.1791 31.0102C24.1882 31.0138 24.1775 31.0117 23.9425 30.8863C23.7621 30.7901 23.3725 30.5787 22.9057 30.4063L20.4883 36.9496C20.4507 36.9357 20.4507 36.9296 20.6596 37.0411C20.814 37.1234 21.1922 37.3313 21.6291 37.5029L24.1791 31.0102ZM22.9094 30.4077C22.8602 30.3894 22.7865 30.3627 22.7717 30.3573C22.7401 30.3457 22.7381 30.3447 22.7472 30.3483C22.7614 30.354 22.8967 30.4072 23.0726 30.5148C23.266 30.6332 23.4865 30.803 23.693 31.0365C23.8965 31.2666 24.0291 31.4935 24.1122 31.6749L17.7707 34.5807C18.1388 35.3841 18.7088 36.0224 19.4315 36.4647C19.7328 36.6491 20.0047 36.7645 20.1671 36.8292C20.2503 36.8623 20.3253 36.89 20.3736 36.9077C20.4387 36.9315 20.4479 36.9346 20.4846 36.9482L22.9094 30.4077ZM24.1099 31.6699C24.457 32.4243 24.5197 33.2861 24.2735 34.0926L17.6019 32.0557C17.345 32.8974 17.4103 33.7976 17.7729 34.5857L24.1099 31.6699ZM24.2735 34.0926C24.0261 34.9028 23.4742 35.6244 22.6857 36.0698L19.2551 29.9961C18.4354 30.4591 17.8601 31.2101 17.6019 32.0557L24.2735 34.0926ZM22.6394 36.0955L22.7737 36.0223L19.4356 29.8973L19.3013 29.9704L22.6394 36.0955ZM32.1882 17.2651C32.3809 17.1537 32.6902 17.0006 33.0995 16.9039C33.5244 16.8034 34.0882 16.7577 34.716 16.9133C35.3588 17.0726 35.8831 17.3974 36.2729 17.7715C36.6404 18.1241 36.8557 18.4871 36.9776 18.7362C37.1007 18.9881 37.1679 19.2052 37.2043 19.3413C37.242 19.4825 37.2625 19.5972 37.2733 19.6654C37.2917 19.7822 37.2993 19.8832 37.2944 19.8287C37.2937 19.8212 37.2898 19.7763 37.2842 19.7257C37.2787 19.6754 37.2675 19.5808 37.247 19.4654C37.2279 19.3576 37.1888 19.1627 37.1098 18.9297C37.0375 18.7167 36.8765 18.3024 36.5341 17.8692C36.1598 17.3955 35.5215 16.8485 34.5842 16.6276C33.6758 16.4136 32.9083 16.606 32.4374 16.8C31.9857 16.986 31.6709 17.2257 31.5055 17.3639C31.3254 17.5143 31.191 17.6562 31.1054 17.7523L36.3149 22.3913C36.2528 22.461 36.1392 22.5823 35.9776 22.7173C35.8307 22.84 35.5321 23.0694 35.0945 23.2496C34.6377 23.4378 33.8823 23.6288 32.9843 23.4173C32.5439 23.3135 32.1492 23.1297 31.8126 22.8977C31.4831 22.6707 31.2379 22.4179 31.0609 22.1938C30.7259 21.7699 30.5709 21.3681 30.5037 21.17C30.4298 20.9519 30.3948 20.7743 30.379 20.6856C30.3619 20.5893 30.3534 20.5156 30.3503 20.4871C30.3472 20.4585 30.3453 20.4366 30.3467 20.4524C30.3471 20.4566 30.3507 20.497 30.3552 20.5405C30.36 20.586 30.3687 20.6627 30.3833 20.7552C30.3976 20.8456 30.4223 20.9816 30.4653 21.1424C30.5069 21.2981 30.5803 21.5331 30.7111 21.8006C30.8406 22.0654 31.0649 22.4417 31.4432 22.8046C31.8437 23.1889 32.3805 23.521 33.0377 23.6839C33.68 23.8432 34.2603 23.7973 34.7041 23.6924C35.1323 23.5912 35.4629 23.4293 35.6796 23.304L32.1882 17.2651ZM31.0988 17.7598C29.9656 19.0396 30.1643 20.5084 30.242 20.9283C30.3428 21.4737 30.5939 22.1772 31.1379 22.8003L36.393 18.2132C36.8553 18.7428 37.0315 19.2824 37.1013 19.6604C37.144 19.8913 37.1815 20.2456 37.1183 20.677C37.0549 21.11 36.8647 21.7703 36.3215 22.3838L31.0988 17.7598ZM31.0882 22.7421C30.7859 22.3801 30.5692 21.9652 30.443 21.5286L37.1441 19.5912C37.0065 19.1153 36.7707 18.6642 36.4427 18.2714L31.0882 22.7421ZM30.443 21.5286C30.3168 21.0922 30.2823 20.6391 30.3364 20.1968L37.2603 21.0443C37.3194 20.5612 37.2816 20.0667 37.1441 19.5912L30.443 21.5286ZM30.3324 20.231C30.2207 21.2248 30.4849 22.3774 31.3487 23.2896L36.4139 18.4936C36.735 18.8327 36.9948 19.259 37.145 19.7498C37.2918 20.2295 37.3028 20.6679 37.2643 21.0102L30.3324 20.231ZM31.3744 23.3165C30.9906 22.9198 30.7559 22.484 30.6196 22.0959L37.2013 19.785C37.0514 19.3582 36.7969 18.8892 36.3881 18.4667L31.3744 23.3165ZM30.6196 22.0959C30.4833 21.7075 30.4332 21.3348 30.433 21.0059L37.4086 21.0023C37.4084 20.628 37.3512 20.212 37.2013 19.785L30.6196 22.0959ZM30.433 21.0243L30.4344 21.2506L37.4098 21.2101L37.4085 20.9838L30.433 21.0243ZM30.4343 21.2176C30.4363 20.6818 30.5686 20.0551 30.9387 19.455L36.8758 23.117C37.265 22.486 37.4077 21.82 37.4098 21.2431L30.4343 21.2176ZM30.9387 19.455C31.3134 18.8476 31.9929 18.1937 33.0112 17.9352L34.7277 24.6963C35.7758 24.4302 36.482 23.7554 36.8758 23.117L30.9387 19.455ZM33.0424 17.9274C33.535 17.8072 34.4147 17.7405 35.332 18.2445C36.131 18.6835 36.4885 19.3163 36.5449 19.4134C36.5804 19.4746 36.6107 19.5345 36.5764 19.4685C36.5597 19.4363 36.4957 19.3117 36.4102 19.1709C36.2337 18.8802 35.8564 18.3303 35.1708 17.8884L31.3912 23.7512C30.8359 23.3932 30.5495 22.959 30.4479 22.7917C30.3998 22.7125 30.3693 22.6516 30.385 22.6819C30.3865 22.6847 30.4057 22.7219 30.4229 22.7543C30.4425 22.7913 30.474 22.8498 30.5138 22.9183C30.6368 23.13 31.0686 23.8612 31.9731 24.3581C32.9959 24.9201 34.0124 24.871 34.6965 24.704L33.0424 17.9274ZM35.1821 17.8957C35.7305 18.2522 36.0773 18.708 36.2824 19.0965L30.1138 22.3533C30.3628 22.825 30.7648 23.344 31.3799 23.7439L35.1821 17.8957ZM36.2907 19.1123C36.1091 18.7642 35.7952 18.2878 35.2654 17.8751C34.9965 17.6656 34.6925 17.4889 34.3584 17.3574C34.0255 17.2263 33.7005 17.1549 33.4006 17.1235C32.8249 17.0633 32.3662 17.1543 32.1475 17.2058C32.0294 17.2336 31.9343 17.2618 31.8838 17.2772C31.8496 17.2876 31.7823 17.309 31.8051 17.3018C31.8053 17.3017 31.8146 17.2988 31.8286 17.2946C31.8429 17.2904 31.8654 17.2838 31.8938 17.2761C31.9493 17.2612 32.0405 17.2385 32.1566 17.2184C32.3894 17.1782 32.7676 17.1405 33.2261 17.2178C33.7072 17.299 34.1589 17.4869 34.5469 17.7599C34.9153 18.0191 35.1536 18.3033 35.2956 18.5077L29.5683 22.4896C29.7824 22.7976 30.0927 23.1551 30.5326 23.4647C30.754 23.6204 30.9986 23.7572 31.2651 23.8669C31.5319 23.9768 31.8013 24.0516 32.0664 24.0963C32.5953 24.1855 33.0429 24.1442 33.3442 24.0921C33.4944 24.0662 33.6196 24.0355 33.7086 24.0115C33.7956 23.9881 33.8664 23.9659 33.897 23.9563C33.9054 23.9537 33.9129 23.9513 33.9178 23.9497C33.9242 23.9477 33.9252 23.9474 33.928 23.9465C33.9324 23.9451 33.9262 23.9471 33.9157 23.9503C33.8973 23.9559 33.8338 23.9751 33.7469 23.9956C33.6591 24.0162 33.5205 24.0448 33.3465 24.0625C33.1704 24.0804 32.9412 24.0891 32.6751 24.0613C32.4043 24.0329 32.1079 23.9681 31.803 23.848C31.497 23.7275 31.2203 23.5663 30.9782 23.3777C30.502 23.0066 30.239 22.5936 30.1055 22.3375L36.2907 19.1123ZM35.3032 18.5186C34.8212 17.8196 34.1102 17.322 33.3041 17.1031L31.4755 23.8347C30.7039 23.6251 30.0226 23.1485 29.5607 22.4786L35.3032 18.5186ZM33.3041 17.1031C32.5018 16.8851 31.6731 16.9598 30.9518 17.2721L33.7226 23.6737C33.0349 23.9714 32.2433 24.0433 31.4755 23.8347L33.3041 17.1031ZM30.9458 17.2746C31.3767 17.0872 32.0046 16.9395 32.7359 17.0691C33.4655 17.1984 34.0002 17.5509 34.335 17.8673L29.5442 22.9375C29.9967 23.365 30.6564 23.7848 31.5185 23.9376C32.3824 24.0907 33.1502 23.9227 33.7286 23.6711L30.9458 17.2746ZM34.336 17.8683C33.7023 17.269 32.8864 16.9244 32.0402 16.8724L31.6127 23.8349C30.8518 23.7882 30.1158 23.478 29.5433 22.9366L34.336 17.8683ZM32.0298 16.8718C32.4851 16.8984 32.9771 17.0301 33.4403 17.3053C33.8949 17.5754 34.2088 17.9161 34.4128 18.2165L28.6424 22.1358C29.268 23.0568 30.3171 23.7592 31.6231 23.8355L32.0298 16.8718ZM34.4083 18.2099C34.0877 17.7401 33.6185 17.2929 32.9924 16.9921L29.9718 23.2798C29.3809 22.9959 28.9433 22.5766 28.6469 22.1424L34.4083 18.2099ZM32.9924 16.9921C32.3579 16.6873 31.5511 16.5339 30.6919 16.7197L32.1659 23.5377C31.341 23.7161 30.5711 23.5677 29.9718 23.2798L32.9924 16.9921ZM30.7312 16.7114C29.8532 16.8907 29.013 17.372 28.4078 18.1616L33.9445 22.4047C33.4639 23.0318 32.7923 23.4101 32.1266 23.546L30.7312 16.7114ZM28.3803 18.198C28.7751 17.6686 29.3498 17.224 30.0682 16.9942L32.1938 23.638C32.9473 23.3969 33.5537 22.9292 33.972 22.3684L28.3803 18.198ZM30.0682 16.9942C30.7955 16.7614 31.6278 16.7673 32.411 17.091L29.7465 23.5377C30.5623 23.8749 31.4312 23.8819 32.1938 23.638L30.0682 16.9942ZM32.4226 17.0959C32.7365 17.2269 33.0189 17.4391 33.2304 17.6988L27.8213 22.1033C28.3329 22.7316 28.984 23.2193 29.7349 23.5328L32.4226 17.0959ZM33.2341 17.7034C32.9534 17.3574 32.5744 17.0197 32.087 16.7658L28.8637 22.952C28.4134 22.7173 28.069 22.4085 27.8176 22.0988L33.2341 17.7034ZM32.087 16.7658C31.5973 16.5106 30.9701 16.3282 30.2564 16.3615L30.582 23.3295C29.9052 23.3611 29.3164 23.1878 28.8637 22.952L32.087 16.7658ZM30.308 16.3595C29.1814 16.3954 28.1074 16.9172 27.3861 17.8525L32.91 22.1122C32.6555 22.4423 32.3001 22.7629 31.838 22.9961C31.3782 23.2282 30.9213 23.319 30.5305 23.3315L30.308 16.3595ZM27.3657 17.8793C27.664 17.4846 28.0472 17.1549 28.4926 16.9178L31.7704 23.0752C32.2287 22.8313 32.6232 22.4919 32.9305 22.0854L27.3657 17.8793ZM28.4926 16.9178C28.9379 16.6807 29.4282 16.5455 29.9283 16.5193L30.2929 23.4853C30.8076 23.4584 31.3122 23.3192 31.7704 23.0752L28.4926 16.9178ZM29.9283 16.5193C30.4279 16.4932 30.9202 16.5767 31.3728 16.7559L28.8051 23.2416C29.2715 23.4263 29.7785 23.5123 30.2929 23.4853L29.9283 16.5193ZM31.3728 16.7559C31.8248 16.9348 32.227 17.2049 32.5581 17.5418L27.5827 22.431C27.9244 22.7787 28.3392 23.0572 28.8051 23.2416L31.3728 16.7559ZM32.5658 17.5496L32.313 17.2908L27.3223 22.1644L27.5751 22.4232L32.5658 17.5496ZM32.2741 17.2516C31.7483 16.7299 31.1374 16.4441 30.59 16.3111L28.9436 23.0896C28.4369 22.9666 27.861 22.6994 27.3612 22.2036L32.2741 17.2516ZM30.59 16.3111C30.0451 16.1788 29.5287 16.1866 29.0854 16.266L30.3156 23.1323C29.9186 23.2034 29.4476 23.2121 28.9436 23.0896L30.59 16.3111ZM29.0864 16.2658C29.5442 16.184 29.9955 16.2478 30.3634 16.4005L27.6896 22.8433C28.5016 23.1803 29.4022 23.2956 30.3146 23.1325L29.0864 16.2658ZM30.3122 16.3797C29.4655 16.044 28.595 16.0605 27.8591 16.2916L29.9491 22.9468C29.2967 23.1516 28.5125 23.1701 27.7409 22.8641L30.3122 16.3797ZM27.8618 16.2908C28.2827 16.159 29.131 16.0261 30.0575 16.4869C30.9503 16.9309 31.331 17.6384 31.4619 17.9545L25.0168 20.6226C25.2793 21.2567 25.8366 22.1783 26.951 22.7326C28.0991 23.3036 29.214 23.177 29.9464 22.9476L27.8618 16.2908ZM31.4743 17.9848C31.2596 17.4521 30.771 16.6137 29.7604 16.0919L26.5603 22.2901C25.614 21.8015 25.182 21.033 25.0044 20.5924L31.4743 17.9848ZM29.7843 16.1044C28.8501 15.6128 27.8508 15.5698 27.0004 15.7968L28.7991 22.5364C28.1382 22.7128 27.3127 22.6861 26.5364 22.2776L29.7843 16.1044ZM27.0301 15.789C27.6255 15.6357 28.2726 15.6428 28.896 15.8403L26.7897 22.4903C27.4495 22.6992 28.136 22.7073 28.7694 22.5442L27.0301 15.789ZM28.896 15.8403C29.522 16.0386 30.0889 16.4187 30.5148 16.9481L25.0793 21.3201C25.5287 21.8788 26.1274 22.2805 26.7897 22.4903L28.896 15.8403ZM30.4945 16.9231C30.0386 16.3669 29.2724 15.7227 28.1527 15.5042C27.0352 15.2862 26.0859 15.5938 25.4584 15.9328L28.7745 22.0698C28.4112 22.2661 27.7074 22.5245 26.8168 22.3507C25.924 22.1765 25.3659 21.67 25.0996 21.3451L30.4945 16.9231ZM25.4854 15.9184C26.1272 15.5789 26.9086 15.4312 27.7111 15.5834L26.4115 22.4368C27.2506 22.596 28.0711 22.4421 28.7475 22.0842L25.4854 15.9184ZM27.7111 15.5834C28.5244 15.7376 29.2927 16.1922 29.8239 16.9129L24.2089 21.0518C24.7615 21.8014 25.5616 22.2757 26.4115 22.4368L27.7111 15.5834ZM29.8486 16.9468L29.7288 16.7801L24.0645 20.8512L24.1843 21.0179L29.8486 16.9468ZM29.7161 16.7625C29.2134 16.0722 28.4899 15.5986 27.6896 15.4013L26.0202 22.1742C25.2537 21.9853 24.5597 21.5314 24.0772 20.8688L29.7161 16.7625ZM27.6896 15.4013C26.8949 15.2055 26.0883 15.2952 25.3929 15.6027L28.2135 21.9825C27.5511 22.2754 26.7809 22.3617 26.0202 22.1742L27.6896 15.4013ZM25.3831 15.607C26.3508 15.1756 27.4059 15.2503 28.2465 15.6718C28.9236 16.0113 29.2845 16.4816 29.4061 16.6508C29.6544 16.996 29.7262 17.2641 29.6948 17.1716C29.6886 17.1532 29.6714 17.0958 29.6421 16.9785C29.626 16.9145 29.6182 16.881 29.5986 16.8013C29.59 16.7665 29.5555 16.6231 29.5123 16.4824L22.8435 18.5282C22.826 18.4711 22.7995 18.3697 22.8751 18.6718C22.9174 18.841 22.9894 19.1188 23.0888 19.4119C23.1631 19.6309 23.357 20.1867 23.7427 20.7231C23.9331 20.9879 24.3666 21.5297 25.12 21.9074C26.0369 22.3672 27.172 22.4469 28.2233 21.9782L25.3831 15.607ZM29.5142 16.4885C29.4754 16.3612 29.3627 16.0052 29.1112 15.6092C28.9502 15.3558 28.1088 14.0883 26.3546 13.988C24.563 13.8856 23.5782 15.0922 23.3786 15.3517C23.0834 15.7355 22.9378 16.0923 22.8883 16.217L29.3727 18.7882C29.332 18.8908 29.195 19.2311 28.9081 19.6041C28.7169 19.8527 27.7402 21.0541 25.9565 20.9522C24.2102 20.8523 23.3764 19.5909 23.223 19.3492C22.9789 18.965 22.8734 18.6264 22.8416 18.5221L29.5142 16.4885ZM22.896 16.1978C22.7859 16.4706 22.6989 16.7712 22.6501 17.0965C22.601 17.4245 22.5964 17.7398 22.6241 18.0356C22.6766 18.5948 22.8472 19.026 22.8705 19.089C22.8976 19.1619 22.8715 19.0933 22.8514 19.0316C22.8243 18.9482 22.7751 18.7841 22.7415 18.5681C22.7066 18.3434 22.691 18.0799 22.7186 17.7899C22.7461 17.5002 22.8119 17.2337 22.9002 16.9973L29.4346 19.4388C29.5492 19.1319 29.6296 18.8003 29.6629 18.4491C29.6963 18.0977 29.6778 17.7766 29.6343 17.4966C29.5921 17.2252 29.5286 17.0082 29.4845 16.8727C29.4625 16.805 29.4425 16.7493 29.4302 16.7158C29.424 16.6988 29.4186 16.6842 29.4153 16.6755C29.4107 16.6631 29.4112 16.6644 29.4096 16.6601C29.4041 16.6454 29.4359 16.7282 29.4683 16.842C29.5037 16.9669 29.5475 17.153 29.5692 17.3837C29.5913 17.6195 29.5875 17.8713 29.5486 18.1306C29.5101 18.3874 29.4429 18.6145 29.365 18.8074L22.896 16.1978ZM19.9641 14.1254C19.2658 14.7319 18.7866 15.5112 18.5466 16.3725L25.2661 18.2452C25.1489 18.6656 24.8996 19.0781 24.5383 19.3919L19.9641 14.1254ZM18.5272 16.445C18.5277 16.4431 18.5351 16.4137 18.5462 16.3744C18.5494 16.363 18.5669 16.3004 18.5931 16.2213C18.6016 16.1958 18.6405 16.0776 18.7038 15.932C18.7272 15.878 18.8138 15.6784 18.9633 15.4444C19.0312 15.3381 19.2049 15.0753 19.494 14.7993C19.6851 14.6168 20.5269 13.8339 21.9027 13.8339C23.623 13.8339 24.5752 14.9848 24.9105 15.556C25.2204 16.0839 25.3097 16.5606 25.3362 16.7089C25.4003 17.0683 25.3907 17.3562 25.3893 17.4114C25.3845 17.5954 25.3654 17.739 25.3623 17.7635C25.3509 17.8527 25.3383 17.9219 25.3363 17.933C25.3288 17.9748 25.3224 18.0059 25.3221 18.0077L18.4879 16.61C18.4858 16.6203 18.4781 16.6579 18.4699 16.7039C18.4675 16.7172 18.4547 16.788 18.4431 16.8783C18.4399 16.9033 18.4208 17.0473 18.416 17.2315C18.4146 17.2869 18.405 17.5749 18.4691 17.9344C18.4956 18.0827 18.5849 18.5594 18.8948 19.0873C19.2302 19.6586 20.1824 20.8095 21.9027 20.8095C23.2785 20.8095 24.1204 20.0266 24.3115 19.8441C24.6005 19.5681 24.7743 19.3053 24.8422 19.1989C24.9917 18.9648 25.0784 18.7651 25.1019 18.711C25.1653 18.5651 25.2043 18.4465 25.2129 18.4205C25.2396 18.3403 25.2575 18.276 25.2614 18.2625C25.2736 18.219 25.2828 18.1831 25.2854 18.1727L18.5272 16.445ZM25.3363 17.9338C25.5469 16.7777 25.3137 15.3895 24.2698 14.296L19.2243 19.1129C18.909 18.7827 18.6547 18.353 18.5247 17.8554C18.3992 17.3757 18.4228 16.9631 18.4737 16.6838L25.3363 17.9338ZM24.2544 14.28C23.7833 13.7928 23.2218 13.4863 22.6712 13.3263L20.7243 20.0247C20.2126 19.8759 19.6849 19.5893 19.2397 19.1289L24.2544 14.28ZM22.6712 13.3263C22.1242 13.1673 21.5866 13.1505 21.1045 13.2248L22.1658 20.1191C21.7271 20.1867 21.2324 20.1723 20.7243 20.0247L22.6712 13.3263ZM21.0479 13.234C21.3787 13.1774 22.2277 13.0978 23.1426 13.6276C24.1545 14.2135 24.5563 15.1341 24.6843 15.7194L17.8698 17.2098C18.0356 17.9677 18.5159 19.0091 19.6472 19.6642C20.6815 20.2631 21.6906 20.2008 22.2224 20.1099L21.0479 13.234ZM24.6917 15.7538C24.651 15.5586 24.5503 15.145 24.2827 14.686C24.0079 14.2145 23.3841 13.4178 22.2308 13.083C21.0697 12.7458 20.1073 13.0897 19.6098 13.3536C19.131 13.6075 18.823 13.9136 18.6846 14.0608L23.7669 18.8387C23.6417 18.9719 23.3457 19.2681 22.8778 19.5162C22.3911 19.7743 21.4384 20.1165 20.2858 19.7819C19.1411 19.4495 18.5247 18.6594 18.2562 18.1987C17.9949 17.7504 17.8992 17.3517 17.8625 17.1754L24.6917 15.7538ZM18.639 14.1102C18.9516 13.7646 19.7835 13.042 21.1028 13.0781C22.3468 13.1121 23.0906 13.8037 23.3213 14.0492L18.2377 18.8258C18.6238 19.2367 19.5196 20.013 20.9123 20.051C22.3804 20.0912 23.3577 19.292 23.8125 18.7893L18.639 14.1102ZM23.3061 14.0331C22.9505 13.6595 22.5172 13.3678 22.0364 13.179L19.4872 19.6721C19.0197 19.4886 18.5986 19.2051 18.2529 18.8419L23.3061 14.0331ZM22.0364 13.179C21.5561 12.9905 21.0521 12.9137 20.5611 12.939L20.9197 19.9053C20.4434 19.9298 19.954 19.8554 19.4872 19.6721L22.0364 13.179ZM20.5611 12.939C20.0708 12.9642 19.6062 13.0902 19.1913 13.2923L22.2463 19.5633C21.8451 19.7588 21.3952 19.8809 20.9197 19.9053L20.5611 12.939ZM19.1913 13.2923C18.777 13.4941 18.4139 13.7708 18.1161 14.0995L23.2849 18.7837C22.9976 19.1008 22.6469 19.3681 22.2463 19.5633L19.1913 13.2923ZM18.0958 14.1221C18.5244 13.6408 19.2085 13.164 20.1273 13.0289C20.9917 12.9017 21.681 13.1342 22.0736 13.3244L19.0325 19.6021C19.4849 19.8213 20.2285 20.0645 21.1422 19.9302C22.1101 19.7879 22.8381 19.2857 23.3053 18.7611L18.0958 14.1221ZM22.1103 13.3424C21.5447 13.0602 20.8965 12.9235 20.2301 12.975L20.7671 19.9298C20.1378 19.9784 19.5273 19.8493 18.9959 19.5841L22.1103 13.3424ZM20.2301 12.975C19.5616 13.0266 18.9109 13.2656 18.3593 13.678L22.5362 19.2648C22.014 19.6552 21.3985 19.8811 20.7671 19.9298L20.2301 12.975ZM18.3892 13.6559C18.7252 13.4102 19.2094 13.1636 19.8255 13.0782C20.4517 12.9915 21.0206 13.0985 21.4724 13.2829L18.8361 19.7412C20.1354 20.2715 21.5035 20.0201 22.5063 19.2869L18.3892 13.6559ZM21.412 13.2589C22.4142 13.6464 22.9236 14.3721 23.1413 14.7796L16.9882 18.0656C17.2532 18.5619 17.8267 19.3515 18.8965 19.7652L21.412 13.2589ZM23.1404 14.7779C22.415 13.4215 21.0867 12.558 19.5293 12.469L19.1311 19.4331C18.7838 19.4133 18.3293 19.3077 17.8784 19.0182C17.4287 18.7295 17.1477 18.364 16.9891 18.0673L23.1404 14.7779ZM19.5035 12.4676C20.4527 12.5148 21.1236 12.9392 21.4893 13.2527L16.9499 18.5491C17.3871 18.9239 18.1362 19.3837 19.1569 19.4345L19.5035 12.4676ZM21.464 13.2312C20.802 12.6746 20.0576 12.4282 19.4129 12.3553L18.6288 19.2866C18.1438 19.2318 17.532 19.0387 16.9752 18.5706L21.464 13.2312ZM19.3077 12.345C20.1495 12.4145 20.8899 12.7869 21.4298 13.3221L16.519 18.2761C17.0846 18.8368 17.8577 19.2246 18.734 19.2969L19.3077 12.345ZM21.4298 13.3221C21.9642 13.8518 22.2815 14.5149 22.3916 15.186L15.508 16.315C15.6242 17.0236 15.9588 17.7208 16.519 18.2761L21.4298 13.3221ZM22.3941 15.202C22.3087 14.6654 22.0803 13.9734 21.5355 13.3408C20.9746 12.6897 20.2753 12.3306 19.6367 12.1677L17.9126 18.9268C17.3732 18.7892 16.7527 18.4766 16.2502 17.8932C15.7637 17.3284 15.5733 16.7254 15.5054 16.299L22.3941 15.202ZM19.6338 12.1669C18.82 11.9601 18.042 12.0641 17.4136 12.318L20.0262 18.7858C19.4347 19.0247 18.6946 19.1256 17.9156 18.9276L19.6338 12.1669ZM17.4136 12.318C16.7925 12.5689 16.3077 12.9651 15.9601 13.3943L21.3812 17.7842C21.0612 18.1794 20.6106 18.5497 20.0262 18.7858L17.4136 12.318ZM15.9168 13.449C16.1689 13.1246 16.487 12.873 16.8274 12.7054L19.9085 18.9636C20.491 18.6768 21.011 18.2617 21.4246 17.7295L15.9168 13.449ZM16.8272 12.7055C17.6652 12.2929 18.5688 12.2678 19.337 12.5029L17.2957 19.1731C18.0995 19.4191 19.0395 19.3915 19.9086 18.9635L16.8272 12.7055ZM19.337 12.5029C20.0909 12.7336 20.6792 13.1964 21.074 13.7298L15.4671 17.8796C15.8857 18.4452 16.5063 18.9315 17.2957 19.1731L19.337 12.5029ZM21.0696 13.7239L20.9538 13.5681L15.3556 17.7296L15.4714 17.8855L21.0696 13.7239ZM20.9388 13.548C20.5619 13.0486 20.0867 12.6883 19.5933 12.4563L16.6251 18.7689C16.1686 18.5542 15.7245 18.2188 15.3706 17.7497L20.9388 13.548ZM19.5933 12.4563C19.1024 12.2255 18.5957 12.1213 18.1185 12.1117L17.9776 19.0858C17.544 19.0771 17.0791 18.9823 16.6251 18.7689L19.5933 12.4563ZM18.0725 12.111C18.4152 12.1134 18.7792 12.2081 19.099 12.3958L15.5675 18.4114C16.3243 18.8557 17.1649 19.0804 18.0236 19.0864L18.0725 12.111ZM19.0886 12.3897C19.5246 12.6437 19.7911 12.9353 19.8783 13.0334C19.9058 13.0643 19.9541 13.1216 19.9066 13.0656C19.8857 13.0408 19.8042 12.9443 19.6935 12.833C19.4519 12.5901 18.9901 12.1912 18.2844 11.9504C17.5756 11.7086 16.9222 11.7276 16.4342 11.8167L17.6874 18.6788C17.281 18.753 16.6899 18.7768 16.0319 18.5523C15.3769 18.3288 14.9543 17.9598 14.7479 17.7523C14.6548 17.6587 14.59 17.5813 14.5856 17.5761C14.5547 17.5397 14.6196 17.617 14.6646 17.6676C14.7868 17.805 15.0919 18.1344 15.5779 18.4175L19.0886 12.3897ZM16.4526 11.8134C16.8207 11.7482 17.2408 11.7387 17.6859 11.8283L16.3103 18.6669C16.7949 18.7643 17.2576 18.755 17.6689 18.6821L16.4526 11.8134ZM17.6859 11.8283C18.1329 11.9182 18.617 12.1116 19.0653 12.4545L14.8272 17.995C15.3045 18.3601 15.8239 18.569 16.3103 18.6669L17.6859 11.8283ZM19.009 12.4123C18.5257 12.0578 17.8347 11.7184 16.9676 11.6604C16.0866 11.6014 15.3261 11.8532 14.7547 12.1888L18.2874 18.2037C17.8591 18.4553 17.241 18.6699 16.5017 18.6204C15.7763 18.5718 15.2264 18.2887 14.8835 18.0372L19.009 12.4123ZM14.7102 12.2155C15.0554 12.0057 15.5095 11.8175 16.0579 11.7541L16.8594 18.6835C17.4489 18.6153 17.9461 18.4115 18.332 18.1771L14.7102 12.2155ZM16.0579 11.7541C16.6072 11.6906 17.3323 11.748 18.0591 12.1398L14.7487 18.2798C15.5061 18.6882 16.2689 18.7518 16.8594 18.6835L16.0579 11.7541ZM18.1102 12.1679L17.8904 12.0446L14.4778 18.1284L14.6976 18.2517L18.1102 12.1679ZM17.8255 12.0091C17.1163 11.6309 16.2604 11.4848 15.4018 11.6695L16.8687 18.4891C16.0425 18.6668 15.2213 18.5259 14.5427 18.1639L17.8255 12.0091ZM15.4018 11.6695C14.5344 11.8561 13.7443 12.3671 13.2187 13.134L18.973 17.0769C18.4659 17.8171 17.7037 18.3095 16.8687 18.4891L15.4018 11.6695ZM13.1912 13.1748C13.3831 12.8861 13.6833 12.5431 14.1287 12.2603C14.5874 11.969 15.0955 11.809 15.5954 11.7686L16.1567 18.7215C17.4773 18.6149 18.4505 17.8638 19.0006 17.0362L13.1912 13.1748ZM15.6121 11.7673C16.2583 11.7182 16.8928 11.8529 17.4483 12.1382L14.2614 18.3432C14.8302 18.6354 15.4792 18.773 16.14 18.7228L15.6121 11.7673ZM17.4483 12.1382C17.9984 12.4208 18.4233 12.8249 18.722 13.2642L12.9538 17.1867C13.2615 17.6393 13.698 18.0539 14.2614 18.3432L17.4483 12.1382ZM18.722 13.2642C19.0194 13.7015 19.1944 14.175 19.2703 14.6351L12.3877 15.7703C12.4663 16.2471 12.6475 16.7363 12.9538 17.1867L18.722 13.2642ZM19.2703 14.6351C19.3462 15.0954 19.3268 15.5631 19.2169 16.01L12.4431 14.3446C12.3291 14.8082 12.309 15.2932 12.3877 15.7703L19.2703 14.6351ZM19.2219 15.9892L19.5142 14.7683L12.7302 13.1445L12.438 14.3654L19.2219 15.9892ZM19.515 14.7648C19.5543 14.5998 19.6393 14.2041 19.606 13.6984C19.5753 13.2313 19.3943 12.0584 18.2883 11.1801C17.1553 10.2803 15.9377 10.3869 15.4304 10.4865C14.9064 10.5894 14.5296 10.7888 14.3776 10.8736L17.7747 16.9661C17.6438 17.0391 17.2846 17.2312 16.775 17.3313C16.2821 17.4281 15.0755 17.5363 13.9502 16.6426C12.8519 15.7704 12.6752 14.6081 12.6455 14.156C12.6132 13.6653 12.6958 13.2891 12.7294 13.148L19.515 14.7648ZM14.3876 10.868L14.2823 10.9263L17.6594 17.0299L17.7647 16.9716L14.3876 10.868ZM29.8308 35.7661L23.7959 32.2678L23.7833 32.2895L23.7709 32.3113L29.8308 35.7661ZM24.9221 33.3324L24.7897 26.3581L24.7069 26.3597L24.6242 26.3632L24.9221 33.3324ZM30.231 31.7782L26.0269 26.2118L26.0198 26.2172L30.231 31.7782ZM30.3271 31.812L37.0744 30.0422L37.0622 29.9955L37.0493 29.949L30.3271 31.812ZM21.1046 32.9598L19.2696 39.6897L19.3674 39.7163L19.4658 39.7401L21.1046 32.9598ZM28.9541 36.9464L33.41 42.3133L33.7314 42.0464L34.0187 41.743L28.9541 36.9464ZM33.9339 20.2845L27.243 22.2569L27.246 22.2669L27.249 22.277L33.9339 20.2845ZM26.1674 18.2181L32.8696 16.2846L32.8607 16.2535L32.8514 16.2225L26.1674 18.2181ZM24.6509 12.9957L31.3643 11.101L31.3637 11.099L24.6509 12.9957ZM23.6913 12.31L27.6297 18.0674L27.6356 18.0634L27.6414 18.0594L23.6913 12.31ZM23.3938 12.7829L30.1099 14.6679L30.1104 14.6661L23.3938 12.7829ZM22.2512 16.7587L15.5592 14.7902L15.5511 14.8175L15.5433 14.8449L22.2512 16.7587ZM15.9708 13.9781L22.6528 15.9805L22.6624 15.9485L22.6717 15.9163L15.9708 13.9781ZM18.1362 6.73122L11.5363 4.47291L11.5346 4.47813L18.1362 6.73122ZM20.557 5.04417L20.7319 12.0175L20.7345 12.0175L20.557 5.04417ZM26.8374 5.02249L26.9685 -1.95185L26.9669 -1.95188L26.8374 5.02249ZM30.0493 7.23937L23.3686 9.24597L23.3694 9.2486L30.0493 7.23937ZM19.1209 27.7306L25.8286 29.645L25.8288 29.6444L19.1209 27.7306ZM18.9906 27.8498L17.7892 20.9785L17.7667 20.9824L17.7442 20.9865L18.9906 27.8498ZM11.0674 30.5884L7.82359 24.4129L7.79356 24.4287L7.76367 24.4448L11.0674 30.5884ZM11.0081 30.5383L4.32616 28.5358L4.32354 28.5446L4.32095 28.5533L11.0081 30.5383ZM36.9945 30.5532L30.3095 32.5456L30.3111 32.5509L36.9945 30.5532ZM36.9405 30.5993L33.6886 36.7704L33.6978 36.7753L33.7071 36.7801L36.9405 30.5993ZM29.0213 27.8498L27.7353 34.7058L27.7448 34.7076L27.7543 34.7094L29.0213 27.8498ZM28.9186 27.755L22.2163 29.6884L22.221 29.7047L22.2258 29.721L28.9186 27.755ZM26.7742 38.567L30.6258 44.3829L30.6293 44.3805L26.7742 38.567ZM25.4144 42.9208L18.9668 45.5828L18.9707 45.5924L18.9747 45.6019L25.4144 42.9208ZM25.3526 42.9804L22.2234 49.2148L22.238 49.2221L22.2525 49.2293L25.3526 42.9804ZM22.8725 39.8028L16.0515 41.263L16.0529 41.2695L22.8725 39.8028ZM21.7628 36.2106L24.1002 29.6383L24.0931 29.6357L21.7628 36.2106ZM19.3368 37.7784L26.2449 38.7457L26.2451 38.7444L19.3368 37.7784ZM19.2196 37.8136L24.5759 33.3449L24.5692 33.3369L24.5624 33.3289L19.2196 37.8136ZM17.8875 31.121L11.1322 29.3815L11.1292 29.3935L11.1261 29.4054L17.8875 31.121ZM17.9809 31.1047L23.7785 27.2257L23.7748 27.2203L17.9809 31.1047ZM25.0545 40.3067C27.5192 40.2599 31.2914 39.7252 34.4422 37.3391L26.0198 26.2172C26.1869 26.0906 26.1951 26.1405 25.899 26.2194C25.6167 26.2946 25.2279 26.3498 24.7897 26.3581L25.0545 40.3067ZM34.4351 37.3445C33.5369 38.0229 32.4765 38.4791 31.3414 38.6575L29.1751 24.8756C28.0203 25.0571 26.9412 25.5213 26.0269 26.2118L34.4351 37.3445ZM31.3414 38.6575C30.2059 38.836 29.0469 38.7282 27.9684 38.348L32.6069 25.1905C31.5095 24.8036 30.3303 24.694 29.1751 24.8756L31.3414 38.6575ZM27.9684 38.348C26.8905 37.968 25.9387 37.3324 25.1845 36.5145L35.4405 27.0568C34.6725 26.224 33.7036 25.5772 32.6069 25.1905L27.9684 38.348ZM25.1845 36.5145C24.4302 35.6966 23.8945 34.7199 23.6049 33.6751L37.0493 29.949C36.7542 28.8844 36.2085 27.8896 35.4405 27.0568L25.1845 36.5145ZM23.5798 33.5819C23.5647 33.5242 23.5222 33.3114 23.5615 32.9983C23.6016 32.6785 23.7061 32.4226 23.7959 32.2678L35.8657 39.2645C37.5407 36.3749 37.8899 33.1513 37.0744 30.0422L23.5798 33.5819ZM19.4658 39.7401C21.3544 40.1966 23.2788 40.3846 25.22 40.3016L24.6242 26.3632C23.9871 26.3904 23.3665 26.33 22.7435 26.1794L19.4658 39.7401ZM23.7709 32.3113C23.8078 32.2466 23.851 32.1903 23.8895 32.1497L34.0187 41.743C34.74 40.9815 35.3677 40.1384 35.8908 39.2209L23.7709 32.3113ZM32.8514 16.2225C32.3428 14.5189 31.8471 12.8117 31.3643 11.101L17.9376 14.8903C18.4394 16.6685 18.9547 18.4429 19.4834 20.2136L32.8514 16.2225ZM31.3637 11.099C31.3091 10.9059 30.8564 9.0601 29.3884 7.51606C28.4612 6.54095 26.8468 5.39179 24.5686 5.22597C22.3827 5.06687 20.7046 5.89874 19.7412 6.56065L27.6414 18.0594C26.963 18.5255 25.53 19.284 23.5559 19.1403C21.4895 18.9899 20.0534 17.9449 19.2777 17.129C18.5772 16.3923 18.2501 15.6908 18.1396 15.44C18.0067 15.1385 17.9463 14.921 17.9382 14.8924L31.3637 11.099ZM19.7529 6.55259C17.8112 7.88082 17.0066 9.72495 16.6772 10.8998L30.1104 14.6661C29.9056 15.3964 29.2993 16.9253 27.6297 18.0674L19.7529 6.55259ZM16.6778 10.8979C16.3126 12.199 15.9397 13.4964 15.5592 14.7902L28.9433 18.7272C29.3402 17.3777 29.7291 16.0246 30.1099 14.6679L16.6778 10.8979ZM22.6717 15.9163C23.8325 11.9033 24.5013 9.67748 24.7379 8.98431L11.5346 4.47813C11.1656 5.55918 10.3909 8.16461 9.26995 12.0398L22.6717 15.9163ZM24.7361 8.98953C24.4735 9.75714 23.8978 10.6369 22.9434 11.2752C22.0462 11.8754 21.2014 12.0058 20.7319 12.0175L20.3822 -1.92921C18.778 -1.88898 16.915 -1.47675 15.1871 -0.321027C13.4021 0.872896 12.1834 2.58196 11.5364 4.47291L24.7361 8.98953ZM20.7345 12.0175C22.7262 11.9668 24.7173 11.9599 26.708 11.9969L26.9669 -1.95188C24.7715 -1.99262 22.5757 -1.98504 20.3795 -1.92914L20.7345 12.0175ZM26.7063 11.9968C27.0036 12.0024 26.9443 12.0194 26.7149 11.9745C26.4441 11.9216 25.8433 11.766 25.1597 11.3249C23.6163 10.3289 23.2895 8.98257 23.3686 9.24597L36.7301 5.23277C36.2642 3.68174 35.2687 1.2446 32.7242 -0.397395C30.4506 -1.86463 28.0305 -1.93189 26.9685 -1.95185L26.7063 11.9968ZM23.3694 9.2486C24.6724 13.5806 25.9636 17.9167 27.243 22.2569L40.6249 18.3122C39.3382 13.9474 38.0397 9.58675 36.7293 5.23014L23.3694 9.2486ZM15.5433 14.8449L12.413 25.8168L25.8288 29.6444L28.9591 18.6724L15.5433 14.8449ZM12.4132 25.8162C12.7537 24.623 13.4203 23.5261 14.3634 22.6632L23.7813 32.9557C24.7705 32.0506 25.4707 30.899 25.8286 29.645L12.4132 25.8162ZM14.3634 22.6632C15.3084 21.7985 16.4928 21.2052 17.7892 20.9785L20.192 34.7212C21.5491 34.4839 22.7902 33.8626 23.7813 32.9557L14.3634 22.6632ZM17.7442 20.9865C14.276 21.6163 10.9624 22.7642 7.82359 24.4129L14.3111 36.7639C16.2149 35.7639 18.1834 35.0861 20.2369 34.7132L17.7442 20.9865ZM7.76367 24.4448C8.01598 24.3091 8.72728 23.9401 9.73003 23.7498C10.6488 23.5755 13.2001 23.3158 15.515 25.2752C17.7807 27.1929 17.9719 29.6852 17.9764 30.5406C17.9817 31.5172 17.775 32.2549 17.6953 32.5232L4.32095 28.5533C4.23164 28.8542 4.02016 29.6184 4.02551 30.6154C4.03021 31.4912 4.22634 33.998 6.50189 35.924C8.82675 37.8918 11.3927 37.6344 12.3312 37.4563C13.3535 37.2623 14.0894 36.8835 14.3711 36.732L7.76367 24.4448ZM17.6901 32.5407L22.6528 15.9805L9.28885 11.9757L4.32616 28.5358L17.6901 32.5407ZM27.249 22.277L30.3095 32.5456L43.6794 28.5607L40.6189 18.2921L27.249 22.277ZM30.3111 32.5509C30.229 32.2764 30.0197 31.5321 30.0255 30.5476C30.0307 29.6699 30.2331 27.2086 32.4654 25.3032C34.7394 23.3621 37.2551 23.5781 38.1886 23.7431C39.1964 23.9213 39.9148 24.2828 40.1739 24.4184L33.7071 36.7801C33.993 36.9297 34.7337 37.2998 35.7593 37.4811C36.7107 37.6494 39.2399 37.863 41.5229 35.9143C43.7642 34.0012 43.9711 31.5268 43.9764 30.6305C43.9824 29.6275 43.7687 28.8593 43.6779 28.5555L30.3111 32.5509ZM40.1924 24.4281C37.0659 22.7805 33.7572 21.631 30.2882 20.9903L27.7543 34.7094C29.8316 35.0931 31.8024 35.7765 33.6886 36.7704L40.1924 24.4281ZM30.3072 20.9938C31.5953 21.2354 32.7624 21.8362 33.6905 22.6936L24.2237 32.9412C25.188 33.8321 26.3995 34.4553 27.7353 34.7058L30.3072 20.9938ZM33.6905 22.6936C34.6162 23.5488 35.2695 24.6252 35.6114 25.789L22.2258 29.721C22.5818 30.9329 23.2618 32.0526 24.2237 32.9412L33.6905 22.6936ZM35.6208 25.8215L32.8696 16.2846L19.4651 20.1515L22.2163 29.6884L35.6208 25.8215ZM24.4983 31.5794C23.9913 32.0003 23.4652 32.3914 22.9192 32.7535L30.6293 44.3805C31.5927 43.7417 32.5198 43.0523 33.41 42.3133L24.4983 31.5794ZM22.9227 32.7512C21.2766 33.8413 19.4826 35.5812 18.6031 38.1978C17.7014 40.8806 18.0976 43.4777 18.9668 45.5828L31.8621 40.2588C31.948 40.4668 32.2435 41.404 31.8272 42.6427C31.4331 43.8151 30.7107 44.3266 30.6258 44.3829L22.9227 32.7512ZM18.9747 45.6019C18.8816 45.3784 18.6052 44.6966 18.4981 43.7611C18.4182 43.0634 18.209 40.2568 20.5822 37.9698C22.9982 35.6416 25.8482 35.9951 26.5931 36.1247C27.5497 36.2912 28.2329 36.6226 28.4526 36.7316L22.2525 49.2293C22.5087 49.3564 23.2217 49.6989 24.2017 49.8694C24.97 50.003 27.8368 50.3536 30.2631 48.0155C32.6466 45.7185 32.4412 42.8949 32.3586 42.1733C32.2487 41.2139 31.963 40.5011 31.8542 40.2397L18.9747 45.6019ZM28.4817 36.7461C28.6245 36.8178 28.9301 37.0115 29.2245 37.3888C29.5213 37.7691 29.6485 38.133 29.6922 38.3362L16.0529 41.2695C16.8165 44.8203 19.0288 47.6113 22.2234 49.2148L28.4817 36.7461ZM29.6936 38.3427C29.7895 38.7907 29.7732 39.0824 29.7635 38.6697C29.7596 38.5019 29.7547 37.7354 29.6759 37.0108C29.596 36.2765 29.3849 34.8947 28.5908 33.453C27.6795 31.7986 26.1661 30.373 24.1002 29.6383L19.4254 42.7829C18.813 42.565 18.184 42.2166 17.6103 41.7164C17.0422 41.2211 16.6422 40.6768 16.3708 40.184C15.8755 39.2848 15.8108 38.5585 15.8066 38.5198C15.8034 38.4909 15.8036 38.4602 15.8162 38.9959C15.8208 39.194 15.8293 39.5112 15.855 39.8583C15.8805 40.2022 15.9308 40.6994 16.0515 41.263L29.6936 38.3427ZM24.0931 29.6357C18.4525 27.6366 13.1595 31.5845 12.4284 36.8123L26.2451 38.7444C26.0637 40.0418 25.3104 41.3826 23.9701 42.2453C22.6106 43.1203 20.9205 43.3127 19.4326 42.7854L24.0931 29.6357ZM12.4286 36.811C12.4694 36.5197 12.5916 35.7492 13.0181 34.8494C13.4177 34.0065 14.6106 31.9876 17.2879 31.1824C20.0047 30.3653 22.1447 31.425 22.9844 31.9546C23.8553 32.504 24.3835 33.1144 24.5759 33.3449L13.8634 42.2823C14.0877 42.5512 14.6448 43.1889 15.5415 43.7545C16.407 44.3004 18.5697 45.3653 21.306 44.5424C24.0028 43.7313 25.2122 41.6955 25.625 40.8246C26.0647 39.8967 26.1971 39.0872 26.2449 38.7457L12.4286 36.811ZM24.5624 33.3289C24.5714 33.3396 24.5849 33.3595 24.5953 33.3821C24.605 33.403 24.603 33.4064 24.5986 33.3827C24.5888 33.33 24.5701 33.1466 24.6488 32.8365L11.1261 29.4054C10.0885 33.495 10.5892 38.3817 13.8768 42.2983L24.5624 33.3289ZM24.6427 32.8604C24.5663 33.1571 24.3523 33.9257 23.8125 34.7859C23.2965 35.6081 21.8638 37.4558 19.1209 37.933C16.3697 38.4116 14.3914 37.1488 13.6205 36.5383C12.8187 35.9034 12.3583 35.2447 12.187 34.9891L23.7748 27.2203C23.582 26.9326 23.1016 26.2505 22.2812 25.6009C21.4918 24.9758 19.4965 23.707 16.7297 24.1883C13.9712 24.6682 12.5245 26.5273 11.9959 27.3696C11.4434 28.2499 11.2183 29.0474 11.1322 29.3815L24.6427 32.8604ZM12.1833 34.9837C14.3975 38.293 17.994 39.3418 19.2696 39.6897L22.9396 26.2299C22.6427 26.1489 22.5868 26.1068 22.6744 26.1538C22.7536 26.1963 23.2861 26.4898 23.7785 27.2257L12.1833 34.9837Z" fill="#080D10" mask="url(#path-1-inside-1_17023_24443)"/>
</svg>
