<svg width="48" height="48" viewBox="0 0 48 48" fill="none" xmlns="http://www.w3.org/2000/svg">
<path fill-rule="evenodd" clip-rule="evenodd" d="M38.8457 5C39.9854 5 41.0405 5.61866 41.575 6.62436C42.0872 7.58767 42.0654 8.72285 41.5183 9.66508L41.4996 9.69676L36.7036 17.7442C36.1613 18.6542 35.1822 19.2221 34.1357 19.2342L34.1015 19.2344L28.6249 19.2344L30.9012 24.4616L30.9102 24.4769L30.9242 24.5016C31.4603 25.4735 31.4472 26.629 30.8913 27.5864L30.8726 27.6182L26.0766 35.6656C25.5342 36.5756 24.5552 37.1436 23.5087 37.1557L23.4746 37.1559L16.7526 37.1558L11.9203 42.2682L11.9112 42.2777C11.4564 42.7413 10.842 43 10.2015 43C10.0413 43 9.8811 42.9838 9.72258 42.9513C8.94119 42.7913 8.29197 42.2535 7.97947 41.5118L7.97066 41.4906L5.42765 35.6351L5.41427 35.6126L5.40038 35.5884C5.39807 35.5843 5.39572 35.5801 5.39327 35.5756C4.8572 34.6039 4.87018 33.4484 5.42605 32.4909L5.44478 32.4591L10.0964 24.654L6.66885 16.7831L6.73166 16.751L6.73071 16.7463C6.58568 16.0223 6.70243 15.2673 7.07488 14.606L7.09545 14.57L7.11446 14.5377L11.9105 6.49022C12.4529 5.58028 13.432 5.01231 14.4784 5H14.5125H38.8457ZM13.6628 37.0947L8.56705 37.0946L10.0637 40.5674L10.0674 40.5766C10.0922 40.6388 10.1323 40.6729 10.1921 40.6852C10.2454 40.6962 10.2885 40.6848 10.3292 40.6476L10.3364 40.6406L13.6628 37.0947ZM28.2301 25.1554H12.8267C12.8097 25.1554 12.7927 25.156 12.7757 25.1572L12.7711 25.1575L16.9945 34.848H23.4738C23.7401 34.848 23.9967 34.705 24.1426 34.4752L24.1542 34.4564L28.9571 26.4041C29.1004 26.1639 29.1162 25.8852 29.0027 25.6344C28.8718 25.3452 28.568 25.1554 28.2301 25.1554ZM11.2256 27.1453L7.41361 33.5899C7.26192 33.8464 7.25313 34.1468 7.38896 34.4112L7.40337 34.4381L7.41105 34.4512L7.42643 34.4765L7.45692 34.522L7.49095 34.5664L7.52351 34.6037L7.52916 34.6097L7.55118 34.6321L7.57031 34.6504C7.69022 34.7595 7.83845 34.8261 8.00193 34.8433L8.03866 34.8464L8.05993 34.8475L8.08687 34.848H14.5546L11.2256 27.1453ZM10.2232 19.25L11.8973 23.1014L11.93 23.0902C12.2191 22.9932 12.5214 22.9405 12.8269 22.9358L12.8728 22.9354L27.8036 22.9354L26.2017 19.2501L10.2232 19.25ZM38.8031 7.24662H23.3448L27.5696 16.9392H34.0465C34.3133 16.9392 34.5701 16.7961 34.7161 16.5662L34.7277 16.5474L39.5309 8.49521C39.6741 8.25507 39.69 7.97659 39.5765 7.72602C39.4483 7.44276 39.1543 7.25475 38.8247 7.24688L38.8031 7.24662ZM20.9784 7.24662H14.5373C14.2724 7.24662 14.017 7.38939 13.8716 7.61888L13.8601 7.63768L9.06948 15.69C8.92645 15.9304 8.91065 16.2095 9.02406 16.4606C9.1518 16.7436 9.44424 16.9311 9.77189 16.9389L9.7933 16.9392H25.192L20.9784 7.24662Z" fill="#080D10"/>
</svg>
