<svg width="48" height="48" viewBox="0 0 48 48" fill="none" xmlns="http://www.w3.org/2000/svg">
<path d="M20.4583 45.0005C20.2137 45.0003 19.9732 44.9369 19.7603 44.8162L7.71867 37.9909C7.50058 37.8674 7.31915 37.6881 7.19289 37.4715C7.06664 37.2549 7.00008 37.0086 7 36.7578V22.5828C7.00005 22.332 7.0666 22.0857 7.19286 21.869C7.31912 21.6524 7.50056 21.4731 7.71867 21.3495L19.7603 14.5243C19.9733 14.4038 20.2137 14.3405 20.4583 14.3405C20.7029 14.3405 20.9434 14.4038 21.1563 14.5243L33.198 21.3495C33.4161 21.4731 33.5975 21.6524 33.7238 21.869C33.8501 22.0857 33.9166 22.332 33.9167 22.5828V36.7578C33.9166 37.0086 33.8501 37.2549 33.7238 37.4716C33.5975 37.6882 33.4161 37.8675 33.198 37.9911L21.1563 44.8164C20.9434 44.9369 20.703 45.0004 20.4583 45.0005ZM9.83333 35.9314L20.4583 41.9537L31.0833 35.9314V23.4092L20.4583 17.3869L9.83333 23.4092V35.9314Z" fill="#080D10"/>
<path d="M41 25.4178H38.1667V12.0691L27.5417 6.04686L16.198 12.476L14.802 10.0095L26.8437 3.18421C27.0566 3.06378 27.2971 3.00049 27.5417 3.00049C27.7863 3.00049 28.0267 3.06378 28.2397 3.18421L40.2813 10.0095C40.4994 10.1331 40.6809 10.3123 40.8071 10.529C40.9334 10.7456 41 10.9919 41 11.2427V25.4178Z" fill="#080D10"/>
</svg>
