<svg width="48" height="48" viewBox="0 0 48 48" fill="none" xmlns="http://www.w3.org/2000/svg">
<g clip-path="url(#clip0_17129_19270)">
<path fill-rule="evenodd" clip-rule="evenodd" d="M24.0217 5.0957C34.4532 5.0957 42.9087 13.5512 42.9087 23.9827C42.9087 34.4142 34.4532 42.8696 24.0217 42.8696C13.5903 42.8696 5.13477 34.4142 5.13477 23.9827C5.13477 13.5512 13.5903 5.0957 24.0217 5.0957ZM28.231 12.0039L15.3578 24.7894C15.1707 24.9746 15.3013 25.2922 15.5643 25.2922H24.3258C24.5655 25.2922 24.7038 25.5631 24.5635 25.758L17.6943 35.2346C17.4858 35.523 17.8716 35.866 18.1327 35.6224L32.6429 22.0788C32.8378 21.8975 32.7092 21.5702 32.4422 21.5702H24.1621C23.9399 21.5702 23.7977 21.3305 23.9048 21.1356L28.6967 12.3527C28.8585 12.0565 28.4707 11.7642 28.231 12.0039Z" fill="#080D10"/>
</g>
<defs>
<clipPath id="clip0_17129_19270">
<rect width="38" height="38" fill="white" transform="translate(5 5)"/>
</clipPath>
</defs>
</svg>
