<svg width="48" height="48" viewBox="0 0 48 48" fill="none" xmlns="http://www.w3.org/2000/svg">
<path d="M30.9308 31.8865L30.9307 31.8865L30.9277 31.8973L30.8465 32.1878H4.0035C4.00122 32.1266 4.00001 32.0662 4.00001 32.0066L4.00001 32.005C3.99777 30.609 4.54099 29.2674 5.51384 28.2662C6.48669 27.2651 7.81217 26.6836 9.20764 26.6458L10.4439 26.6124L10.1524 25.4105C10.0548 25.0081 10.0255 24.5921 10.0656 24.18L10.0661 24.1749C10.2154 22.5562 11.5311 21.2424 13.1673 21.0779C14.0814 20.9925 14.9427 21.2608 15.614 21.7594L16.7167 22.5784L17.1574 21.2775C18.3552 17.7422 21.6977 15.1973 25.6393 15.1973C29.8608 15.1973 33.4024 18.1134 34.3415 22.0449L33.5179 24.1906L33.5176 24.1913C33.2519 24.8849 32.719 25.5548 32.0401 26.0623C31.3645 26.5673 30.6135 26.8604 29.9519 26.8962L14.6828 27.0928L14.6524 27.0932L14.6221 27.0954C14.0818 27.1353 13.5757 27.4947 13.3909 28.0443L13.3782 28.082L13.3686 28.1205C13.291 28.4306 13.3038 28.8352 13.548 29.195C13.7736 29.5275 14.1587 29.7538 14.6003 29.7568L29.731 29.9534C30.2849 29.9824 30.6287 30.1955 30.8053 30.444L30.8062 30.4451C31.0181 30.7424 31.1253 31.2201 30.9308 31.8865Z" fill="#080D10" stroke="#080D10" stroke-width="2"/>
<path d="M36.7146 22.4287L36.2946 22.4418C36.1962 22.4418 36.1109 22.5153 36.0715 22.6125L35.4809 24.6678C35.2223 25.5538 35.3208 26.3662 35.7513 26.97C36.145 27.5238 36.8104 27.8441 37.6098 27.8808L40.8346 28.0777C40.933 28.0777 41.0183 28.1276 41.0682 28.2011C41.1181 28.2746 41.1299 28.3848 41.1049 28.4715C41.0551 28.6198 40.9081 28.73 40.7479 28.7418L37.3879 28.9387C35.5662 29.0253 33.6079 30.4901 32.9202 32.2856L32.6734 32.913C32.6236 33.0363 32.7102 33.1597 32.8441 33.1597H44.3901C44.457 33.1606 44.5222 33.1394 44.5757 33.0992C44.6291 33.0591 44.6677 33.0023 44.6854 32.9379C44.89 32.2099 44.9956 31.4576 44.9991 30.7014C44.9929 28.5073 44.1176 26.4051 42.565 24.8549C41.0123 23.3047 38.9087 22.4315 36.7146 22.4287Z" fill="#080D10"/>
</svg>
