<svg width="48" height="48" viewBox="0 0 48 48" fill="none" xmlns="http://www.w3.org/2000/svg">
<path fill-rule="evenodd" clip-rule="evenodd" d="M29.1144 4.00622L29.1244 34.271C25.5567 34.9459 21.0837 35.5003 17.4655 34.9636C16.7482 34.8515 16.0384 34.6947 15.3403 34.495C13.0292 33.8024 11.0617 32.5256 9.84104 30.3796C8.36768 27.7894 8.17665 24.037 8.93527 21.195C9.63122 18.5879 11.2423 16.4701 13.5808 15.1239C16.0436 13.7062 19.8476 13.221 22.5726 13.9772C22.6057 11.652 22.5774 9.26502 22.5776 6.93512L22.5785 4.98736C22.5786 4.78665 22.567 4.20498 22.5894 4.03204L22.6443 4L29.1144 4.00622ZM22.5717 19.239C21.4952 18.9755 21.0226 18.8658 19.8871 18.9321C16.2386 19.2185 14.9211 21.9721 15.2179 25.3422C15.3926 27.3271 16.2549 28.8651 18.1819 29.564C19.583 30.0435 21.1355 29.903 22.5807 29.7231L22.5795 22.8652C22.5788 21.678 22.5995 20.4177 22.5717 19.239Z" fill="#080D10"/>
<path d="M32.9602 14.0913L39.4954 14.0931L39.4983 28.8545C39.4977 31.5592 39.4971 34.8961 38.6677 37.4706C37.6649 40.583 35.8546 42.3547 32.9982 43.8109C32.8751 43.8755 32.7512 43.9388 32.6264 44C30.6272 43.0705 28.5531 42.0738 26.5706 41.1036C27.9261 40.4228 29.2912 39.7353 30.3768 38.6476C32.6207 36.3986 32.812 33.0949 32.9148 30.105C32.9771 28.2958 32.9571 26.4874 32.9574 24.6776L32.9602 14.0913Z" fill="#080D10"/>
<path d="M32.9622 4.04537L39.496 4.0436L39.5 10.7454L32.9617 10.7412L32.9622 4.04537Z" fill="#080D10"/>
</svg>
