<svg width="48" height="48" viewBox="0 0 48 48" fill="none" xmlns="http://www.w3.org/2000/svg">
<g clip-path="url(#clip0_17023_17449)">
<path d="M16.0878 28.2153L22.5606 30.4198V40.8524L16.0878 38.53V28.2153ZM26.1044 30.4219L32.5772 28.2157V38.53L26.1044 40.8524V30.4219ZM35.8027 13.055L42.2755 10.8505V21.1925L35.8027 23.5149V13.055ZM38.9782 8.72363L34.206 10.3436L29.0587 8.62777L34.1897 7.17897L38.9782 8.72363ZM14.4161 7.16731L19.2039 8.71176L14.4311 10.3319L9.28432 8.62345L14.4161 7.16731ZM6 10.8505L12.473 13.055L12.476 23.5135L6 21.1836V10.8505ZM19.3604 25.9653L24.4914 24.5165L29.2798 26.0611L24.5077 27.6811L19.3604 25.9653ZM32.2589 13.055V23.5149L25.7861 21.1925V10.8505L32.2589 13.055ZM16.0282 23.515L16.0262 13.0681L22.5012 10.8526V21.1925L16.0282 23.515Z" fill="#080D10" stroke="#080D10" stroke-width="2"/>
</g>
<defs>
<clipPath id="clip0_17023_17449">
<rect width="38" height="38" fill="white" transform="translate(5 5)"/>
</clipPath>
</defs>
</svg>
