<svg width="48" height="48" viewBox="0 0 48 48" fill="none" xmlns="http://www.w3.org/2000/svg">
<g clip-path="url(#clip0_17023_17476)">
<path d="M27.75 21.1875H31.6875H27.75ZM23.0625 21.1875H27H23.0625ZM18.4688 21.1875H22.4062H18.4688ZM13.875 21.1875H17.7188H13.875ZM9.1875 21.1875H13.125H9.1875ZM13.875 16.875H17.7188H13.875ZM18.4688 16.875H22.4062H18.4688ZM23.0625 16.875H27H23.0625ZM23.0625 12.5625H27H23.0625Z" fill="#080D10"/>
<path d="M27.75 21.1875H31.6875M23.0625 21.1875H27M18.4688 21.1875H22.4062M13.875 21.1875H17.7188M9.1875 21.1875H13.125M13.875 16.875H17.7188M18.4688 16.875H22.4062M23.0625 16.875H27M23.0625 12.5625H27" stroke="#080D10" stroke-width="2.67188"/>
<path d="M44.2473 21.375C44.2473 21.375 42.5598 19.7812 39.0911 20.3438C38.7161 17.625 35.8098 16.0312 35.8098 16.0312C35.8098 16.0312 33.0911 19.3125 35.0598 22.9688C34.4973 23.25 33.5598 23.625 32.1536 23.625H6.3723C5.90355 25.4062 5.90355 37.2188 18.8411 37.2188C28.1223 37.2188 35.0598 32.9062 38.3411 25.0312C43.2161 25.4062 44.2473 21.375 44.2473 21.375Z" fill="#080D10"/>
</g>
<defs>
<clipPath id="clip0_17023_17476">
<rect width="48" height="48" fill="white"/>
</clipPath>
</defs>
</svg>
