<svg width="48" height="48" viewBox="0 0 48 48" fill="none" xmlns="http://www.w3.org/2000/svg">
<g clip-path="url(#clip0_17023_11486)">
<path d="M20.9997 22.7581C20.9997 21.3027 20.3887 19.0028 17.7709 19.0028C15.4164 19.0028 14.3832 21.1438 14.1994 22.7581H20.9997Z" fill="#080D10"/>
<path fill-rule="evenodd" clip-rule="evenodd" d="M37.4336 10.5664C33.8707 7.00352 29.0387 5.00132 24 5C18.9613 5.00132 14.1293 7.00352 10.5664 10.5664C7.00352 14.1293 5.00132 18.9613 5 24C5.00132 29.0387 7.00352 33.8707 10.5664 37.4336C14.1293 40.9965 18.9613 42.9987 24 43C29.0387 42.9987 33.8707 40.9965 37.4336 37.4336C40.9965 33.8707 42.9987 29.0387 43 24C42.9987 18.9613 40.9965 14.1293 37.4336 10.5664ZM14.1746 24.4123C14.2243 27.5566 16.2112 28.853 18.5657 28.853C19.7805 28.8954 20.9896 28.6699 22.1074 28.1924L22.5048 29.8614C21.1626 30.4443 19.7109 30.7323 18.2478 30.7059C14.3137 30.7059 11.9492 28.0583 11.9492 24.2483C11.9492 20.4384 14.2243 17.3438 17.9796 17.3438C22.1372 17.3438 23.2449 20.9947 23.2449 23.3493C23.2497 23.7146 23.2147 24.0793 23.1406 24.4371L14.1746 24.4123ZM27.1344 17.612L28.9574 20.3341C29.3366 20.8802 29.6463 21.3944 29.9595 21.9143C30.0565 22.0754 30.154 22.2372 30.2539 22.4005H30.3085C30.5601 21.9743 30.8223 21.5586 31.0825 21.1461C31.2588 20.8666 31.4345 20.5881 31.605 20.3093L33.3783 17.612H35.9166L31.5503 23.7765L36.0507 30.388H33.428L31.5255 27.5318C31.0433 26.7844 30.6267 26.0838 30.1892 25.3482L30.1496 25.2816H30.0949C29.8126 25.8129 29.5193 26.2843 29.2133 26.7759C29.0617 27.0195 28.9068 27.2684 28.7488 27.5318L26.896 30.388H24.3328L28.8829 23.856L24.5415 17.612H27.1344Z" fill="#080D10"/>
</g>
<defs>
<clipPath id="clip0_17023_11486">
<rect width="38" height="38" fill="white" transform="translate(5 5)"/>
</clipPath>
</defs>
</svg>
