<svg width="48" height="48" viewBox="0 0 48 48" fill="none" xmlns="http://www.w3.org/2000/svg">
<path d="M40.6703 20.4831L40.6716 20.4863L40.7201 20.6101C40.7203 20.6108 40.7206 20.6115 40.7208 20.6122C41.3753 22.329 41.4552 24.2119 40.9484 25.978C40.4414 27.7449 39.3747 29.2995 37.9086 30.4082L37.9085 30.4081L37.8979 30.4166L37.8856 30.4264L30.4753 35.9758L30.4733 35.9773L26.8266 38.7374L26.8261 38.7377L24.6049 40.4147L24.6038 40.4155C24.4309 40.5468 24.2198 40.6179 24.0027 40.6179C23.7856 40.6179 23.5745 40.5468 23.4016 40.4155L23.4005 40.4147L21.1793 38.7377L21.1789 38.7374L17.5321 35.9773L17.5301 35.9758L10.1579 30.455L10.158 30.4548L10.1472 30.4472L10.1119 30.4221L10.104 30.4161L10.1041 30.416L10.0982 30.4116C8.62883 29.3031 7.55967 27.7469 7.05194 25.9777C6.5442 24.2085 6.62541 22.3222 7.28332 20.6032L7.28423 20.6008L7.33124 20.476L7.33237 20.4731L12.1785 7.85532C12.2385 7.70745 12.3429 7.58182 12.4773 7.49571C12.6152 7.41077 12.7757 7.36989 12.9375 7.37859C13.0991 7.38727 13.2541 7.44498 13.382 7.54398C13.507 7.64519 13.5971 7.78301 13.6398 7.93812L13.643 7.94956L13.6466 7.96083L16.9143 17.9583L17.027 18.3029H17.3896H30.6214H30.984L31.0966 17.9583L34.3643 7.96083L34.3674 7.95155L34.37 7.94216C34.4143 7.78634 34.5051 7.64779 34.6301 7.54495C34.7578 7.44649 34.9124 7.3891 35.0735 7.38044C35.2355 7.37173 35.3963 7.41274 35.5343 7.49795C35.6686 7.58331 35.7728 7.70863 35.8321 7.85626C35.8324 7.85712 35.8328 7.85798 35.8331 7.85884L40.6703 20.4831Z" fill="#080D10" stroke="#080D10"/>
<path d="M41.1864 20.4319L41.1364 20.3042C38.7783 20.7882 36.5561 21.7871 34.6288 23.2294L24 31.2662C27.6194 34.0044 30.7705 36.3834 30.7705 36.3834L38.1871 30.8293L38.2056 30.8145C39.7603 29.6405 40.8916 27.9933 41.4291 26.1208C41.9667 24.2483 41.8815 22.2518 41.1864 20.4319Z" fill="#080D10"/>
<path d="M17.2295 36.3838L20.8767 39.1442L23.0984 40.8216C23.3582 41.0189 23.6756 41.1257 24.0018 41.1257C24.3281 41.1257 24.6454 41.0189 24.9053 40.8216L27.127 39.1442L30.7742 36.3838C30.7742 36.3838 27.6194 33.9974 24 31.2666C20.3805 33.9974 17.2295 36.3838 17.2295 36.3838Z" fill="#080D10"/>
<path d="M13.3702 23.229C11.4444 21.7837 9.22278 20.7822 6.86449 20.2964L6.81635 20.4241C6.11968 22.2444 6.03369 24.2419 6.57134 26.1153C7.10899 27.9887 8.24113 29.6366 9.79707 30.8104L9.81373 30.8233L9.85817 30.8548L17.2304 36.3756C17.2304 36.3756 20.3777 33.9966 24.0009 31.2584L13.3702 23.229Z" fill="#080D10"/>
</svg>
