<svg width="48" height="48" viewBox="0 0 48 48" fill="none" xmlns="http://www.w3.org/2000/svg">
<g clip-path="url(#clip0_17023_17499)">
<path fill-rule="evenodd" clip-rule="evenodd" d="M22.8466 4.86941C23.1678 4.71059 23.5176 4.61792 23.8753 4.59691H23.8628C24.3094 4.57887 24.7533 4.67298 25.1541 4.87066L39.0628 11.4994C39.7878 11.8457 40.3191 12.5044 40.5003 13.2894L43.9328 28.2157C44.1266 28.9982 43.9378 29.8232 43.4328 30.4482L33.8128 42.4182C33.3053 43.0344 32.5403 43.4107 31.7328 43.4094H16.2953C15.4903 43.4132 14.7266 43.0544 14.2178 42.4294L4.59282 30.4619C4.54032 30.3944 4.49032 30.3244 4.44282 30.2519C4.03657 29.6519 3.90532 28.9182 4.06782 28.2182L7.47782 13.3044C7.65907 12.5194 8.18782 11.8607 8.91532 11.5144L22.8466 4.86941ZM23.184 10.6022C23.159 10.1222 23.5228 9.71094 24.0028 9.67719L24.014 9.68344C24.4953 9.71719 24.8578 10.1284 24.8328 10.6084V10.8584C24.809 11.1247 24.7715 11.3872 24.7178 11.6497C24.6372 12.1483 24.6054 12.6536 24.6228 13.1584C24.6553 13.3272 24.754 13.4759 24.8953 13.5734C24.896 13.5908 24.8979 13.6193 24.9003 13.6541C24.9059 13.7374 24.914 13.8566 24.914 13.9447C27.549 14.1822 30.0078 15.3697 31.8328 17.2822L32.149 17.0572C32.3192 17.0863 32.4941 17.0673 32.654 17.0022C33.0503 16.6947 33.4153 16.3509 33.7453 15.9734C33.9161 15.7694 34.0985 15.5753 34.2915 15.3922L34.4765 15.2447C34.5878 15.1325 34.7285 15.0541 34.8824 15.0184C35.0364 14.9828 35.1973 14.9915 35.3465 15.0434C35.4959 15.0954 35.6274 15.1887 35.726 15.3123C35.8246 15.436 35.8861 15.5851 35.9035 15.7423C35.9209 15.8994 35.8934 16.0583 35.8243 16.2006C35.7551 16.3428 35.6471 16.4625 35.5128 16.5459L35.3303 16.6934C35.1082 16.8411 34.8778 16.9759 34.6403 17.0972C34.2028 17.3459 33.7865 17.6372 33.4028 17.9672C33.2915 18.0984 33.2353 18.2684 33.2478 18.4397L32.9528 18.7122C34.4286 20.9127 35.0451 23.5784 34.6853 26.2034L35.0228 26.3034C35.1078 26.4547 35.2328 26.5797 35.3828 26.6634C35.8703 26.7947 36.3703 26.8772 36.8753 26.9097C37.1429 26.9151 37.41 26.936 37.6753 26.9722L37.9178 27.0297C38.0716 27.0504 38.2167 27.1136 38.3368 27.212C38.4569 27.3105 38.5472 27.4404 38.5978 27.5872C38.6471 27.7342 38.6548 27.8919 38.6198 28.043C38.5848 28.194 38.5086 28.3324 38.3996 28.4427C38.2906 28.5529 38.1531 28.6308 38.0025 28.6676C37.8519 28.7043 37.694 28.6986 37.5465 28.6509H37.5303C37.5 28.6437 37.4657 28.6369 37.4317 28.6301C37.3898 28.6219 37.3483 28.6137 37.3153 28.6047C37.0615 28.5247 36.8115 28.4297 36.5678 28.3172C36.0978 28.1422 35.6115 27.9872 35.1153 27.8922C34.944 27.8872 34.7765 27.9484 34.649 28.0647L34.294 28.0022C33.4903 30.5272 31.7903 32.6709 29.5153 34.0272C29.5543 34.1421 29.6007 34.2544 29.654 34.3634C29.6071 34.4368 29.5753 34.5189 29.5607 34.6048C29.5461 34.6907 29.5489 34.7787 29.569 34.8634C29.784 35.3272 30.0315 35.7697 30.319 36.1847C30.4808 36.3971 30.6302 36.6188 30.7665 36.8484L30.8753 37.0734C30.9532 37.2071 30.9926 37.3597 30.989 37.5144C30.9855 37.6691 30.9392 37.8197 30.8553 37.9497C30.7705 38.0789 30.6516 38.1821 30.5118 38.2479C30.372 38.3137 30.2168 38.3396 30.0632 38.3227C29.9096 38.3057 29.7637 38.2466 29.6416 38.1519C29.5196 38.0572 29.4261 37.9305 29.3715 37.7859L29.2678 37.5734C29.1723 37.3237 29.0914 37.0687 29.0253 36.8097C28.8803 36.3259 28.6903 35.8572 28.4553 35.4097C28.3528 35.2722 28.2003 35.1784 28.0303 35.1534L27.864 34.8347C25.3879 35.7726 22.653 35.7659 20.1815 34.8159L19.994 35.1572C19.86 35.1783 19.7354 35.2393 19.6365 35.3322C19.427 35.5832 19.3051 35.9415 19.1764 36.3196C19.1193 36.4874 19.0608 36.6592 18.9928 36.8272C18.9278 37.0847 18.8478 37.3397 18.7528 37.5897L18.649 37.8022C18.595 37.9473 18.5018 38.0746 18.3797 38.1699C18.2577 38.2653 18.1116 38.3249 17.9578 38.3422C17.8042 38.3582 17.6493 38.3315 17.51 38.265C17.3707 38.1985 17.2525 38.0948 17.1684 37.9653C17.0844 37.8359 17.0377 37.6857 17.0336 37.5314C17.0295 37.3771 17.0682 37.2247 17.1453 37.0909L17.2515 36.8659C17.3878 36.6355 17.5372 36.413 17.699 36.1997C17.994 35.7697 18.2465 35.3122 18.4528 34.8347C18.474 34.6734 18.4478 34.5109 18.3778 34.3647L18.5303 34.0459C16.2503 32.6997 14.5428 30.5634 13.7303 28.0422L13.3553 28.1047C13.2153 28.0047 13.0503 27.9459 12.8778 27.9359C12.3803 28.0297 11.894 28.1734 11.4253 28.3609C11.1815 28.4659 10.9315 28.5584 10.6778 28.6334L10.4528 28.6584H10.4365C10.2889 28.7067 10.1307 28.713 9.97975 28.6766C9.82876 28.6402 9.69088 28.5625 9.58151 28.4522C9.47315 28.3413 9.39767 28.2026 9.36349 28.0514C9.32932 27.9002 9.33777 27.7425 9.38791 27.5958C9.43806 27.4491 9.52793 27.3193 9.64751 27.2206C9.7671 27.122 9.91172 27.0585 10.0653 27.0372H10.0903L10.3115 26.9872C10.5767 26.951 10.8439 26.9301 11.1115 26.9247C11.6158 26.8913 12.1157 26.8088 12.604 26.6784C12.749 26.5872 12.8703 26.4634 12.9615 26.3184L13.3115 26.2184C12.934 23.5922 13.5378 20.9184 15.009 18.7109L14.7365 18.4609C14.727 18.2886 14.6694 18.1223 14.5703 17.9809C14.1828 17.6409 13.7653 17.3522 13.3228 17.1059C13.0852 16.9847 12.8548 16.8499 12.6328 16.7022L12.4603 16.5647C12.0653 16.2809 11.9728 15.7322 12.2553 15.3359C12.3348 15.2379 12.4364 15.16 12.5517 15.1088C12.6671 15.0575 12.7929 15.0343 12.919 15.0409C13.1303 15.0509 13.3328 15.1272 13.4978 15.2597L13.6828 15.4072C13.8758 15.5903 14.0582 15.7844 14.229 15.9884C14.569 16.3615 14.9445 16.7006 15.3503 17.0009C15.5015 17.0822 15.679 17.1009 15.844 17.0509L16.144 17.2634C17.6078 15.7072 19.504 14.6272 21.5865 14.1572C22.0815 14.0447 22.584 13.9672 23.0903 13.9247L23.109 13.5722C23.239 13.4572 23.334 13.3072 23.3815 13.1409C23.4033 12.6353 23.3757 12.1287 23.299 11.6284C23.2465 11.3672 23.2065 11.1034 23.184 10.8372V10.6022ZM22.7103 20.5009L22.9603 16.1347H22.9578C22.6615 16.1672 22.3665 16.2147 22.074 16.2772C20.5151 16.6275 19.0851 17.4064 17.9453 18.5259L21.5265 21.0634C21.744 21.2222 22.0328 21.2609 22.2765 21.1309C22.5203 21.0009 22.679 20.7709 22.6915 20.5009H22.7103ZM30.0328 18.5397C28.6778 17.2134 26.9265 16.3684 25.0453 16.1347L25.2928 20.4959C25.2965 20.7759 25.459 21.0309 25.7128 21.1509C25.9665 21.2709 26.2665 21.2359 26.4853 21.0609L30.0328 18.5397ZM16.6456 20.1687C15.6491 21.7913 15.2211 23.6994 15.429 25.5922L19.6315 24.3834V24.3709C19.8903 24.2997 20.0928 24.0909 20.1528 23.8272C20.2128 23.5634 20.124 23.2872 19.9203 23.1097V23.0909L16.6456 20.1687ZM32.589 25.5772C32.7715 23.6859 32.3315 21.7872 31.3365 20.1684L31.3415 20.1784L28.0915 23.0872C27.8878 23.2672 27.8003 23.5409 27.859 23.8047C27.9178 24.0684 28.1178 24.2772 28.3803 24.3484V24.3647L32.589 25.5772ZM24.6715 23.3184H23.3315L22.499 24.3584L22.7828 25.6584L23.989 26.2372L25.1928 25.6584L25.4903 24.3584L24.6715 23.3184ZM27.7928 26.8659C27.749 26.8597 27.6803 26.8597 27.624 26.8659L27.619 26.8847C27.5011 26.8916 27.3865 26.9267 27.285 26.987C27.1834 27.0474 27.0979 27.1313 27.0355 27.2317C26.9732 27.332 26.9358 27.4458 26.9266 27.5636C26.9175 27.6814 26.9367 27.7997 26.9828 27.9084L28.6578 31.9634C30.2678 30.9347 31.5015 29.3972 32.1265 27.5972L27.7928 26.8659ZM20.9503 27.2197C20.8165 27.0147 20.5903 26.8884 20.3453 26.8847L20.3378 26.8959C20.289 26.8909 20.2403 26.8909 20.1928 26.8959L15.8965 27.6247C16.5403 29.4059 17.7503 30.9247 19.344 31.9459L21.009 27.9234V27.9072C21.1053 27.6822 21.084 27.4247 20.9503 27.2197ZM24.3654 28.7321C24.2469 28.6641 24.1118 28.6304 23.9753 28.6347L23.9865 28.6584C23.7278 28.6647 23.4903 28.8022 23.3615 29.0272L21.2365 32.8484C22.7503 33.3634 24.3765 33.4472 25.934 33.0909L26.7803 32.8409L24.6628 29.0197H24.6465C24.5813 28.8996 24.484 28.8001 24.3654 28.7321Z" fill="#080D10"/>
</g>
<defs>
<clipPath id="clip0_17023_17499">
<rect width="40" height="40" fill="white" transform="translate(4 4)"/>
</clipPath>
</defs>
</svg>
