<svg width="48" height="48" viewBox="0 0 48 48" fill="none" xmlns="http://www.w3.org/2000/svg">
<mask id="path-1-inside-1_17023_11516" fill="white">
<path d="M42.9786 13.5966C42.9927 13.6473 42.9999 13.6995 43 13.752V21.9086C43 22.0133 42.9716 22.1161 42.9175 22.2067C42.8635 22.2973 42.7858 22.3724 42.6924 22.4245L35.6447 26.366V34.1784C35.6447 34.391 35.5284 34.5873 35.3386 34.6943L20.6273 42.9208C20.5937 42.9394 20.5569 42.9513 20.5202 42.9639C20.5064 42.9684 20.4934 42.9766 20.4789 42.9803C20.376 43.0066 20.2679 43.0066 20.1651 42.9803C20.1483 42.9758 20.133 42.9669 20.1169 42.9609C20.0832 42.949 20.048 42.9386 20.0159 42.9208L5.30765 34.6943C5.21421 34.6422 5.13658 34.567 5.08256 34.4765C5.02855 34.3859 5.00007 34.2831 5 34.1784V9.70861C5 9.65508 5.00765 9.60304 5.02143 9.55249C5.02602 9.53539 5.03673 9.51978 5.04286 9.50269C5.05434 9.47146 5.06505 9.4395 5.08189 9.4105C5.09337 9.39118 5.1102 9.37556 5.12398 9.35772C5.14158 9.33393 5.15765 9.3094 5.17831 9.28859C5.19592 9.27149 5.21887 9.25885 5.23877 9.24398C5.26097 9.22614 5.28086 9.20681 5.30612 9.19269L12.6614 5.07945C12.7545 5.0274 12.8601 5 12.9675 5C13.0749 5 13.1805 5.0274 13.2736 5.07945L20.6281 9.19269H20.6296C20.6541 9.20755 20.6748 9.22614 20.697 9.24324C20.7169 9.25811 20.7391 9.27149 20.7567 9.28784C20.7781 9.3094 20.7934 9.33393 20.8118 9.35772C20.8248 9.37556 20.8424 9.39118 20.8531 9.4105C20.8707 9.44024 20.8807 9.47146 20.8929 9.50269C20.899 9.51978 20.9097 9.53539 20.9143 9.55324C20.9284 9.6039 20.9356 9.65613 20.9358 9.70861V24.9922L27.0642 21.5644V13.7512C27.0642 13.6992 27.0719 13.6464 27.0857 13.5966C27.091 13.5788 27.101 13.5631 27.1071 13.546C27.1193 13.5148 27.1301 13.4829 27.1469 13.4539C27.1584 13.4345 27.1752 13.4189 27.1882 13.4011C27.2066 13.3773 27.2219 13.3528 27.2433 13.3319C27.2609 13.3148 27.2831 13.3022 27.303 13.2873C27.326 13.2695 27.3459 13.2502 27.3704 13.236L34.7264 9.12281C34.8195 9.07068 34.9251 9.04324 35.0325 9.04324C35.14 9.04324 35.2455 9.07068 35.3386 9.12281L42.6931 13.236C42.7191 13.2509 42.739 13.2695 42.762 13.2866C42.7811 13.3015 42.8033 13.3148 42.8209 13.3312C42.8424 13.3528 42.8577 13.3773 42.876 13.4011C42.8898 13.4189 42.9066 13.4345 42.9174 13.4539C42.935 13.4829 42.9449 13.5148 42.9571 13.546C42.964 13.5631 42.974 13.5788 42.9786 13.5966ZM41.774 21.5644V14.7816L39.2003 16.2208L35.6447 18.2094V24.9922L41.7748 21.5644H41.774ZM34.4195 33.8342V27.047L30.9221 28.9872L20.935 34.5241V41.3753L34.4195 33.8342ZM6.226 10.7382V33.8342L19.709 41.3745V34.5248L12.6652 30.6524L12.6629 30.651L12.6598 30.6495C12.6361 30.6361 12.6162 30.6168 12.594 30.6004C12.5749 30.5855 12.5527 30.5736 12.5359 30.5573L12.5343 30.5551C12.5144 30.5365 12.5007 30.5134 12.4838 30.4926C12.4685 30.4725 12.4502 30.4554 12.4379 30.4346L12.4371 30.4324C12.4234 30.4101 12.415 30.3833 12.405 30.3581C12.3951 30.3358 12.382 30.3149 12.3759 30.2912C12.3683 30.2629 12.3667 30.2324 12.3637 30.2034C12.3606 30.1811 12.3545 30.1588 12.3545 30.1365V14.166L8.79969 12.1767L6.226 10.7382ZM12.9683 6.28227L6.84054 9.70861L12.9667 13.1349L19.0937 9.70786L12.9667 6.28227H12.9683ZM16.155 27.6655L19.7098 25.6776V10.7382L17.1361 12.1774L13.5805 14.166V29.1054L16.155 27.6655ZM35.0325 10.3256L28.9055 13.752L35.0325 17.1783L41.1587 13.7512L35.0325 10.3256ZM34.4195 18.2094L30.8639 16.2208L28.2902 14.7816V21.5644L31.845 23.5522L34.4195 24.9922V18.2094ZM20.3212 33.4945L29.3081 28.5107L33.8004 26.0203L27.678 22.5962L20.6289 26.5385L14.2042 30.1313L20.3212 33.4945Z"/>
</mask>
<path d="M42.9786 13.5966C42.9927 13.6473 42.9999 13.6995 43 13.752V21.9086C43 22.0133 42.9716 22.1161 42.9175 22.2067C42.8635 22.2973 42.7858 22.3724 42.6924 22.4245L35.6447 26.366V34.1784C35.6447 34.391 35.5284 34.5873 35.3386 34.6943L20.6273 42.9208C20.5937 42.9394 20.5569 42.9513 20.5202 42.9639C20.5064 42.9684 20.4934 42.9766 20.4789 42.9803C20.376 43.0066 20.2679 43.0066 20.1651 42.9803C20.1483 42.9758 20.133 42.9669 20.1169 42.9609C20.0832 42.949 20.048 42.9386 20.0159 42.9208L5.30765 34.6943C5.21421 34.6422 5.13658 34.567 5.08256 34.4765C5.02855 34.3859 5.00007 34.2831 5 34.1784V9.70861C5 9.65508 5.00765 9.60304 5.02143 9.55249C5.02602 9.53539 5.03673 9.51978 5.04286 9.50269C5.05434 9.47146 5.06505 9.4395 5.08189 9.4105C5.09337 9.39118 5.1102 9.37556 5.12398 9.35772C5.14158 9.33393 5.15765 9.3094 5.17831 9.28859C5.19592 9.27149 5.21887 9.25885 5.23877 9.24398C5.26097 9.22614 5.28086 9.20681 5.30612 9.19269L12.6614 5.07945C12.7545 5.0274 12.8601 5 12.9675 5C13.0749 5 13.1805 5.0274 13.2736 5.07945L20.6281 9.19269H20.6296C20.6541 9.20755 20.6748 9.22614 20.697 9.24324C20.7169 9.25811 20.7391 9.27149 20.7567 9.28784C20.7781 9.3094 20.7934 9.33393 20.8118 9.35772C20.8248 9.37556 20.8424 9.39118 20.8531 9.4105C20.8707 9.44024 20.8807 9.47146 20.8929 9.50269C20.899 9.51978 20.9097 9.53539 20.9143 9.55324C20.9284 9.6039 20.9356 9.65613 20.9358 9.70861V24.9922L27.0642 21.5644V13.7512C27.0642 13.6992 27.0719 13.6464 27.0857 13.5966C27.091 13.5788 27.101 13.5631 27.1071 13.546C27.1193 13.5148 27.1301 13.4829 27.1469 13.4539C27.1584 13.4345 27.1752 13.4189 27.1882 13.4011C27.2066 13.3773 27.2219 13.3528 27.2433 13.3319C27.2609 13.3148 27.2831 13.3022 27.303 13.2873C27.326 13.2695 27.3459 13.2502 27.3704 13.236L34.7264 9.12281C34.8195 9.07068 34.9251 9.04324 35.0325 9.04324C35.14 9.04324 35.2455 9.07068 35.3386 9.12281L42.6931 13.236C42.7191 13.2509 42.739 13.2695 42.762 13.2866C42.7811 13.3015 42.8033 13.3148 42.8209 13.3312C42.8424 13.3528 42.8577 13.3773 42.876 13.4011C42.8898 13.4189 42.9066 13.4345 42.9174 13.4539C42.935 13.4829 42.9449 13.5148 42.9571 13.546C42.964 13.5631 42.974 13.5788 42.9786 13.5966ZM41.774 21.5644V14.7816L39.2003 16.2208L35.6447 18.2094V24.9922L41.7748 21.5644H41.774ZM34.4195 33.8342V27.047L30.9221 28.9872L20.935 34.5241V41.3753L34.4195 33.8342ZM6.226 10.7382V33.8342L19.709 41.3745V34.5248L12.6652 30.6524L12.6629 30.651L12.6598 30.6495C12.6361 30.6361 12.6162 30.6168 12.594 30.6004C12.5749 30.5855 12.5527 30.5736 12.5359 30.5573L12.5343 30.5551C12.5144 30.5365 12.5007 30.5134 12.4838 30.4926C12.4685 30.4725 12.4502 30.4554 12.4379 30.4346L12.4371 30.4324C12.4234 30.4101 12.415 30.3833 12.405 30.3581C12.3951 30.3358 12.382 30.3149 12.3759 30.2912C12.3683 30.2629 12.3667 30.2324 12.3637 30.2034C12.3606 30.1811 12.3545 30.1588 12.3545 30.1365V14.166L8.79969 12.1767L6.226 10.7382ZM12.9683 6.28227L6.84054 9.70861L12.9667 13.1349L19.0937 9.70786L12.9667 6.28227H12.9683ZM16.155 27.6655L19.7098 25.6776V10.7382L17.1361 12.1774L13.5805 14.166V29.1054L16.155 27.6655ZM35.0325 10.3256L28.9055 13.752L35.0325 17.1783L41.1587 13.7512L35.0325 10.3256ZM34.4195 18.2094L30.8639 16.2208L28.2902 14.7816V21.5644L31.845 23.5522L34.4195 24.9922V18.2094ZM20.3212 33.4945L29.3081 28.5107L33.8004 26.0203L27.678 22.5962L20.6289 26.5385L14.2042 30.1313L20.3212 33.4945Z" fill="#080D10" stroke="#080D10" stroke-width="97.2208" mask="url(#path-1-inside-1_17023_11516)"/>
</svg>
