<svg xmlns="http://www.w3.org/2000/svg" width="48" height="48" fill="none"><g clip-path="url(#a)"><path fill="#080D10" d="M37.006 29.815c.326-.183.528-.52.529-.887l.019-5.941c.001-.367.203-.705.529-.887l3.305-1.85a1.078 1.078 0 0 1 1.053.001c.325.184.526.522.526.889v10.8c0 .368-.202.708-.53.89l-12.474 6.982a1.078 1.078 0 0 1-1.047.001l-9.79-5.456a1.022 1.022 0 0 1-.531-.89V28.02c0-.006.007-.01.014-.007.005.003.012 0 .012-.007V28c0-.005.003-.009.007-.01l8.063-4.514c.007-.004.004-.015-.005-.015a.008.008 0 0 1-.008-.008l.016-5.34a1.022 1.022 0 0 0-.525-.892 1.078 1.078 0 0 0-1.056-.001l-5.992 3.364a1.078 1.078 0 0 1-1.052 0l-6.011-3.372a1.078 1.078 0 0 0-1.053 0 1.022 1.022 0 0 0-.527.889v9.65c0 .366-.2.705-.524.889a1.078 1.078 0 0 1-1.052.003l-3.336-1.858a1.022 1.022 0 0 1-.53-.893l.029-16.868c0-.366.201-.703.526-.886a1.078 1.078 0 0 1 1.052-.002l11.427 6.395c.325.182.725.182 1.05 0l11.424-6.395a1.078 1.078 0 0 1 1.053.002c.325.184.526.523.525.89v16.871c0 .367-.2.707-.528.89l-5.983 3.357a1.022 1.022 0 0 0-.527.892c.001.368.204.707.532.89l3.3 1.83c.324.18.722.18 1.046-.002l7.044-3.941Zm.692-15.135c0 .37.205.71.535.893.33.182.735.177 1.06-.013l3.162-1.848c.317-.185.512-.52.512-.88V9.066c0-.369-.205-.71-.535-.891a1.078 1.078 0 0 0-1.06.013l-3.162 1.848c-.317.185-.511.519-.512.88v3.765Z"/></g><defs><clipPath id="a"><path fill="#fff" d="M5 8h38v32H5z"/></clipPath></defs></svg>