<svg width="48" height="48" viewBox="0 0 48 48" fill="none" xmlns="http://www.w3.org/2000/svg">
<path d="M22.7662 42.1462L18.3449 39.5414C18.9201 39.3409 19.2118 39.2011 19.9557 38.7815L23.4985 40.883L23.5147 40.8926L23.5315 40.9009C23.7821 41.0252 24.1459 41.0616 24.4352 40.8807L38.4577 32.8284C38.798 32.6514 38.9306 32.3135 38.9306 32.0047V15.911C38.9306 15.602 38.7979 15.264 38.4572 15.087L24.4242 7.0635L24.4114 7.05617L24.3981 7.04962C24.1476 6.92538 23.784 6.88896 23.4949 7.06954L9.47197 15.0872C9.11596 15.2733 8.99896 15.6592 8.99896 15.911V32.0047C8.99896 32.2564 9.11589 32.6421 9.47166 32.8283L13.2979 35.0218L13.3095 35.0285L13.3214 35.0345C14.4696 35.6136 15.4947 35.6046 16.2588 35.1772C17.0091 34.7575 17.4255 33.9754 17.4255 33.1916V17.3885H19.0652V33.1916C19.0652 34.4821 18.7121 35.4354 18.1159 36.0635C17.5232 36.6879 16.629 37.0554 15.412 37.0554C15.0096 37.0554 14.6976 37.0544 14.2725 36.9586C13.8427 36.8617 13.2778 36.6626 12.4067 36.2399L8.72659 34.1541C8.7263 34.1539 8.72601 34.1537 8.72571 34.1536C7.96723 33.7191 7.5 32.9078 7.5 32.0396V15.9459C7.5 15.0773 7.9676 14.2657 8.72659 13.8314L8.72725 13.831L22.7675 5.76858C23.4952 5.36588 24.5048 5.36588 25.2325 5.76858C25.2335 5.76912 25.2345 5.76967 25.2355 5.77021L39.2728 13.831L39.2734 13.8314C40.0324 14.2657 40.5 15.0773 40.5 15.9459V32.0396C40.5 32.9081 40.0324 33.7198 39.2734 34.1541L39.2728 34.1545L25.2501 42.2068C24.8675 42.378 24.4197 42.4666 24 42.4666C23.5671 42.4666 23.1576 42.3537 22.7662 42.1462ZM21.4032 26.8143H23.06C23.2137 27.7635 23.5293 28.5968 24.3872 29.1552C25.2215 29.6983 26.4853 29.9213 28.3644 29.9213C29.8585 29.9213 31.0185 29.7575 31.8182 29.3355C32.2295 29.1185 32.556 28.8278 32.7758 28.4507C32.9947 28.0751 33.088 27.6476 33.088 27.187C33.088 26.9336 33.0654 26.6224 32.9021 26.3162C32.7353 26.0035 32.4563 25.758 32.0613 25.5583C31.3038 25.1751 29.9758 24.8912 27.6751 24.6647C25.76 24.473 24.3011 24.1735 23.3261 23.5972C22.8501 23.3158 22.5005 22.9744 22.2664 22.5531C22.0315 22.1304 21.8954 21.596 21.8954 20.9032C21.8954 19.6509 22.4155 18.6782 23.381 18.0002C24.3675 17.3075 25.8551 16.8997 27.8012 16.8997C30.0112 16.8997 31.5708 17.2791 32.6014 17.9969C33.5864 18.6831 34.1541 19.7258 34.2992 21.241H32.6714C32.4374 20.2368 32.0024 19.4783 31.1754 18.9998C30.3677 18.5325 29.2587 18.3784 27.8012 18.3784C26.1453 18.3784 25.1033 18.66 24.4704 19.1447C23.7987 19.6589 23.676 20.3286 23.676 20.8333C23.676 21.115 23.7051 21.4383 23.8898 21.7385C24.0769 22.0425 24.3762 22.2486 24.758 22.4077C25.4926 22.7137 26.7713 22.9376 28.9339 23.2144C31.1056 23.4946 32.5962 23.8273 33.545 24.4101C34.0045 24.6923 34.3255 25.0273 34.5368 25.4402C34.7501 25.8569 34.8682 26.3858 34.8685 27.0794C34.852 28.457 34.2861 29.5062 33.2292 30.2308C32.1474 30.9724 30.51 31.3999 28.3292 31.3999C25.3148 31.3999 23.6022 30.7155 22.6438 29.838C21.7177 28.9901 21.4174 27.889 21.4032 26.8143Z" fill="#080D10" stroke="#080D10"/>
</svg>
