<svg width="48" height="48" viewBox="0 0 48 48" fill="none" xmlns="http://www.w3.org/2000/svg">
<g clip-path="url(#clip0_17023_11496)">
<mask id="path-1-inside-1_17023_11496" fill="white">
<path d="M27.3748 5C27.1001 5 26.8449 5.05911 26.6094 5.13793C27.1099 5.4729 27.3846 5.91624 27.522 6.41869C27.5319 6.48766 27.5515 6.53692 27.5613 6.60588C27.5711 6.665 27.5809 6.72411 27.5809 6.78322C27.6202 7.6502 27.3552 7.75857 27.1688 8.27088C26.8842 8.93097 26.9627 9.64031 27.3061 10.2117C27.3356 10.2807 27.3748 10.3595 27.4239 10.4285C27.051 7.93591 29.1217 7.56153 29.5044 6.78322C29.5338 6.10343 28.9744 5.65023 28.5328 5.33497C28.1109 5.07882 27.7281 5 27.3748 5ZM30.4955 5.56157C30.4563 5.78816 30.4857 5.72905 30.4759 5.84728C30.4661 5.92609 30.4661 6.02461 30.4563 6.10343C30.4367 6.18225 30.4171 6.26106 30.3876 6.33988C30.368 6.41869 30.3386 6.49751 30.3091 6.57633C30.2698 6.65515 30.2404 6.72411 30.2012 6.80292C30.1717 6.84235 30.1521 6.88174 30.1227 6.92115C30.1031 6.95071 30.0834 6.98026 30.0638 7.00982C30.0147 7.07878 29.9656 7.14775 29.9166 7.20686C29.8577 7.26597 29.8086 7.33493 29.7399 7.3842C29.7399 7.39406 29.7399 7.39406 29.7399 7.39406C29.6811 7.44332 29.6222 7.50243 29.5535 7.55169C29.3474 7.70932 29.1119 7.82755 28.896 7.97533C28.8273 8.02459 28.7586 8.064 28.6997 8.12311C28.631 8.17237 28.5721 8.22163 28.5132 8.28074C28.4445 8.33986 28.3955 8.39897 28.3366 8.46793C28.2875 8.52705 28.2286 8.59601 28.1894 8.66498C28.1403 8.73394 28.0913 8.8029 28.052 8.87187C28.0127 8.95068 27.9833 9.01965 27.9441 9.09846C27.9146 9.17728 27.8852 9.24624 27.8655 9.32506C27.8361 9.41373 27.8165 9.49254 27.7969 9.57136C27.787 9.61079 27.787 9.66003 27.7772 9.69944C27.7674 9.73886 27.7674 9.77825 27.7576 9.81766C27.7576 9.89648 27.7478 9.98515 27.7478 10.064C27.7478 10.1231 27.7478 10.1822 27.7576 10.2413C27.7576 10.3201 27.7675 10.3989 27.7871 10.4876C27.7969 10.5664 27.8165 10.6452 27.8361 10.7241C27.8656 10.8029 27.8852 10.8817 27.9146 10.9605C27.9343 11.0098 27.9637 11.059 27.9833 11.0984L25.7262 10.2216C25.3435 10.1132 24.9706 10.0147 24.5878 9.92604C24.3818 9.87678 24.1757 9.82751 23.9696 9.77825C23.3808 9.66003 22.7822 9.57136 22.1835 9.51225C22.1639 9.51225 22.1541 9.50239 22.1345 9.50239C21.5456 9.44327 20.9666 9.41372 20.3778 9.41372C19.946 9.41372 19.5142 9.43341 19.0923 9.46298C18.4936 9.5024 17.895 9.5812 17.2964 9.67972C17.1492 9.69941 17.002 9.72898 16.8548 9.75854C16.5505 9.81765 16.2561 9.88662 15.9715 9.95558C15.8243 9.99501 15.6771 10.0344 15.5299 10.0738C15.3827 10.1329 15.2453 10.2019 15.1079 10.261C15 10.3103 14.8921 10.3595 14.7841 10.4088C14.7645 10.4186 14.7448 10.4186 14.735 10.4285C14.6369 10.4777 14.5486 10.5171 14.4603 10.5664C14.4308 10.5763 14.4112 10.5861 14.3916 10.5959C14.2836 10.6452 14.1757 10.7043 14.0873 10.7536C14.0186 10.7831 13.95 10.8225 13.8911 10.8521C13.8616 10.8718 13.8224 10.8915 13.8027 10.9014C13.7144 10.9506 13.6261 10.9999 13.5476 11.0491C13.4593 11.0984 13.3808 11.1477 13.3121 11.1969C13.2434 11.2462 13.1747 11.2856 13.1158 11.3348C13.106 11.3447 13.0962 11.3447 13.0864 11.3545C13.0275 11.394 12.9588 11.4432 12.8999 11.4925C12.8999 11.4925 12.8901 11.5023 12.8803 11.5122C12.8312 11.5516 12.7821 11.591 12.7331 11.6304C12.7135 11.6402 12.6938 11.6599 12.6742 11.6698C12.6251 11.7092 12.5761 11.7585 12.527 11.7979C12.5172 11.8176 12.4976 11.8274 12.4877 11.8373C12.4288 11.8964 12.37 11.9457 12.3111 12.0048C12.3013 12.0048 12.3013 12.0147 12.2915 12.0245C12.2326 12.0737 12.1737 12.1329 12.1148 12.192C12.105 12.2018 12.105 12.2117 12.0952 12.2117C12.0462 12.2609 11.9971 12.3102 11.948 12.3693C11.9284 12.389 11.8989 12.4087 11.8793 12.4284C11.8303 12.4875 11.7714 12.5466 11.7125 12.6057C11.7027 12.6254 11.683 12.6353 11.6732 12.655C11.5947 12.7338 11.526 12.8126 11.4475 12.8914C11.4377 12.9013 11.4279 12.9111 11.4181 12.921C11.261 13.0885 11.0942 13.256 10.9176 13.4037C10.7409 13.5614 10.5545 13.7092 10.368 13.8372C10.1717 13.9752 9.98529 14.0934 9.7792 14.2116C9.58293 14.32 9.37684 14.4185 9.16095 14.5072C8.95486 14.5958 8.73897 14.6747 8.52307 14.7436C8.1109 14.8323 7.68891 14.9998 7.32581 15.0293C7.2473 15.0293 7.15898 15.049 7.08047 15.0589C6.99215 15.0786 6.91364 15.0983 6.83514 15.118C6.75663 15.1476 6.67812 15.1771 6.59961 15.2067C6.5211 15.2362 6.44259 15.2756 6.36409 15.315C6.29539 15.3643 6.21688 15.4037 6.14819 15.453C6.07949 15.5022 6.0108 15.5613 5.95191 15.6205C5.88322 15.6697 5.81452 15.7387 5.75564 15.7978C5.69676 15.8668 5.63788 15.9259 5.58881 15.9948C5.53975 16.0736 5.48086 16.1426 5.44161 16.2214C5.39254 16.2904 5.34347 16.3692 5.30422 16.448C5.26495 16.5367 5.22571 16.6155 5.19627 16.7042C5.16683 16.783 5.13739 16.8717 5.10795 16.9603C5.08834 17.0392 5.06868 17.118 5.05888 17.1968C5.05888 17.2067 5.04905 17.2165 5.04905 17.2263C5.02944 17.315 5.02944 17.4332 5.01961 17.4924C5.00978 17.5613 5 17.6204 5 17.6894C5 17.7288 5 17.7781 5.00983 17.8175C5.01966 17.8864 5.02944 17.9455 5.0491 18.0047C5.06871 18.0638 5.08837 18.1229 5.11779 18.182C5.11779 18.1919 5.11779 18.1919 5.11779 18.1919C5.14723 18.251 5.18649 18.3101 5.22574 18.3692C5.26501 18.4283 5.30425 18.4874 5.35332 18.5465C5.40238 18.5958 5.46127 18.6549 5.52015 18.7042C5.57903 18.7633 5.63791 18.8125 5.7066 18.8618C5.94213 19.0687 6.00101 19.1377 6.30523 19.2953C6.3543 19.3248 6.40337 19.3445 6.46225 19.3741C6.47208 19.3741 6.48186 19.384 6.49169 19.384C6.49169 19.4037 6.49169 19.4135 6.50152 19.4332C6.51135 19.5121 6.53096 19.5909 6.55059 19.6697C6.5702 19.7584 6.59966 19.8372 6.6291 19.9061C6.65854 19.9652 6.67817 20.0244 6.70761 20.0835C6.71744 20.1032 6.72722 20.1229 6.73705 20.1327C6.77632 20.2115 6.81556 20.2805 6.85481 20.3495C6.90388 20.4184 6.95295 20.4874 7.00201 20.5564C7.05108 20.6155 7.10996 20.6844 7.16884 20.7436C7.22773 20.8027 7.28661 20.8519 7.3553 20.911C7.3553 20.911 7.36513 20.9209 7.37492 20.9209C7.4338 20.9702 7.49268 21.0194 7.55156 21.0588C7.62025 21.1081 7.68895 21.1475 7.76746 21.1869C7.83616 21.2263 7.91466 21.2657 7.99317 21.2953C8.05205 21.3249 8.12074 21.3446 8.18944 21.3643C8.19927 21.3741 8.20905 21.3741 8.22871 21.384C8.26798 21.3938 8.31703 21.4036 8.35629 21.4135C8.32684 21.9455 8.31702 22.448 8.39556 22.6253C8.48387 22.8223 8.91567 22.2214 9.34747 21.5317C9.28859 22.2115 9.24933 23.0095 9.34747 23.246C9.45542 23.4923 10.0442 22.7238 10.5545 21.8765C17.5123 20.2608 23.8617 25.0883 24.529 31.9059C24.4015 30.8419 23.0963 30.2508 22.4976 30.3986C22.2032 31.1276 21.7027 32.0636 20.898 32.6448C20.9667 31.9946 20.9373 31.3247 20.7999 30.6744C20.584 31.5808 20.162 32.4281 19.583 33.1571C18.6507 33.2261 17.7184 32.7729 17.2278 32.0931C17.1885 32.0636 17.1787 32.0044 17.1492 31.965C17.1198 31.8961 17.0904 31.8271 17.0707 31.7581C17.0413 31.6892 17.0217 31.6202 17.0119 31.5513C17.002 31.4823 17.002 31.4133 17.002 31.3345C17.002 31.2852 17.002 31.236 17.002 31.1867C17.0119 31.1178 17.0315 31.0488 17.0511 30.9798C17.0707 30.9109 17.0904 30.8419 17.1198 30.7729C17.1591 30.704 17.1885 30.635 17.2376 30.5661C17.4044 30.0931 17.4044 29.7089 17.1002 29.4823C17.0413 29.4429 16.9824 29.4134 16.9137 29.3838C16.8744 29.3739 16.8254 29.3542 16.7861 29.3444C16.7567 29.3345 16.7371 29.3247 16.7076 29.3148C16.6389 29.2951 16.5702 29.2754 16.5015 29.2656C16.4328 29.2459 16.3641 29.236 16.2954 29.236C16.2268 29.2261 16.1482 29.2163 16.0796 29.2163C16.0305 29.2163 15.9814 29.2262 15.9323 29.2262C15.8538 29.2262 15.7851 29.2361 15.7164 29.2557C15.6478 29.2656 15.5791 29.2754 15.5104 29.2952C15.4417 29.3149 15.373 29.3346 15.3043 29.3641C15.2356 29.3937 15.1767 29.4232 15.108 29.4528C15.0491 29.4824 14.9902 29.5218 14.9216 29.5513C12.635 31.0488 13.9991 34.5562 15.5594 35.5709C14.9706 35.6793 14.372 35.8074 14.2052 35.9354C14.1953 35.9453 14.1856 35.9551 14.1856 35.9551C14.6075 36.2113 15.0491 36.428 15.5104 36.6152C16.1384 36.8221 16.8058 37.0093 17.1002 37.0881V37.098C17.9147 37.2655 18.739 37.3246 19.5732 37.2753C23.9206 36.9699 27.4829 33.6498 28.1306 29.2755C28.1502 29.3641 28.1699 29.4429 28.1895 29.5316C28.2189 29.7089 28.2582 29.8961 28.2778 30.0833C28.2778 30.0833 28.2778 30.0833 28.2778 30.0932C28.2974 30.1819 28.3073 30.2705 28.3171 30.3494C28.3171 30.369 28.3171 30.3789 28.3171 30.3888C28.3269 30.4774 28.3367 30.5661 28.3367 30.6449C28.3465 30.7533 28.3563 30.8617 28.3563 30.9701C28.3563 31.0193 28.3563 31.0686 28.3563 31.1277C28.3563 31.1769 28.3661 31.2361 28.3661 31.2853C28.3661 31.3444 28.3563 31.4035 28.3563 31.4627C28.3563 31.5119 28.3563 31.5612 28.3563 31.6006C28.3563 31.6695 28.3465 31.7287 28.3465 31.7976C28.3465 31.837 28.3465 31.8764 28.3366 31.9257C28.3366 31.9947 28.3268 32.0636 28.3268 32.1424C28.317 32.172 28.317 32.2016 28.317 32.2311C28.3072 32.3099 28.2974 32.3789 28.2875 32.4577C28.2875 32.4873 28.2875 32.5168 28.2777 32.5464C28.2679 32.6449 28.2483 32.7336 28.2384 32.8321V32.842V32.8518C28.2188 32.9405 28.1992 33.039 28.1796 33.1277C28.1796 33.1375 28.1796 33.1474 28.1796 33.1572C28.16 33.2459 28.1403 33.3346 28.1207 33.4232C28.1207 33.4331 28.1109 33.4528 28.1109 33.4627C28.0912 33.5513 28.0716 33.64 28.0422 33.7287C28.0422 33.7385 28.0422 33.7484 28.0422 33.7582C28.0127 33.8567 27.9833 33.9454 27.9637 34.0341C27.9538 34.044 27.9538 34.0538 27.9538 34.0538C27.9244 34.1523 27.8949 34.2508 27.8655 34.3493C27.8262 34.4479 27.7968 34.5365 27.7576 34.635C27.7183 34.7336 27.6889 34.8321 27.6496 34.9208C27.6103 35.0193 27.5711 35.108 27.5318 35.2065H27.522C27.4827 35.2951 27.4435 35.3937 27.3944 35.4823C27.3846 35.5119 27.3748 35.5316 27.365 35.5513C27.3552 35.5612 27.3552 35.571 27.3454 35.5808C26.7075 36.8715 25.7654 38.0044 24.5878 38.8911C24.5093 38.9404 24.4307 38.9995 24.3522 39.0586C24.3326 39.0783 24.3032 39.0882 24.2835 39.1079C24.2148 39.1571 24.1462 39.2064 24.0676 39.2557L24.0971 39.3148H24.1069C24.2443 39.2951 24.3817 39.2753 24.5191 39.2557H24.5289C24.7841 39.2162 25.0392 39.167 25.2944 39.1177C25.3631 39.1078 25.4416 39.0882 25.5103 39.0685C25.5593 39.0586 25.5986 39.0488 25.6477 39.0389C25.7164 39.029 25.785 39.0093 25.8537 38.9995C25.9126 38.9798 25.9715 38.9699 26.0304 38.9502C27.0117 38.7138 27.9637 38.3887 28.8763 38.0044C27.316 40.1423 25.2257 41.8664 22.7821 42.9994C23.9107 42.9206 25.0392 42.7334 26.1285 42.4181C30.0834 41.2457 33.4102 38.5758 35.4023 34.9798C35 37.2557 34.0971 39.4231 32.7625 41.3147C33.7144 40.6842 34.5878 39.9551 35.3827 39.1276C37.5809 36.8222 39.0235 33.8961 39.5142 30.7533C39.8479 32.3099 39.946 33.9158 39.7988 35.502C46.8842 25.581 40.3876 15.2955 37.6693 12.5862C37.6594 12.5665 37.6497 12.5566 37.6497 12.5369C37.6398 12.5468 37.6398 12.5468 37.6398 12.5566C37.6398 12.5467 37.6398 12.5467 37.63 12.5369C37.63 12.6551 37.6202 12.7733 37.6104 12.8916C37.5809 13.1182 37.5515 13.3349 37.5122 13.5517C37.4632 13.7684 37.4043 13.9851 37.3454 14.2019C37.2767 14.4088 37.1982 14.6255 37.1099 14.8324C37.0216 15.0295 36.9234 15.2364 36.8155 15.4334C36.7075 15.6206 36.5898 15.8176 36.4622 15.995C36.3346 16.1822 36.1972 16.3595 36.0598 16.527C35.9126 16.7043 35.7556 16.8619 35.5986 17.0196C35.5005 17.1082 35.4121 17.1871 35.314 17.2659C35.2355 17.3348 35.1668 17.394 35.0883 17.4629C34.9116 17.6008 34.735 17.7289 34.5387 17.8471C34.3523 17.9654 34.156 18.0836 33.9597 18.1821C33.7536 18.2806 33.5476 18.3693 33.3415 18.458C33.1354 18.5368 32.9195 18.6058 32.7036 18.6649C32.4877 18.724 32.262 18.7732 32.0461 18.8126C31.8204 18.8521 31.5947 18.8718 31.3788 18.8915C31.2217 18.9013 31.0647 18.9112 30.9077 18.9112C30.682 18.9112 30.4563 18.8915 30.2404 18.8717C30.0147 18.852 29.789 18.8225 29.5731 18.7732C29.3474 18.7338 29.1315 18.6747 28.9156 18.6057H28.9057C29.1216 18.586 29.3375 18.5663 29.5534 18.5269C29.7791 18.4875 29.995 18.4382 30.2109 18.3791C30.4268 18.32 30.6427 18.251 30.8488 18.1722C31.0647 18.0934 31.2708 17.9949 31.4671 17.8964C31.6732 17.7979 31.8596 17.6895 32.0559 17.5713C32.2423 17.4432 32.4288 17.3151 32.6054 17.1772C32.7821 17.0392 32.9489 16.8915 33.1059 16.7338C33.2728 16.5861 33.42 16.4186 33.5672 16.2511C33.7144 16.0738 33.8518 15.8964 33.9793 15.7191C33.999 15.6895 34.0186 15.6501 34.0382 15.6206C34.1364 15.4629 34.2345 15.3053 34.3228 15.1477C34.4308 14.9506 34.5289 14.7536 34.6172 14.5467C34.7055 14.3398 34.7841 14.1329 34.8528 13.9162C34.9214 13.7093 34.9705 13.4925 35.0196 13.2758C35.0589 13.0492 35.0981 12.8324 35.1177 12.6157C35.1373 12.3891 35.157 12.1625 35.157 11.9457C35.157 11.7881 35.1471 11.6305 35.1374 11.4728C35.1178 11.2463 35.0883 11.0295 35.0589 10.8128C35.0196 10.5862 34.9705 10.3694 34.9117 10.1527C34.843 9.94578 34.7743 9.72903 34.6958 9.52214C34.6173 9.31525 34.5191 9.10836 34.421 8.91131C34.313 8.71427 34.2051 8.51723 34.0873 8.33005C33.9598 8.14286 33.8322 7.96552 33.6948 7.78818C33.5476 7.6207 33.4004 7.45321 33.2434 7.28573C33.1649 7.20691 33.0765 7.11824 32.9882 7.03943C32.5466 6.69461 32.0854 6.36949 31.6241 6.07393C31.5554 6.03451 31.4965 6.00496 31.4279 5.9754C31.104 5.76851 30.7998 5.66008 30.4955 5.56157Z"/>
</mask>
<path d="M27.3748 5C27.1001 5 26.8449 5.05911 26.6094 5.13793C27.1099 5.4729 27.3846 5.91624 27.522 6.41869C27.5319 6.48766 27.5515 6.53692 27.5613 6.60588C27.5711 6.665 27.5809 6.72411 27.5809 6.78322C27.6202 7.6502 27.3552 7.75857 27.1688 8.27088C26.8842 8.93097 26.9627 9.64031 27.3061 10.2117C27.3356 10.2807 27.3748 10.3595 27.4239 10.4285C27.051 7.93591 29.1217 7.56153 29.5044 6.78322C29.5338 6.10343 28.9744 5.65023 28.5328 5.33497C28.1109 5.07882 27.7281 5 27.3748 5ZM30.4955 5.56157C30.4563 5.78816 30.4857 5.72905 30.4759 5.84728C30.4661 5.92609 30.4661 6.02461 30.4563 6.10343C30.4367 6.18225 30.4171 6.26106 30.3876 6.33988C30.368 6.41869 30.3386 6.49751 30.3091 6.57633C30.2698 6.65515 30.2404 6.72411 30.2012 6.80292C30.1717 6.84235 30.1521 6.88174 30.1227 6.92115C30.1031 6.95071 30.0834 6.98026 30.0638 7.00982C30.0147 7.07878 29.9656 7.14775 29.9166 7.20686C29.8577 7.26597 29.8086 7.33493 29.7399 7.3842C29.7399 7.39406 29.7399 7.39406 29.7399 7.39406C29.6811 7.44332 29.6222 7.50243 29.5535 7.55169C29.3474 7.70932 29.1119 7.82755 28.896 7.97533C28.8273 8.02459 28.7586 8.064 28.6997 8.12311C28.631 8.17237 28.5721 8.22163 28.5132 8.28074C28.4445 8.33986 28.3955 8.39897 28.3366 8.46793C28.2875 8.52705 28.2286 8.59601 28.1894 8.66498C28.1403 8.73394 28.0913 8.8029 28.052 8.87187C28.0127 8.95068 27.9833 9.01965 27.9441 9.09846C27.9146 9.17728 27.8852 9.24624 27.8655 9.32506C27.8361 9.41373 27.8165 9.49254 27.7969 9.57136C27.787 9.61079 27.787 9.66003 27.7772 9.69944C27.7674 9.73886 27.7674 9.77825 27.7576 9.81766C27.7576 9.89648 27.7478 9.98515 27.7478 10.064C27.7478 10.1231 27.7478 10.1822 27.7576 10.2413C27.7576 10.3201 27.7675 10.3989 27.7871 10.4876C27.7969 10.5664 27.8165 10.6452 27.8361 10.7241C27.8656 10.8029 27.8852 10.8817 27.9146 10.9605C27.9343 11.0098 27.9637 11.059 27.9833 11.0984L25.7262 10.2216C25.3435 10.1132 24.9706 10.0147 24.5878 9.92604C24.3818 9.87678 24.1757 9.82751 23.9696 9.77825C23.3808 9.66003 22.7822 9.57136 22.1835 9.51225C22.1639 9.51225 22.1541 9.50239 22.1345 9.50239C21.5456 9.44327 20.9666 9.41372 20.3778 9.41372C19.946 9.41372 19.5142 9.43341 19.0923 9.46298C18.4936 9.5024 17.895 9.5812 17.2964 9.67972C17.1492 9.69941 17.002 9.72898 16.8548 9.75854C16.5505 9.81765 16.2561 9.88662 15.9715 9.95558C15.8243 9.99501 15.6771 10.0344 15.5299 10.0738C15.3827 10.1329 15.2453 10.2019 15.1079 10.261C15 10.3103 14.8921 10.3595 14.7841 10.4088C14.7645 10.4186 14.7448 10.4186 14.735 10.4285C14.6369 10.4777 14.5486 10.5171 14.4603 10.5664C14.4308 10.5763 14.4112 10.5861 14.3916 10.5959C14.2836 10.6452 14.1757 10.7043 14.0873 10.7536C14.0186 10.7831 13.95 10.8225 13.8911 10.8521C13.8616 10.8718 13.8224 10.8915 13.8027 10.9014C13.7144 10.9506 13.6261 10.9999 13.5476 11.0491C13.4593 11.0984 13.3808 11.1477 13.3121 11.1969C13.2434 11.2462 13.1747 11.2856 13.1158 11.3348C13.106 11.3447 13.0962 11.3447 13.0864 11.3545C13.0275 11.394 12.9588 11.4432 12.8999 11.4925C12.8999 11.4925 12.8901 11.5023 12.8803 11.5122C12.8312 11.5516 12.7821 11.591 12.7331 11.6304C12.7135 11.6402 12.6938 11.6599 12.6742 11.6698C12.6251 11.7092 12.5761 11.7585 12.527 11.7979C12.5172 11.8176 12.4976 11.8274 12.4877 11.8373C12.4288 11.8964 12.37 11.9457 12.3111 12.0048C12.3013 12.0048 12.3013 12.0147 12.2915 12.0245C12.2326 12.0737 12.1737 12.1329 12.1148 12.192C12.105 12.2018 12.105 12.2117 12.0952 12.2117C12.0462 12.2609 11.9971 12.3102 11.948 12.3693C11.9284 12.389 11.8989 12.4087 11.8793 12.4284C11.8303 12.4875 11.7714 12.5466 11.7125 12.6057C11.7027 12.6254 11.683 12.6353 11.6732 12.655C11.5947 12.7338 11.526 12.8126 11.4475 12.8914C11.4377 12.9013 11.4279 12.9111 11.4181 12.921C11.261 13.0885 11.0942 13.256 10.9176 13.4037C10.7409 13.5614 10.5545 13.7092 10.368 13.8372C10.1717 13.9752 9.98529 14.0934 9.7792 14.2116C9.58293 14.32 9.37684 14.4185 9.16095 14.5072C8.95486 14.5958 8.73897 14.6747 8.52307 14.7436C8.1109 14.8323 7.68891 14.9998 7.32581 15.0293C7.2473 15.0293 7.15898 15.049 7.08047 15.0589C6.99215 15.0786 6.91364 15.0983 6.83514 15.118C6.75663 15.1476 6.67812 15.1771 6.59961 15.2067C6.5211 15.2362 6.44259 15.2756 6.36409 15.315C6.29539 15.3643 6.21688 15.4037 6.14819 15.453C6.07949 15.5022 6.0108 15.5613 5.95191 15.6205C5.88322 15.6697 5.81452 15.7387 5.75564 15.7978C5.69676 15.8668 5.63788 15.9259 5.58881 15.9948C5.53975 16.0736 5.48086 16.1426 5.44161 16.2214C5.39254 16.2904 5.34347 16.3692 5.30422 16.448C5.26495 16.5367 5.22571 16.6155 5.19627 16.7042C5.16683 16.783 5.13739 16.8717 5.10795 16.9603C5.08834 17.0392 5.06868 17.118 5.05888 17.1968C5.05888 17.2067 5.04905 17.2165 5.04905 17.2263C5.02944 17.315 5.02944 17.4332 5.01961 17.4924C5.00978 17.5613 5 17.6204 5 17.6894C5 17.7288 5 17.7781 5.00983 17.8175C5.01966 17.8864 5.02944 17.9455 5.0491 18.0047C5.06871 18.0638 5.08837 18.1229 5.11779 18.182C5.11779 18.1919 5.11779 18.1919 5.11779 18.1919C5.14723 18.251 5.18649 18.3101 5.22574 18.3692C5.26501 18.4283 5.30425 18.4874 5.35332 18.5465C5.40238 18.5958 5.46127 18.6549 5.52015 18.7042C5.57903 18.7633 5.63791 18.8125 5.7066 18.8618C5.94213 19.0687 6.00101 19.1377 6.30523 19.2953C6.3543 19.3248 6.40337 19.3445 6.46225 19.3741C6.47208 19.3741 6.48186 19.384 6.49169 19.384C6.49169 19.4037 6.49169 19.4135 6.50152 19.4332C6.51135 19.5121 6.53096 19.5909 6.55059 19.6697C6.5702 19.7584 6.59966 19.8372 6.6291 19.9061C6.65854 19.9652 6.67817 20.0244 6.70761 20.0835C6.71744 20.1032 6.72722 20.1229 6.73705 20.1327C6.77632 20.2115 6.81556 20.2805 6.85481 20.3495C6.90388 20.4184 6.95295 20.4874 7.00201 20.5564C7.05108 20.6155 7.10996 20.6844 7.16884 20.7436C7.22773 20.8027 7.28661 20.8519 7.3553 20.911C7.3553 20.911 7.36513 20.9209 7.37492 20.9209C7.4338 20.9702 7.49268 21.0194 7.55156 21.0588C7.62025 21.1081 7.68895 21.1475 7.76746 21.1869C7.83616 21.2263 7.91466 21.2657 7.99317 21.2953C8.05205 21.3249 8.12074 21.3446 8.18944 21.3643C8.19927 21.3741 8.20905 21.3741 8.22871 21.384C8.26798 21.3938 8.31703 21.4036 8.35629 21.4135C8.32684 21.9455 8.31702 22.448 8.39556 22.6253C8.48387 22.8223 8.91567 22.2214 9.34747 21.5317C9.28859 22.2115 9.24933 23.0095 9.34747 23.246C9.45542 23.4923 10.0442 22.7238 10.5545 21.8765C17.5123 20.2608 23.8617 25.0883 24.529 31.9059C24.4015 30.8419 23.0963 30.2508 22.4976 30.3986C22.2032 31.1276 21.7027 32.0636 20.898 32.6448C20.9667 31.9946 20.9373 31.3247 20.7999 30.6744C20.584 31.5808 20.162 32.4281 19.583 33.1571C18.6507 33.2261 17.7184 32.7729 17.2278 32.0931C17.1885 32.0636 17.1787 32.0044 17.1492 31.965C17.1198 31.8961 17.0904 31.8271 17.0707 31.7581C17.0413 31.6892 17.0217 31.6202 17.0119 31.5513C17.002 31.4823 17.002 31.4133 17.002 31.3345C17.002 31.2852 17.002 31.236 17.002 31.1867C17.0119 31.1178 17.0315 31.0488 17.0511 30.9798C17.0707 30.9109 17.0904 30.8419 17.1198 30.7729C17.1591 30.704 17.1885 30.635 17.2376 30.5661C17.4044 30.0931 17.4044 29.7089 17.1002 29.4823C17.0413 29.4429 16.9824 29.4134 16.9137 29.3838C16.8744 29.3739 16.8254 29.3542 16.7861 29.3444C16.7567 29.3345 16.7371 29.3247 16.7076 29.3148C16.6389 29.2951 16.5702 29.2754 16.5015 29.2656C16.4328 29.2459 16.3641 29.236 16.2954 29.236C16.2268 29.2261 16.1482 29.2163 16.0796 29.2163C16.0305 29.2163 15.9814 29.2262 15.9323 29.2262C15.8538 29.2262 15.7851 29.2361 15.7164 29.2557C15.6478 29.2656 15.5791 29.2754 15.5104 29.2952C15.4417 29.3149 15.373 29.3346 15.3043 29.3641C15.2356 29.3937 15.1767 29.4232 15.108 29.4528C15.0491 29.4824 14.9902 29.5218 14.9216 29.5513C12.635 31.0488 13.9991 34.5562 15.5594 35.5709C14.9706 35.6793 14.372 35.8074 14.2052 35.9354C14.1953 35.9453 14.1856 35.9551 14.1856 35.9551C14.6075 36.2113 15.0491 36.428 15.5104 36.6152C16.1384 36.8221 16.8058 37.0093 17.1002 37.0881V37.098C17.9147 37.2655 18.739 37.3246 19.5732 37.2753C23.9206 36.9699 27.4829 33.6498 28.1306 29.2755C28.1502 29.3641 28.1699 29.4429 28.1895 29.5316C28.2189 29.7089 28.2582 29.8961 28.2778 30.0833C28.2778 30.0833 28.2778 30.0833 28.2778 30.0932C28.2974 30.1819 28.3073 30.2705 28.3171 30.3494C28.3171 30.369 28.3171 30.3789 28.3171 30.3888C28.3269 30.4774 28.3367 30.5661 28.3367 30.6449C28.3465 30.7533 28.3563 30.8617 28.3563 30.9701C28.3563 31.0193 28.3563 31.0686 28.3563 31.1277C28.3563 31.1769 28.3661 31.2361 28.3661 31.2853C28.3661 31.3444 28.3563 31.4035 28.3563 31.4627C28.3563 31.5119 28.3563 31.5612 28.3563 31.6006C28.3563 31.6695 28.3465 31.7287 28.3465 31.7976C28.3465 31.837 28.3465 31.8764 28.3366 31.9257C28.3366 31.9947 28.3268 32.0636 28.3268 32.1424C28.317 32.172 28.317 32.2016 28.317 32.2311C28.3072 32.3099 28.2974 32.3789 28.2875 32.4577C28.2875 32.4873 28.2875 32.5168 28.2777 32.5464C28.2679 32.6449 28.2483 32.7336 28.2384 32.8321V32.842V32.8518C28.2188 32.9405 28.1992 33.039 28.1796 33.1277C28.1796 33.1375 28.1796 33.1474 28.1796 33.1572C28.16 33.2459 28.1403 33.3346 28.1207 33.4232C28.1207 33.4331 28.1109 33.4528 28.1109 33.4627C28.0912 33.5513 28.0716 33.64 28.0422 33.7287C28.0422 33.7385 28.0422 33.7484 28.0422 33.7582C28.0127 33.8567 27.9833 33.9454 27.9637 34.0341C27.9538 34.044 27.9538 34.0538 27.9538 34.0538C27.9244 34.1523 27.8949 34.2508 27.8655 34.3493C27.8262 34.4479 27.7968 34.5365 27.7576 34.635C27.7183 34.7336 27.6889 34.8321 27.6496 34.9208C27.6103 35.0193 27.5711 35.108 27.5318 35.2065H27.522C27.4827 35.2951 27.4435 35.3937 27.3944 35.4823C27.3846 35.5119 27.3748 35.5316 27.365 35.5513C27.3552 35.5612 27.3552 35.571 27.3454 35.5808C26.7075 36.8715 25.7654 38.0044 24.5878 38.8911C24.5093 38.9404 24.4307 38.9995 24.3522 39.0586C24.3326 39.0783 24.3032 39.0882 24.2835 39.1079C24.2148 39.1571 24.1462 39.2064 24.0676 39.2557L24.0971 39.3148H24.1069C24.2443 39.2951 24.3817 39.2753 24.5191 39.2557H24.5289C24.7841 39.2162 25.0392 39.167 25.2944 39.1177C25.3631 39.1078 25.4416 39.0882 25.5103 39.0685C25.5593 39.0586 25.5986 39.0488 25.6477 39.0389C25.7164 39.029 25.785 39.0093 25.8537 38.9995C25.9126 38.9798 25.9715 38.9699 26.0304 38.9502C27.0117 38.7138 27.9637 38.3887 28.8763 38.0044C27.316 40.1423 25.2257 41.8664 22.7821 42.9994C23.9107 42.9206 25.0392 42.7334 26.1285 42.4181C30.0834 41.2457 33.4102 38.5758 35.4023 34.9798C35 37.2557 34.0971 39.4231 32.7625 41.3147C33.7144 40.6842 34.5878 39.9551 35.3827 39.1276C37.5809 36.8222 39.0235 33.8961 39.5142 30.7533C39.8479 32.3099 39.946 33.9158 39.7988 35.502C46.8842 25.581 40.3876 15.2955 37.6693 12.5862C37.6594 12.5665 37.6497 12.5566 37.6497 12.5369C37.6398 12.5468 37.6398 12.5468 37.6398 12.5566C37.6398 12.5467 37.6398 12.5467 37.63 12.5369C37.63 12.6551 37.6202 12.7733 37.6104 12.8916C37.5809 13.1182 37.5515 13.3349 37.5122 13.5517C37.4632 13.7684 37.4043 13.9851 37.3454 14.2019C37.2767 14.4088 37.1982 14.6255 37.1099 14.8324C37.0216 15.0295 36.9234 15.2364 36.8155 15.4334C36.7075 15.6206 36.5898 15.8176 36.4622 15.995C36.3346 16.1822 36.1972 16.3595 36.0598 16.527C35.9126 16.7043 35.7556 16.8619 35.5986 17.0196C35.5005 17.1082 35.4121 17.1871 35.314 17.2659C35.2355 17.3348 35.1668 17.394 35.0883 17.4629C34.9116 17.6008 34.735 17.7289 34.5387 17.8471C34.3523 17.9654 34.156 18.0836 33.9597 18.1821C33.7536 18.2806 33.5476 18.3693 33.3415 18.458C33.1354 18.5368 32.9195 18.6058 32.7036 18.6649C32.4877 18.724 32.262 18.7732 32.0461 18.8126C31.8204 18.8521 31.5947 18.8718 31.3788 18.8915C31.2217 18.9013 31.0647 18.9112 30.9077 18.9112C30.682 18.9112 30.4563 18.8915 30.2404 18.8717C30.0147 18.852 29.789 18.8225 29.5731 18.7732C29.3474 18.7338 29.1315 18.6747 28.9156 18.6057H28.9057C29.1216 18.586 29.3375 18.5663 29.5534 18.5269C29.7791 18.4875 29.995 18.4382 30.2109 18.3791C30.4268 18.32 30.6427 18.251 30.8488 18.1722C31.0647 18.0934 31.2708 17.9949 31.4671 17.8964C31.6732 17.7979 31.8596 17.6895 32.0559 17.5713C32.2423 17.4432 32.4288 17.3151 32.6054 17.1772C32.7821 17.0392 32.9489 16.8915 33.1059 16.7338C33.2728 16.5861 33.42 16.4186 33.5672 16.2511C33.7144 16.0738 33.8518 15.8964 33.9793 15.7191C33.999 15.6895 34.0186 15.6501 34.0382 15.6206C34.1364 15.4629 34.2345 15.3053 34.3228 15.1477C34.4308 14.9506 34.5289 14.7536 34.6172 14.5467C34.7055 14.3398 34.7841 14.1329 34.8528 13.9162C34.9214 13.7093 34.9705 13.4925 35.0196 13.2758C35.0589 13.0492 35.0981 12.8324 35.1177 12.6157C35.1373 12.3891 35.157 12.1625 35.157 11.9457C35.157 11.7881 35.1471 11.6305 35.1374 11.4728C35.1178 11.2463 35.0883 11.0295 35.0589 10.8128C35.0196 10.5862 34.9705 10.3694 34.9117 10.1527C34.843 9.94578 34.7743 9.72903 34.6958 9.52214C34.6173 9.31525 34.5191 9.10836 34.421 8.91131C34.313 8.71427 34.2051 8.51723 34.0873 8.33005C33.9598 8.14286 33.8322 7.96552 33.6948 7.78818C33.5476 7.6207 33.4004 7.45321 33.2434 7.28573C33.1649 7.20691 33.0765 7.11824 32.9882 7.03943C32.5466 6.69461 32.0854 6.36949 31.6241 6.07393C31.5554 6.03451 31.4965 6.00496 31.4279 5.9754C31.104 5.76851 30.7998 5.66008 30.4955 5.56157Z" fill="#080D10" stroke="#080D10" stroke-width="2" mask="url(#path-1-inside-1_17023_11496)"/>
</g>
<defs>
<clipPath id="clip0_17023_11496">
<rect width="38" height="38" fill="white" transform="translate(5 5)"/>
</clipPath>
</defs>
</svg>
