<svg width="48" height="48" viewBox="0 0 48 48" fill="none" xmlns="http://www.w3.org/2000/svg">
<g clip-path="url(#clip0_17129_19255)">
<mask id="path-1-inside-1_17129_19255" fill="white">
<path d="M24.5157 6.00013C22.6472 6.00013 20.9745 6.95596 20.0402 8.5593L17.6969 12.58H12.6341C11.7377 12.5727 10.8555 12.8033 10.0774 13.2483C9.29929 13.6933 8.65313 14.3367 8.20485 15.1129C7.75126 15.8797 7.51195 16.7542 7.51195 17.6451C7.51195 18.536 7.75126 19.4105 8.20485 20.1773L10.7363 24.5233L8.19868 28.8785C7.74833 29.6396 7.51074 30.5078 7.51074 31.3922C7.51074 32.2765 7.74833 33.1447 8.19868 33.9058C8.6438 34.6759 9.28505 35.3143 10.0571 35.756C10.8292 36.1977 11.7045 36.4269 12.594 36.4203H17.1033L18.4369 37.74L20.014 40.441C20.4668 41.2247 21.1193 41.8744 21.9049 42.324C22.6905 42.7735 23.5813 43.0068 24.4864 43.0001C26.3533 43.0001 28.0261 42.0443 28.9603 40.441L30.2183 38.2826L32.0991 36.4203H36.3696C37.2651 36.4267 38.1464 36.1957 38.9236 35.7508C39.7008 35.3058 40.3462 34.6629 40.7941 33.8873C41.7191 32.3025 41.7191 30.4093 40.7941 28.823L38.2627 24.4755L40.8003 20.1218C41.2506 19.3607 41.4882 18.4925 41.4882 17.6081C41.4882 16.7237 41.2506 15.8556 40.8003 15.0944C40.3552 14.3243 39.7139 13.6859 38.9419 13.2443C38.1698 12.8026 37.2945 12.5734 36.405 12.58H31.3298L28.9865 8.5593C28.5338 7.77578 27.8816 7.1262 27.0963 6.67667C26.311 6.22714 25.4205 5.9937 24.5157 6.00013ZM24.5157 7.10859C25.9772 7.10859 27.2876 7.85784 28.0199 9.11275L30.0395 12.58H18.9888L21.0084 9.1143C21.3634 8.49967 21.8751 7.99021 22.4912 7.63785C23.1073 7.2855 23.8059 7.10287 24.5157 7.10859ZM25.0244 13.6838V25.6163H26.5075L35.6095 22.2647L35.6311 22.1768L36.9723 24.477L34.9219 27.9951L35.1856 23.1034L32.8576 23.9405L30.5297 26.2438L28.6227 25.8275L30.1058 27.9195V34.413L32.3443 32.415L31.2528 34.2897L30.1058 35.2502V36.2584L29.4706 37.3499V28.3389L27.7778 25.826L26.7187 26.4534H22.4853L21.4262 25.826L19.7334 28.3389V37.7446L19.0983 36.6562V35.2502L17.5011 33.9135L16.3772 31.9865L19.0983 34.413V27.9195L20.5798 25.826L18.6743 26.2438L16.3464 23.9405L14.0169 23.1034L14.3068 28.4298L12.0297 24.5233L13.482 22.0304L13.6701 21.7097L13.8057 22.2647L22.9077 25.6163H24.1781V13.6853L25.0244 13.6838ZM27.3554 13.6838H27.9906L29.4706 17.0292L32.4537 16.7209L32.8191 17.3468L29.0389 17.6428L27.3554 13.6838ZM21.2119 13.6853H21.8471L20.1636 17.6428L16.2231 17.3268L16.3341 17.1356L16.3356 17.1371L16.5869 16.7055L19.7319 17.0292L21.2119 13.6853ZM12.6325 13.6869H17.0525L14.9897 17.2265L12.5354 17.0308L13.2908 20.1418L11.3838 23.4163L9.17455 19.6238C8.81996 19.0247 8.63288 18.3413 8.63288 17.6451C8.63288 16.9489 8.81996 16.2655 9.17455 15.6664C9.5245 15.0602 10.0289 14.5576 10.6364 14.2099C11.2438 13.8622 11.9326 13.6817 12.6325 13.6869ZM31.9758 13.6869H36.405C37.8357 13.6869 39.1168 14.4207 39.8321 15.6479C40.1833 16.2414 40.3686 16.9184 40.3686 17.6081C40.3686 18.2978 40.1833 18.9748 39.8321 19.5683L37.6168 23.3701L36.0103 20.612L36.8783 17.0308L34.0524 17.2512L31.9758 13.6869ZM37.6168 25.5855L39.826 29.378C40.1803 29.9769 40.3672 30.66 40.3672 31.3559C40.3672 32.0518 40.1803 32.7349 39.826 33.3339C39.4759 33.9399 38.9715 34.4422 38.364 34.7897C37.7566 35.1372 37.0678 35.3173 36.368 35.3118H32.8576V33.7501L37.6168 25.5855ZM11.3838 25.6317L16.3479 34.1494V35.3118H12.594C11.9007 35.3174 11.2183 35.1391 10.6163 34.7952C10.0143 34.4513 9.51416 33.954 9.16685 33.3539C8.81537 32.7602 8.62992 32.0829 8.62992 31.3929C8.62992 30.7029 8.81537 30.0257 9.16685 29.4319L11.3838 25.6317Z"/>
</mask>
<path d="M24.5157 6.00013C22.6472 6.00013 20.9745 6.95596 20.0402 8.5593L17.6969 12.58H12.6341C11.7377 12.5727 10.8555 12.8033 10.0774 13.2483C9.29929 13.6933 8.65313 14.3367 8.20485 15.1129C7.75126 15.8797 7.51195 16.7542 7.51195 17.6451C7.51195 18.536 7.75126 19.4105 8.20485 20.1773L10.7363 24.5233L8.19868 28.8785C7.74833 29.6396 7.51074 30.5078 7.51074 31.3922C7.51074 32.2765 7.74833 33.1447 8.19868 33.9058C8.6438 34.6759 9.28505 35.3143 10.0571 35.756C10.8292 36.1977 11.7045 36.4269 12.594 36.4203H17.1033L18.4369 37.74L20.014 40.441C20.4668 41.2247 21.1193 41.8744 21.9049 42.324C22.6905 42.7735 23.5813 43.0068 24.4864 43.0001C26.3533 43.0001 28.0261 42.0443 28.9603 40.441L30.2183 38.2826L32.0991 36.4203H36.3696C37.2651 36.4267 38.1464 36.1957 38.9236 35.7508C39.7008 35.3058 40.3462 34.6629 40.7941 33.8873C41.7191 32.3025 41.7191 30.4093 40.7941 28.823L38.2627 24.4755L40.8003 20.1218C41.2506 19.3607 41.4882 18.4925 41.4882 17.6081C41.4882 16.7237 41.2506 15.8556 40.8003 15.0944C40.3552 14.3243 39.7139 13.6859 38.9419 13.2443C38.1698 12.8026 37.2945 12.5734 36.405 12.58H31.3298L28.9865 8.5593C28.5338 7.77578 27.8816 7.1262 27.0963 6.67667C26.311 6.22714 25.4205 5.9937 24.5157 6.00013ZM24.5157 7.10859C25.9772 7.10859 27.2876 7.85784 28.0199 9.11275L30.0395 12.58H18.9888L21.0084 9.1143C21.3634 8.49967 21.8751 7.99021 22.4912 7.63785C23.1073 7.2855 23.8059 7.10287 24.5157 7.10859ZM25.0244 13.6838V25.6163H26.5075L35.6095 22.2647L35.6311 22.1768L36.9723 24.477L34.9219 27.9951L35.1856 23.1034L32.8576 23.9405L30.5297 26.2438L28.6227 25.8275L30.1058 27.9195V34.413L32.3443 32.415L31.2528 34.2897L30.1058 35.2502V36.2584L29.4706 37.3499V28.3389L27.7778 25.826L26.7187 26.4534H22.4853L21.4262 25.826L19.7334 28.3389V37.7446L19.0983 36.6562V35.2502L17.5011 33.9135L16.3772 31.9865L19.0983 34.413V27.9195L20.5798 25.826L18.6743 26.2438L16.3464 23.9405L14.0169 23.1034L14.3068 28.4298L12.0297 24.5233L13.482 22.0304L13.6701 21.7097L13.8057 22.2647L22.9077 25.6163H24.1781V13.6853L25.0244 13.6838ZM27.3554 13.6838H27.9906L29.4706 17.0292L32.4537 16.7209L32.8191 17.3468L29.0389 17.6428L27.3554 13.6838ZM21.2119 13.6853H21.8471L20.1636 17.6428L16.2231 17.3268L16.3341 17.1356L16.3356 17.1371L16.5869 16.7055L19.7319 17.0292L21.2119 13.6853ZM12.6325 13.6869H17.0525L14.9897 17.2265L12.5354 17.0308L13.2908 20.1418L11.3838 23.4163L9.17455 19.6238C8.81996 19.0247 8.63288 18.3413 8.63288 17.6451C8.63288 16.9489 8.81996 16.2655 9.17455 15.6664C9.5245 15.0602 10.0289 14.5576 10.6364 14.2099C11.2438 13.8622 11.9326 13.6817 12.6325 13.6869ZM31.9758 13.6869H36.405C37.8357 13.6869 39.1168 14.4207 39.8321 15.6479C40.1833 16.2414 40.3686 16.9184 40.3686 17.6081C40.3686 18.2978 40.1833 18.9748 39.8321 19.5683L37.6168 23.3701L36.0103 20.612L36.8783 17.0308L34.0524 17.2512L31.9758 13.6869ZM37.6168 25.5855L39.826 29.378C40.1803 29.9769 40.3672 30.66 40.3672 31.3559C40.3672 32.0518 40.1803 32.7349 39.826 33.3339C39.4759 33.9399 38.9715 34.4422 38.364 34.7897C37.7566 35.1372 37.0678 35.3173 36.368 35.3118H32.8576V33.7501L37.6168 25.5855ZM11.3838 25.6317L16.3479 34.1494V35.3118H12.594C11.9007 35.3174 11.2183 35.1391 10.6163 34.7952C10.0143 34.4513 9.51416 33.954 9.16685 33.3539C8.81537 32.7602 8.62992 32.0829 8.62992 31.3929C8.62992 30.7029 8.81537 30.0257 9.16685 29.4319L11.3838 25.6317Z" fill="#080D10" stroke="#080D10" stroke-width="2" mask="url(#path-1-inside-1_17129_19255)"/>
</g>
<defs>
<clipPath id="clip0_17129_19255">
<rect width="37" height="37" fill="white" transform="translate(6 6)"/>
</clipPath>
</defs>
</svg>
