<svg width="48" height="48" viewBox="0 0 48 48" fill="none" xmlns="http://www.w3.org/2000/svg">
<path fill-rule="evenodd" clip-rule="evenodd" d="M5 36.75V24V11.25V5H11.25H36.75H43V11.25V36.75V43H36.75H5V36.75ZM13.3315 25.615V24.0665L13.36 24.076V22.518L20.01 22.4895C23.6675 22.4895 26.679 22.499 26.679 22.5275C26.717 22.5465 26.717 23.24 26.717 24.095V25.615H21.777V39.675H18.2715V25.615H13.3315ZM37.908 23.8385C37.243 23.145 36.502 22.708 35.533 22.48L35.552 22.461C34.8965 22.29 33.329 22.233 32.664 22.366C30.612 22.746 29.1775 24.076 28.769 25.976C28.636 26.5175 28.6835 27.8665 28.826 28.4175C29.016 29.054 29.4245 29.8235 29.871 30.3175C30.65 31.1345 31.486 31.6665 33.4525 32.5025C35.1625 33.2625 35.7705 33.6045 36.0745 34.0225C36.293 34.355 36.3595 34.5545 36.3595 34.9915C36.3595 35.4665 36.2075 35.8085 35.856 36.1315C35.039 36.8725 33.386 36.958 32.151 36.3215C31.7425 36.0935 31.0395 35.4285 30.726 34.9345L30.479 34.602L29.4055 35.229L27.9805 36.0555L27.6195 36.2835C27.5815 36.35 28.256 37.3665 28.6075 37.7465C29.5005 38.725 30.954 39.485 32.474 39.77C33.1865 39.8935 34.7065 39.9125 35.3715 39.7985C37.49 39.447 38.972 38.3735 39.58 36.787C40.1215 35.3335 39.941 33.3955 39.1335 32.1605C38.421 31.0585 37.243 30.289 34.526 29.1205C33.0535 28.4745 32.5785 28.161 32.322 27.6385C32.208 27.3915 32.151 27.2205 32.151 26.9165C32.151 25.919 32.911 25.3205 34.051 25.3965C34.8395 25.4535 35.343 25.7575 35.837 26.4605C35.989 26.7075 36.141 26.869 36.179 26.8405C37.1765 26.223 38.82 25.1115 38.82 25.0545C38.782 24.8835 38.2595 24.2185 37.908 23.8385Z" fill="#080D10"/>
</svg>
