<svg width="48" height="48" viewBox="0 0 48 48" fill="none" xmlns="http://www.w3.org/2000/svg">
<path d="M45 24.0043C45 21.1776 41.5157 18.4987 36.1737 16.8375C37.4064 11.3058 36.8585 6.90478 34.4444 5.49577C33.8879 5.16525 33.2373 5.0087 32.5267 5.0087V6.94827C32.9205 6.94827 33.2373 7.02655 33.5026 7.17441C34.6669 7.85283 35.172 10.436 34.7782 13.7585C34.6841 14.5761 34.53 15.4372 34.3416 16.3156C32.6637 15.8981 30.8316 15.5763 28.9054 15.3676C27.7497 13.7585 26.5512 12.2973 25.3441 11.0188C28.1349 8.38338 30.7546 6.93957 32.5353 6.93957V5C30.181 5 27.0991 6.70474 23.9829 9.66194C20.8667 6.72213 17.7848 5.03479 15.4305 5.03479V6.97436C17.2026 6.97436 19.8308 8.40948 22.6217 11.0275C21.4232 12.306 20.2246 13.7585 19.086 15.3676C17.1512 15.5763 15.3192 15.8981 13.6413 16.3243C13.4444 15.4546 13.2988 14.6109 13.1961 13.802C12.7937 10.4795 13.2903 7.89632 14.446 7.2092C14.7028 7.05264 15.0367 6.98306 15.4305 6.98306V5.04349C14.7114 5.04349 14.0607 5.20005 13.4957 5.53056C11.0901 6.93957 10.5508 11.3319 11.7921 16.8462C6.46718 18.5161 3 21.1863 3 24.0043C3 26.8311 6.4843 29.51 11.8263 31.1712C10.5936 36.7029 11.1415 41.1039 13.5556 42.5129C14.1121 42.8434 14.7627 43 15.4819 43C17.8361 43 20.9181 41.2953 24.0342 38.3381C27.1504 41.2779 30.2324 42.9652 32.5866 42.9652C33.3057 42.9652 33.9564 42.8087 34.5214 42.4781C36.927 41.0691 37.4664 36.6768 36.225 31.1625C41.5328 29.5013 45 26.8224 45 24.0043ZM33.8536 18.203C33.5369 19.325 33.1431 20.4818 32.6979 21.6386C32.3469 20.9428 31.9788 20.247 31.5764 19.5512C31.1826 18.8553 30.7631 18.1769 30.3437 17.5159C31.5593 17.6986 32.7322 17.9247 33.8536 18.203ZM29.9327 27.466C29.265 28.6402 28.5801 29.7535 27.8695 30.7885C26.594 30.9016 25.3013 30.9625 24 30.9625C22.7073 30.9625 21.4146 30.9016 20.1476 30.7972C19.437 29.7622 18.7436 28.6576 18.0758 27.4921C17.4252 26.3527 16.8345 25.1959 16.2951 24.0304C16.8259 22.865 17.4252 21.6995 18.0673 20.5601C18.735 19.3859 19.4199 18.2726 20.1305 17.2376C21.406 17.1245 22.6987 17.0636 24 17.0636C25.2927 17.0636 26.5854 17.1245 27.8524 17.2289C28.563 18.2639 29.2564 19.3685 29.9242 20.534C30.5748 21.6734 31.1655 22.8302 31.7049 23.9956C31.1655 25.1611 30.5748 26.3266 29.9327 27.466ZM32.6979 26.3353C33.1602 27.5008 33.554 28.6663 33.8793 29.797C32.7578 30.0753 31.5764 30.3101 30.3522 30.4928C30.7717 29.8231 31.1912 29.136 31.585 28.4314C31.9788 27.7356 32.3469 27.0311 32.6979 26.3353ZM24.0171 35.6157C23.221 34.7807 22.4248 33.8501 21.6372 32.8325C22.4077 32.8672 23.1953 32.8933 23.9914 32.8933C24.7962 32.8933 25.5923 32.8759 26.3714 32.8325C25.6009 33.8501 24.8047 34.7807 24.0171 35.6157ZM17.6478 30.4928C16.4321 30.3101 15.2593 30.084 14.1378 29.8057C14.4545 28.6837 14.8483 27.5269 15.2935 26.3701C15.6445 27.0659 16.0126 27.7617 16.415 28.4575C16.8174 29.1534 17.2283 29.8318 17.6478 30.4928ZM23.9743 12.393C24.7705 13.228 25.5667 14.1586 26.3543 15.1762C25.5838 15.1415 24.7962 15.1154 24 15.1154C23.1953 15.1154 22.3991 15.1328 21.6201 15.1762C22.3905 14.1586 23.1867 13.228 23.9743 12.393ZM17.6392 17.5159C17.2197 18.1856 16.8002 18.8727 16.4064 19.5772C16.0126 20.2731 15.6445 20.9689 15.2935 21.6647C14.8312 20.4992 14.4374 19.3337 14.1121 18.203C15.2336 17.9334 16.415 17.6986 17.6392 17.5159ZM9.89156 28.4054C6.86099 27.092 4.90053 25.3699 4.90053 24.0043C4.90053 22.6388 6.86099 20.908 9.89156 19.6033C10.6278 19.2815 11.4325 18.9945 12.2629 18.7249C12.7509 20.4296 13.393 22.2039 14.1892 24.0217C13.4015 25.8309 12.768 27.5965 12.2886 29.2925C11.4411 29.0229 10.6364 28.7272 9.89156 28.4054ZM14.4974 40.8343C13.3331 40.1559 12.828 37.5727 13.2218 34.2502C13.3159 33.4326 13.47 32.5715 13.6584 31.6931C15.3363 32.1105 17.1684 32.4324 19.0946 32.6411C20.2503 34.2502 21.4488 35.7114 22.6559 36.9899C19.8651 39.6253 17.2454 41.0691 15.4647 41.0691C15.0795 41.0604 14.7542 40.9821 14.4974 40.8343ZM34.8039 34.2067C35.2063 37.5292 34.7097 40.1124 33.554 40.7995C33.2972 40.9561 32.9633 41.0256 32.5695 41.0256C30.7974 41.0256 28.1692 39.5905 25.3783 36.9725C26.5768 35.694 27.7754 34.2415 28.914 32.6324C30.8488 32.4237 32.6808 32.1019 34.3587 31.6757C34.5556 32.5541 34.7097 33.3978 34.8039 34.2067ZM38.0999 28.4054C37.3636 28.7272 36.5589 29.0142 35.7285 29.2838C35.2405 27.5791 34.5984 25.8048 33.8023 23.987C34.5899 22.1778 35.2234 20.4122 35.7028 18.7162C36.5503 18.9858 37.3551 19.2815 38.1084 19.6033C41.139 20.9167 43.0995 22.6388 43.0995 24.0043C43.0909 25.3699 41.1305 27.1007 38.0999 28.4054Z" fill="#080D10"/>
<path d="M23.9914 27.9792C26.1522 27.9792 27.9038 26.1996 27.9038 24.0044C27.9038 21.8091 26.1522 20.0295 23.9914 20.0295C21.8307 20.0295 20.0791 21.8091 20.0791 24.0044C20.0791 26.1996 21.8307 27.9792 23.9914 27.9792Z" fill="#080D10"/>
</svg>
