<svg width="48" height="48" viewBox="0 0 48 48" fill="none" xmlns="http://www.w3.org/2000/svg">
<path d="M22.8204 40.488C20.2495 40.3641 17.8091 39.2882 15.9807 37.4598C14.034 35.5131 12.9404 32.8729 12.9404 30.12C12.9404 27.3671 14.034 24.7269 15.9807 22.7802C17.8091 20.9518 20.2495 19.8759 22.8204 19.752V40.488ZM22.8204 7.5V17.38H12.9404V7.5H22.8204ZM30.1204 17.38C28.8103 17.38 27.5538 16.8595 26.6273 15.9331C25.7009 15.0067 25.1804 13.7502 25.1804 12.44C25.1804 11.1298 25.7009 9.87332 26.6273 8.94689C27.5538 8.02046 28.8103 7.5 30.1204 7.5C31.4306 7.5 32.6871 8.02046 33.6135 8.94689C34.54 9.87332 35.0604 11.1298 35.0604 12.44C35.0604 13.7502 34.54 15.0067 33.6135 15.9331C32.6871 16.8595 31.4306 17.38 30.1204 17.38Z" fill="#080D10" stroke="#080D10"/>
</svg>
