<svg width="48" height="48" viewBox="0 0 48 48" fill="none" xmlns="http://www.w3.org/2000/svg">
<path d="M13.8791 15.773L16.9405 10.571L16.947 10.5598L16.953 10.5483C17.0441 10.3733 17.1458 10.2041 17.2575 10.0416C17.9645 9.06814 18.9761 8.35832 20.1321 8.02454L20.9312 7.8036C25.3843 6.79627 30.5443 8.45503 34.6613 10.4332C36.7085 11.4169 38.4712 12.4665 39.7222 13.2705C40.3474 13.6722 40.8439 14.012 41.1832 14.2508C41.239 14.29 41.2905 14.3265 41.3376 14.36L37.6929 20.4345L27.515 18.4452L27.4106 18.4248L27.307 18.4487C25.9341 18.7645 24.5101 18.7874 23.1278 18.5158C21.7455 18.2442 20.436 17.6842 19.2847 16.8725L19.1973 16.8108L19.0923 16.7904L13.8791 15.773Z" fill="#76B3E1" stroke="#080D10"/>
<path d="M42.0018 14.2249C42.0018 14.2249 30.0687 5.21414 20.8093 7.31856L19.9962 7.54335C18.7301 7.90826 17.6223 8.68605 16.8491 9.753C16.7244 9.93396 16.611 10.1224 16.5095 10.3174L13.0898 16.1284L18.9966 17.2811C20.2053 18.1334 21.5802 18.7213 23.0314 19.0064C24.4827 19.2915 25.9777 19.2675 27.4191 18.9359L37.9412 20.9925L42.0018 14.2249Z" fill="#080D10"/>
<path d="M16.7423 14.1101L15.9245 14.3396C12.1461 15.5592 10.8547 19.0937 13.0261 22.193C14.2798 23.7692 15.976 24.9347 17.8969 25.5398C19.8179 26.1449 21.8758 26.1619 23.8065 25.5887L37.9253 20.9925C37.9253 20.9925 26.0162 12.0056 16.7423 14.1101Z" fill="#525658"/>
<path d="M35.3424 24.302C34.0907 22.7174 32.3925 21.5445 30.4674 20.9349C28.5422 20.3253 26.4785 20.307 24.5428 20.8823L10.4384 25.4547L6 33.3558L31.2674 37.6603L35.7967 29.6013C36.7007 28.0565 36.6098 26.1099 35.3424 24.302Z" fill="#080D10"/>
<path d="M30.9039 32.2031C29.6528 30.6246 27.9586 29.4557 26.0387 28.8465C24.1189 28.2372 22.0608 28.2152 20.1283 28.7834L6 33.3557C6 33.3557 17.957 42.3665 27.1925 40.2621L28.0056 40.0373C31.7888 38.8368 33.0801 35.3023 30.9039 32.2031Z" fill="#525658"/>
</svg>
