<svg width="48" height="48" viewBox="0 0 48 48" fill="none" xmlns="http://www.w3.org/2000/svg">
<g clip-path="url(#clip0_17023_24303)">
<path fill-rule="evenodd" clip-rule="evenodd" d="M42.9584 15.4563C42.9581 14.7017 42.8775 13.9494 42.718 13.2119C42.4211 11.696 41.6326 10.3067 40.4617 9.23376C39.8615 8.67266 39.1692 8.21914 38.4151 7.89307C37.677 7.53682 36.8891 7.29932 36.0757 7.1687C35.5357 7.06898 34.9576 7.03625 34.3927 7.00427C34.1167 6.98864 33.8439 6.97319 33.5802 6.9502H13.7192C13.1006 6.96083 12.4832 7.01061 11.8709 7.09923C11.2611 7.16691 10.6638 7.31298 10.0896 7.53623L9.52556 7.75473C8.98755 8.02411 8.474 8.33979 7.99072 8.6982C7.9075 8.777 7.82144 8.83371 7.73547 8.89037C7.6595 8.94043 7.58359 8.99045 7.50978 9.05563C6.91369 9.56408 6.41478 10.1765 6.03728 10.863C5.64719 11.5446 5.37406 12.2797 5.24047 13.0433C5.12092 13.7832 5.04065 14.5291 5 15.2775V32.5871C5.0003 33.3417 5.08091 34.094 5.24047 34.8315C5.53734 36.3474 6.32584 37.7367 7.49672 38.8096C8.09053 39.3535 8.77181 39.7933 9.51191 40.1105C10.2499 40.4668 11.0378 40.7043 11.8513 40.8349C12.3913 40.9346 12.9694 40.9674 13.5342 40.9993C13.8103 41.015 14.0831 41.0304 14.3468 41.0534H33.6235C34.4601 41.0525 35.295 40.9794 36.119 40.8349C36.917 40.7043 37.6913 40.4626 38.4168 40.12C39.1679 39.7816 39.8702 39.344 40.5051 38.8191C41.0938 38.309 41.5856 37.6967 41.9568 37.0118C42.3546 36.3361 42.6265 35.6004 42.7607 34.8369C42.8806 34.0935 42.9609 33.3443 43.0012 32.5925V15.4628L42.9584 15.4563ZM17.6758 33.4707C22.3433 35.2674 26.9906 35.0893 30.3738 33.3318L30.3744 33.3306C32.0137 32.6953 35.2823 31.7631 37.0469 34.7912C37.4542 35.5156 38.3413 31.683 35.1149 28.0581L35.0626 27.9987C35.0767 27.9596 35.0927 27.9204 35.1088 27.8812C35.154 27.7712 35.1992 27.6611 35.1992 27.5516C36.8082 21.9704 32.9441 15.3067 26.4176 11.762C29.2367 15.2379 30.5216 19.438 29.3935 23.1324C29.2911 23.4704 29.169 23.802 29.0277 24.1257L28.5052 23.8478C23.6205 20.9842 19.0706 17.6354 14.9315 13.8574C17.4134 17.1438 20.1613 20.242 23.149 23.1229C19.0468 20.7657 15.1435 18.1098 11.4741 15.1785C11.9412 15.8934 12.48 16.5589 13.082 17.1646C16.5762 21.3612 20.6107 25.1244 25.0906 28.3663C21.6967 30.2627 16.8618 30.3524 12.0376 28.3663C10.8602 27.9043 9.74868 27.3035 8.72743 26.5791C10.9166 29.6767 14.0344 32.0772 17.6758 33.4707Z" fill="#080D10"/>
</g>
<defs>
<clipPath id="clip0_17023_24303">
<rect width="38" height="38" fill="white" transform="translate(5 5)"/>
</clipPath>
</defs>
</svg>
