<svg width="48" height="48" viewBox="0 0 48 48" fill="none" xmlns="http://www.w3.org/2000/svg">
<g clip-path="url(#clip0_16960_12063)">
<path d="M31.0749 36.5H19.7095L24.8989 26.4541L25.2757 25.7246H24.4546H24.2046H23.9586L23.8085 25.9195C19.3959 31.6475 12.8466 35.475 3.5 36.4488V26.8293C3.66482 26.8109 3.86901 26.7854 4.10613 26.7503C4.76565 26.653 5.68289 26.4821 6.71811 26.1876C8.77908 25.6013 11.3552 24.5113 13.2783 22.4896L14.0817 21.645H12.9161H3.5V11.5006H13.6444V20.1665V20.6687L14.1465 20.6665L14.3965 20.6655L14.7049 20.6642L14.8422 20.388L19.2584 11.5006H26.877V20.1087V20.6096L27.378 20.6087L27.628 20.6082L27.9312 20.6076L28.0708 20.3384L32.6558 11.5H43.8631L31.0749 36.5Z" fill="#080D10" stroke="#080D10"/>
</g>
<defs>
<clipPath id="clip0_16960_12063">
<rect width="41.6805" height="26" fill="white" transform="translate(3 11)"/>
</clipPath>
</defs>
</svg>
