<svg width="48" height="48" viewBox="0 0 48 48" fill="none" xmlns="http://www.w3.org/2000/svg">
<g clip-path="url(#clip0_16960_12071)">
<path d="M15.9673 37.6071C11.3182 34.8559 8.20068 29.7916 8.20068 23.9996C8.20068 22.1651 8.51567 20.4055 9.09135 18.7683L15.9673 37.6071Z" fill="#080D10" stroke="#080D10"/>
<path d="M35.0043 23.177C35.0043 21.1626 34.2807 19.7675 33.6601 18.6817C32.8338 17.3391 32.0594 16.2021 32.0594 14.8595C32.0594 13.3612 33.1958 11.9664 34.7965 11.9664C34.8688 11.9664 34.9373 11.9754 35.0077 11.9795C32.1078 9.32275 28.2442 7.70068 24.0007 7.70068C18.3063 7.70068 13.2963 10.6223 10.3818 15.0474C10.7643 15.0589 11.1247 15.067 11.4308 15.067C13.1357 15.067 15.7748 14.8601 15.7748 14.8601C16.6534 14.8083 16.757 16.0988 15.8793 16.2027C15.8793 16.2027 14.9963 16.3066 14.0137 16.3581L19.9494 34.0131L23.5165 23.3153L20.977 16.3575C20.0993 16.306 19.2677 16.2021 19.2677 16.2021C18.3894 16.1506 18.4923 14.8077 19.3707 14.8595C19.3707 14.8595 22.0625 15.0663 23.6642 15.0663C25.3688 15.0663 28.0082 14.8595 28.0082 14.8595C28.8875 14.8077 28.9907 16.0982 28.1127 16.2021C28.1127 16.2021 27.2278 16.306 26.2471 16.3575L32.1375 33.8789L33.7634 28.446C34.468 26.1916 35.0043 24.5723 35.0043 23.177Z" fill="#080D10"/>
<path d="M24.2865 25.4253L19.396 39.6359C20.8562 40.0651 22.4005 40.2999 24.0005 40.2999C25.8987 40.2999 27.719 39.9718 29.4133 39.376C29.3696 39.3062 29.3299 39.2321 29.2973 39.1514L24.2865 25.4253Z" fill="#080D10"/>
<path d="M38.3028 16.1794C38.3729 16.6986 38.4126 17.256 38.4126 17.8555C38.4126 19.5095 38.1037 21.3688 37.1732 23.6937L32.1943 38.0885C37.0402 35.2627 40.2996 30.0129 40.2996 23.9998C40.2999 21.166 39.576 18.5012 38.3028 16.1794Z" fill="#080D10"/>
<path d="M24.0006 5C13.5239 5 5 13.5231 5 23.9995C5 34.4772 13.5239 43 24.0006 43C34.477 43 43.0022 34.4772 43.0022 23.9995C43.0019 13.5231 34.477 5 24.0006 5ZM24.0006 42.1291C14.0044 42.1291 5.87122 33.9962 5.87122 23.9995C5.87122 14.0035 14.0041 5.8712 24.0006 5.8712C33.9966 5.8712 42.1291 14.0035 42.1291 23.9995C42.1291 33.9962 33.9966 42.1291 24.0006 42.1291Z" fill="#080D10"/>
</g>
<defs>
<clipPath id="clip0_16960_12071">
<rect width="38" height="38" fill="white" transform="translate(5 5)"/>
</clipPath>
</defs>
</svg>
