<svg xmlns="http://www.w3.org/2000/svg" width="22" height="22" viewBox="0 0 13 22" fill="none">
  <path d="M10.2264 9.01858C9.82538 9.2545 9.22712 9.60644 8.70843 10.053L8.79169 10.2542C9.476 10.2046 10.1494 10.0319 10.6006 9.91617C10.7423 9.87981 10.8622 9.84908 10.9535 9.82956C11.3871 9.73699 12.457 9.70105 12.9377 9.6947V12.4949C12.457 12.4886 11.3871 12.4527 10.9535 12.36C10.862 12.3405 10.742 12.3097 10.6 12.2733C10.149 12.1576 9.47602 11.9851 8.79219 11.9355L8.70819 12.1367C9.22716 12.5836 9.82584 12.9357 10.227 13.1716C10.353 13.2457 10.4596 13.3084 10.538 13.3589C10.9103 13.5989 11.6923 14.3271 12.0368 14.6612L10.0491 16.6412C9.71355 16.2982 8.98257 15.5192 8.74173 15.1482C8.69092 15.07 8.6279 14.9637 8.55333 14.8379C8.3165 14.4385 7.9632 13.8425 7.51488 13.3259L7.31273 13.4089C7.36243 14.0902 7.53568 14.7607 7.65181 15.21C7.68837 15.3515 7.71927 15.4711 7.73887 15.5622C7.8319 15.9941 7.86797 17.0598 7.87426 17.5387H5.06319C5.06957 17.0598 5.10565 15.9941 5.19858 15.5622C5.21817 15.4712 5.24903 15.3519 5.28553 15.2106C5.40169 14.7613 5.57507 14.0906 5.62481 13.4091L5.42315 13.3255C4.97469 13.8423 4.62129 14.4384 4.38441 14.8379C4.30986 14.9636 4.24678 15.07 4.19599 15.1482C3.95515 15.5192 3.22417 16.2982 2.88866 16.6412L0.90094 14.6612C1.2454 14.3271 2.02741 13.5989 2.39974 13.3589C2.47817 13.3084 2.58471 13.2457 2.71076 13.1716C3.1118 12.9357 3.71032 12.5837 4.22922 12.1369L4.14601 11.9359C3.46202 11.9854 2.7889 12.158 2.33774 12.2737C2.19584 12.3101 2.07562 12.3409 1.98423 12.3604C1.5506 12.4531 0.480756 12.4891 0 12.4953V9.69513C0.480756 9.70149 1.5506 9.73743 1.98423 9.83C2.07552 9.84951 2.1953 9.88023 2.337 9.91657C2.78804 10.0323 3.46134 10.205 4.14544 10.2546L4.22953 10.0532C3.71078 9.60654 3.11241 9.25453 2.71132 9.01858C2.58504 8.9443 2.47832 8.88151 2.3998 8.8309C2.02739 8.59099 1.24538 7.86284 0.900995 7.52863L2.88872 5.54861C3.22415 5.89173 3.95514 6.67071 4.19605 7.0416C4.24677 7.11973 4.30968 7.22585 4.3841 7.35142C4.6209 7.75091 4.97431 8.34714 5.42282 8.86403L5.62482 8.78106C5.5751 8.09944 5.4017 7.42868 5.28553 6.97928C5.24904 6.83813 5.21817 6.71869 5.19858 6.62775C5.10565 6.19579 5.06957 5.13009 5.06319 4.6512H7.87426C7.86797 5.13009 7.8319 6.19579 7.73887 6.62775C7.71928 6.71878 7.68841 6.83825 7.65189 6.9796C7.53579 7.42887 7.36252 8.09938 7.31277 8.7805L7.51474 8.86421C7.96333 8.34727 8.31679 7.75096 8.55362 7.35142C8.62804 7.22586 8.69095 7.11973 8.74167 7.0416C8.98259 6.67071 9.71357 5.89173 10.049 5.54861L12.0367 7.52863C11.6923 7.86284 10.9103 8.59099 10.5379 8.8309C10.4594 8.88149 10.3526 8.94433 10.2264 9.01858Z" fill="#FF7A00"></path>
</svg>