<svg width="140" height="100" viewBox="0 0 140 100" fill="none" xmlns="http://www.w3.org/2000/svg">
<g clip-path="url(#clip0_20224_7132)">
<mask id="mask0_20224_7132" style="mask-type:luminance" maskUnits="userSpaceOnUse" x="11" y="41" width="117" height="19">
<path d="M128 41.3342H11.9998V59.6652H128V41.3342Z" fill="white"/>
</mask>
<g mask="url(#mask0_20224_7132)">
<path d="M46.7077 56.7368C46.8351 56.5846 46.9625 56.4059 47.0899 56.2561C47.3439 55.926 47.6243 55.7217 47.98 56.0277C48.1587 56.18 50.0167 57.9619 52.2826 57.9619C54.3441 57.9619 55.6941 56.6639 55.6941 55.1616C55.6941 53.4045 54.1662 52.3574 51.2386 51.1387C48.4391 49.9169 46.7582 48.7711 46.7582 45.8691C46.7582 44.1385 48.1339 41.3342 52.1816 41.3342C53.7252 41.3552 55.2326 41.8048 56.5354 42.633C56.6088 42.6741 56.6721 42.731 56.7207 42.7996C56.7694 42.8682 56.8022 42.9467 56.8167 43.0296C56.8313 43.1124 56.8273 43.1974 56.805 43.2785C56.7826 43.3595 56.7426 43.4346 56.6876 43.4983C56.5851 43.6505 56.4841 43.8284 56.3824 43.979C56.348 44.0614 56.295 44.1347 56.2275 44.1931C56.1601 44.2515 56.08 44.2934 55.9936 44.3156C55.9071 44.3378 55.8167 44.3397 55.7294 44.3211C55.6422 44.3024 55.5604 44.2638 55.4906 44.2082C54.4953 43.5434 53.3484 43.1405 52.156 43.0368C49.4567 43.0368 48.6426 44.7682 48.6426 45.8411C48.6426 47.5477 49.9406 48.5404 52.0798 49.4305C55.5163 50.831 57.7316 52.1298 57.7316 55.0823C57.7316 57.7303 55.211 59.6652 52.2321 59.6652C50.254 59.64 48.3501 58.9085 46.8639 57.6029C46.7895 57.5627 46.7251 57.5063 46.6755 57.4377C46.626 57.3691 46.5926 57.2902 46.5779 57.2069C46.5632 57.1236 46.5675 57.038 46.5905 56.9566C46.6136 56.8752 46.6547 56.8 46.7109 56.7368" fill="#080D10"/>
<path d="M66.8719 43.2922H62.442C62.3785 43.2928 62.3156 43.2807 62.2568 43.2568C62.198 43.2329 62.1445 43.1976 62.0995 43.1529C62.0544 43.1082 62.0186 43.055 61.9942 42.9964C61.9698 42.9378 61.9572 42.875 61.9572 42.8115V42.0728C61.9572 42.0093 61.9698 41.9465 61.9942 41.8879C62.0186 41.8293 62.0544 41.7761 62.0995 41.7314C62.1445 41.6867 62.198 41.6514 62.2568 41.6275C62.3156 41.6036 62.3785 41.5915 62.442 41.5921H73.2368C73.3643 41.5921 73.4865 41.6427 73.5767 41.7329C73.6668 41.823 73.7175 41.9453 73.7175 42.0728V42.8115C73.7175 42.939 73.6668 43.0613 73.5767 43.1514C73.4865 43.2416 73.3643 43.2922 73.2368 43.2922H68.8068V58.924C68.8015 59.0497 68.7492 59.169 68.6601 59.258C68.5711 59.347 68.4519 59.3994 68.3261 59.4047H67.359C67.2332 59.3996 67.1139 59.3473 67.0248 59.2582C66.9357 59.1691 66.8834 59.0498 66.8783 58.924L66.8719 43.2922Z" fill="#080D10"/>
<path d="M79.2194 42.0728C79.2244 41.9469 79.2766 41.8274 79.3657 41.7383C79.4548 41.6492 79.5743 41.597 79.7002 41.592H80.668C80.7955 41.592 80.9178 41.6427 81.008 41.7328C81.0981 41.823 81.1488 41.9453 81.1488 42.0728V52.6889C81.1488 55.5925 82.9571 57.8575 85.9368 57.8575C88.9398 57.8575 90.773 55.6438 90.773 52.7402V42.0728C90.773 41.9453 90.8236 41.823 90.9138 41.7328C91.0039 41.6427 91.1262 41.592 91.2537 41.592H92.2216C92.3474 41.5972 92.4667 41.6495 92.5558 41.7385C92.6449 41.8276 92.6972 41.9469 92.7023 42.0728V52.8427C92.712 53.7349 92.5447 54.6201 92.21 55.4472C91.8753 56.2743 91.3799 57.0267 90.7525 57.661C90.125 58.2954 89.378 58.7989 88.5546 59.1426C87.7312 59.4863 86.8479 59.6633 85.9557 59.6633C85.0634 59.6633 84.1801 59.4863 83.3567 59.1426C82.5333 58.7989 81.7863 58.2954 81.1589 57.661C80.5314 57.0267 80.036 56.2743 79.7013 55.4472C79.3666 54.6201 79.1993 53.7349 79.209 52.8427L79.2194 42.0728Z" fill="#080D10"/>
<path d="M99.9693 42.0728C99.9693 41.9453 100.02 41.823 100.11 41.7328C100.2 41.6427 100.323 41.592 100.45 41.592H110.481C110.609 41.592 110.731 41.6427 110.821 41.7328C110.911 41.823 110.962 41.9453 110.962 42.0728V42.8123C110.962 42.9398 110.911 43.0621 110.821 43.1522C110.731 43.2424 110.609 43.293 110.481 43.293H101.93V50.2684H109.236C109.362 50.2733 109.481 50.3256 109.571 50.4147C109.66 50.5038 109.712 50.6232 109.717 50.7491V51.4879C109.712 51.6138 109.66 51.7332 109.571 51.8223C109.481 51.9114 109.362 51.9636 109.236 51.9686H101.93V58.9191C101.925 59.0449 101.872 59.1641 101.783 59.2532C101.694 59.3422 101.575 59.3946 101.449 59.3999H100.456C100.329 59.3999 100.207 59.3492 100.116 59.2591C100.026 59.1689 99.9757 59.0466 99.9757 58.9191L99.9693 42.0728Z" fill="#080D10"/>
<path d="M117.001 42.0728C117.001 41.9453 117.051 41.823 117.142 41.7328C117.232 41.6427 117.354 41.592 117.481 41.592H127.513C127.64 41.592 127.762 41.6427 127.853 41.7328C127.943 41.823 127.993 41.9453 127.993 42.0728V42.8123C127.993 42.9398 127.943 43.0621 127.853 43.1522C127.762 43.2424 127.64 43.293 127.513 43.293H118.96V50.2684H126.268C126.394 50.2733 126.514 50.3256 126.603 50.4147C126.692 50.5038 126.744 50.6232 126.749 50.7491V51.4879C126.744 51.6138 126.692 51.7332 126.603 51.8223C126.514 51.9114 126.394 51.9636 126.268 51.9686H118.96V58.9191C118.956 59.045 118.903 59.1645 118.814 59.2536C118.725 59.3427 118.606 59.3949 118.48 59.3999H117.488C117.36 59.3999 117.238 59.3492 117.148 59.2591C117.058 59.1689 117.007 59.0466 117.007 58.9191L117.001 42.0728Z" fill="#080D10"/>
<path d="M11.9998 42.0882C11.9997 41.9643 12.0473 41.8452 12.1329 41.7556C12.2184 41.6661 12.3352 41.613 12.4589 41.6074H18.1612C20.5245 41.6074 22.7911 42.5463 24.4623 44.2174C26.1334 45.8886 27.0723 48.1552 27.0723 50.5185C27.0723 52.8819 26.1334 55.1485 24.4623 56.8197C22.7911 58.4908 20.5245 59.4297 18.1612 59.4297H12.4589C12.3352 59.4241 12.2184 59.371 12.1329 59.2814C12.0473 59.1919 11.9997 59.0728 11.9998 58.9489V42.0882ZM17.7541 57.6694C18.7085 57.7076 19.6604 57.5481 20.5502 57.2011C21.44 56.8541 22.2485 56.327 22.925 55.6528C23.6015 54.9786 24.1314 54.1719 24.4815 53.2833C24.8316 52.3947 24.9943 51.4433 24.9595 50.4889C24.9913 49.5365 24.8264 48.5878 24.4748 47.7021C24.1233 46.8164 23.5928 46.0127 22.9165 45.3414C22.2403 44.6701 21.4327 44.1455 20.5444 43.8005C19.6562 43.4555 18.7063 43.2976 17.7541 43.3364H13.9347V57.6702L17.7541 57.6694Z" fill="#080D10"/>
<path d="M36.0579 49.8886C35.2656 49.8886 34.491 49.6537 33.8322 49.2135C33.1734 48.7733 32.66 48.1476 32.3568 47.4156C32.0535 46.6836 31.9742 45.8781 32.1288 45.101C32.2834 44.3239 32.6649 43.6101 33.2252 43.0498C33.7854 42.4896 34.4992 42.108 35.2763 41.9534C36.0534 41.7989 36.8589 41.8782 37.5909 42.1814C38.323 42.4846 38.9486 42.9981 39.3888 43.6569C39.829 44.3157 40.064 45.0902 40.064 45.8825C40.0625 46.9446 39.6399 47.9627 38.889 48.7136C38.138 49.4646 37.1199 49.8871 36.0579 49.8886ZM36.0579 43.3988C35.5674 43.3988 35.0879 43.5442 34.6801 43.8167C34.2723 44.0893 33.9545 44.4766 33.7668 44.9298C33.5791 45.3829 33.5301 45.8816 33.6258 46.3626C33.7216 46.8437 33.9578 47.2855 34.3047 47.6323C34.6516 47.979 35.0935 48.2152 35.5746 48.3108C36.0557 48.4063 36.5543 48.3571 37.0074 48.1693C37.4605 47.9815 37.8477 47.6635 38.1201 47.2556C38.3925 46.8477 38.5378 46.3682 38.5376 45.8777C38.5357 45.2209 38.2738 44.5916 37.809 44.1275C37.3443 43.6634 36.7147 43.4022 36.0579 43.4012" fill="#080D10"/>
<path d="M37.7781 54.8642L36.6884 53.7745L38.6586 51.8043C38.8044 51.6661 38.9984 51.5902 39.1992 51.5928C39.4001 51.5955 39.592 51.6765 39.7341 51.8185C39.8761 51.9606 39.9571 52.1525 39.9598 52.3534C39.9624 52.5543 39.8865 52.7482 39.7483 52.894L37.7781 54.8642Z" fill="#080D10"/>
<path d="M34.3377 56.1255L35.4274 57.2151L33.4572 59.1853C33.3126 59.3298 33.1165 59.411 32.9121 59.4109C32.7077 59.4108 32.5116 59.3295 32.3671 59.1849C32.2226 59.0403 32.1415 58.8442 32.1416 58.6398C32.1417 58.4354 32.2229 58.2394 32.3675 58.0949L34.3377 56.1255Z" fill="#080D10"/>
<path d="M38.6587 59.1854C38.8033 59.3299 38.9994 59.411 39.2038 59.411C39.4082 59.4109 39.6042 59.3296 39.7487 59.185C39.8932 59.0404 39.9744 58.8443 39.9743 58.6399C39.9742 58.4355 39.8929 58.2394 39.7483 58.0949L33.4572 51.8038C33.3863 51.7291 33.3013 51.6694 33.207 51.6281C33.1127 51.5869 33.0111 51.5649 32.9082 51.5635C32.8052 51.5622 32.7031 51.5815 32.6077 51.6202C32.5124 51.659 32.4257 51.7164 32.353 51.7892C32.2802 51.862 32.2227 51.9486 32.184 52.044C32.1452 52.1393 32.1259 52.2415 32.1273 52.3444C32.1286 52.4473 32.1506 52.5489 32.1919 52.6432C32.2331 52.7375 32.2929 52.8226 32.3675 52.8935L38.6587 59.1854Z" fill="#080D10" fill-opacity="0.7"/>
</g>
</g>
<defs>
<clipPath id="clip0_20224_7132">
<rect width="116" height="18.331" fill="white" transform="translate(11.9998 41.3342)"/>
</clipPath>
</defs>
</svg>
