<svg width="48" height="48" viewBox="0 0 48 48" fill="none" xmlns="http://www.w3.org/2000/svg">
<path d="M10 32V40M12 8V16M14 36H6M16 12H8M26 8L29.5056 16.8887C29.8814 17.8417 30.0694 18.3181 30.3572 18.7199C30.6122 19.076 30.924 19.3878 31.2802 19.6429C31.6818 19.9306 32.1584 20.1186 33.1112 20.4944L42 24L33.1112 27.5056C32.1584 27.8814 31.6818 28.0694 31.2802 28.3572C30.924 28.6122 30.6122 28.924 30.3572 29.2802C30.0694 29.6818 29.8814 30.1584 29.5056 31.1112L26 40L22.4944 31.1112C22.1186 30.1584 21.9306 29.6818 21.6428 29.2802C21.3878 28.924 21.076 28.6122 20.7198 28.3572C20.3182 28.0694 19.8417 27.8814 18.8887 27.5056L10 24L18.8887 20.4944C19.8417 20.1186 20.3182 19.9306 20.7198 19.6429C21.076 19.3878 21.3878 19.076 21.6428 18.7199C21.9306 18.3181 22.1186 17.8417 22.4944 16.8887L26 8Z" stroke="#080D10" stroke-width="2" stroke-linecap="round" stroke-linejoin="round"/>
</svg>
