<svg width="48" height="48" viewBox="0 0 48 48" fill="none" xmlns="http://www.w3.org/2000/svg">
<path d="M6 20H42M14 6V10M34 6V10M12.4 42H35.6C37.8402 42 38.9604 42 39.816 41.564C40.5686 41.1806 41.1806 40.5686 41.564 39.816C42 38.9604 42 37.8402 42 35.6V16.4C42 14.1598 42 13.0397 41.564 12.184C41.1806 11.4314 40.5686 10.8195 39.816 10.436C38.9604 10 37.8402 10 35.6 10H12.4C10.1598 10 9.03968 10 8.18404 10.436C7.43138 10.8195 6.81946 11.4314 6.43598 12.184C6 13.0397 6 14.1598 6 16.4V35.6C6 37.8402 6 38.9604 6.43598 39.816C6.81946 40.5686 7.43138 41.1806 8.18404 41.564C9.03968 42 10.1598 42 12.4 42Z" stroke="#080D10" stroke-width="2" stroke-linecap="round" stroke-linejoin="round"/>
</svg>
