<svg width="48" height="48" viewBox="0 0 48 48" fill="none" xmlns="http://www.w3.org/2000/svg">
<path d="M24.0001 16.0002V26.0002M24.0001 32.0002H24.0201M17.6951 41.3208H30.3051C31.6511 41.3208 32.3243 41.3208 32.9267 41.125C33.4599 40.9518 33.9507 40.6684 34.3671 40.2932C34.8381 39.8694 35.1745 39.2864 35.8475 38.1208L42.1525 27.2002C42.8257 26.0344 43.1621 25.4516 43.2939 24.8318C43.4105 24.2836 43.4105 23.7168 43.2939 23.1686C43.1621 22.5488 42.8257 21.966 42.1525 20.8002L35.8475 9.87969C35.1745 8.71393 34.8381 8.13103 34.3671 7.70711C33.9507 7.33203 33.4599 7.04869 32.9267 6.87547C32.3243 6.67969 31.6511 6.67969 30.3051 6.67969H17.6951C16.349 6.67969 15.676 6.67969 15.0734 6.87547C14.5403 7.04869 14.0495 7.33203 13.633 7.70711C13.1622 8.13103 12.8256 8.71393 12.1526 9.87969L5.84762 20.8002C5.17456 21.966 4.83802 22.5488 4.7063 23.1686C4.58976 23.7168 4.58976 24.2836 4.7063 24.8318C4.83802 25.4516 5.17456 26.0344 5.84762 27.2002L12.1526 38.1208C12.8256 39.2864 13.1622 39.8694 13.633 40.2932C14.0495 40.6684 14.5403 40.9518 15.0734 41.125C15.676 41.3208 16.349 41.3208 17.6951 41.3208Z" stroke="#080D10" stroke-width="2" stroke-linecap="round" stroke-linejoin="round"/>
</svg>
