<svg width="48" height="48" viewBox="0 0 48 48" fill="none" xmlns="http://www.w3.org/2000/svg">
<path d="M18 34H30M18 26H30M18 18H20M26 6H16.4C14.1598 6 13.0397 6 12.184 6.43598C11.4314 6.81946 10.8195 7.43138 10.436 8.18404C10 9.03968 10 10.1598 10 12.4V35.6C10 37.8402 10 38.9604 10.436 39.816C10.8195 40.5686 11.4314 41.1806 12.184 41.564C13.0397 42 14.1598 42 16.4 42H31.6C33.8402 42 34.9604 42 35.816 41.564C36.5686 41.1806 37.1806 40.5686 37.564 39.816C38 38.9604 38 37.8402 38 35.6V18M26 6L38 18M26 6V14.8C26 15.9201 26 16.4802 26.218 16.908C26.4098 17.2843 26.7156 17.5903 27.092 17.782C27.5198 18 28.0798 18 29.2 18H38" stroke="#080D10" stroke-width="2" stroke-linecap="round" stroke-linejoin="round"/>
</svg>
