<svg width="48" height="48" viewBox="0 0 48 48" fill="none" xmlns="http://www.w3.org/2000/svg">
<path d="M16 18V22M24 14V22M32 16V22M6 6H10M10 6H38M10 6V23.6C10 25.8402 10 26.9604 10.436 27.816C10.8195 28.5686 11.4314 29.1806 12.184 29.564C13.0397 30 14.1598 30 16.4 30H24M42 6H38M38 6V23.6C38 25.8402 38 26.9604 37.564 27.816C37.1806 28.5686 36.5686 29.1806 35.816 29.564C34.9604 30 33.8402 30 31.6 30H24M24 36L14 42M24 36L34 42M24 36V42M24 36V30" stroke="#080D10" stroke-width="2" stroke-linecap="round" stroke-linejoin="round"/>
</svg>
