<svg width="48" height="48" viewBox="0 0 48 48" fill="none" xmlns="http://www.w3.org/2000/svg">
<path d="M6 21.9997L11.6468 19.5795C12.1242 19.375 12.3628 19.2727 12.5124 19.102C12.6441 18.9517 12.7278 18.7654 12.7526 18.5671C12.7808 18.342 12.6987 18.0956 12.5344 17.6029L11.3061 13.918C10.8836 12.6504 10.6723 12.0166 10.8214 11.5863C10.9512 11.2116 11.2402 10.9136 11.6108 10.7726C12.0364 10.6105 12.6764 10.8025 13.9562 11.1865L17.3008 12.1898C18.2566 12.4766 18.7346 12.62 19.1703 12.5578C19.5541 12.503 19.9138 12.3378 20.2056 12.0823C20.5366 11.7923 20.7392 11.3363 21.1446 10.4244L22.0408 8.40785C22.6612 7.01171 22.9716 6.31363 23.4038 6.09889C23.7794 5.91235 24.2206 5.91235 24.5962 6.09889C25.0284 6.31363 25.3388 7.01171 25.9592 8.40785L26.8554 10.4244C27.2608 11.3363 27.4634 11.7923 27.7944 12.0823C28.0862 12.3378 28.4458 12.503 28.8298 12.5578C29.2654 12.62 29.7434 12.4766 30.6992 12.1898L34.0438 11.1865C35.3236 10.8025 35.9636 10.6105 36.3892 10.7726C36.7598 10.9136 37.0488 11.2116 37.1786 11.5863C37.3276 12.0166 37.1164 12.6504 36.6938 13.918L35.4656 17.6029C35.3014 18.0956 35.2192 18.342 35.2474 18.5671C35.2722 18.7654 35.3558 18.9517 35.4876 19.102C35.6372 19.2727 35.8758 19.375 36.3532 19.5795L42 21.9997M20 21.9997C20 19.7905 21.7908 17.9996 24 17.9996C26.2092 17.9996 28 19.7905 28 21.9997M26 41.9997H42M34 29.9997H42M10 29.9997H26M6 35.9997H38M10 41.9997H18" stroke="#080D10" stroke-opacity="0.4" stroke-width="2" stroke-linecap="round" stroke-linejoin="round"/>
</svg>
