<svg width="48" height="48" viewBox="0 0 48 48" fill="none" xmlns="http://www.w3.org/2000/svg">
<path d="M6 17.9971H42M18 29.9971L22 33.9971L30 25.9971M14 5.99707V9.99707M34 5.99707V9.99707M12.4 41.9971H35.6C37.8402 41.9971 38.9604 41.9971 39.816 41.5611C40.5686 41.1777 41.1806 40.5657 41.564 39.8131C42 38.9575 42 37.8373 42 35.5971V16.3971C42 14.1568 42 13.0368 41.564 12.1811C41.1806 11.4285 40.5686 10.8165 39.816 10.4331C38.9604 9.99707 37.8402 9.99707 35.6 9.99707H12.4C10.1598 9.99707 9.03968 9.99707 8.18404 10.4331C7.43138 10.8165 6.81946 11.4285 6.43598 12.1811C6 13.0368 6 14.1568 6 16.3971V35.5971C6 37.8373 6 38.9575 6.43598 39.8131C6.81946 40.5657 7.43138 41.1777 8.18404 41.5611C9.03968 41.9971 10.1598 41.9971 12.4 41.9971Z" stroke="#080D10" stroke-opacity="0.4" stroke-width="2" stroke-linecap="round" stroke-linejoin="round"/>
</svg>
