<svg width="48" height="48" viewBox="0 0 48 48" fill="none" xmlns="http://www.w3.org/2000/svg">
<path d="M20 32V22H14V32H20ZM20 32H26V16H20V32ZM22 40H14.4C12.1598 40 11.0397 40 10.184 39.564C9.43138 39.1806 8.81946 38.5686 8.43598 37.816C8 36.9604 8 35.8402 8 33.6V14.4C8 12.1598 8 11.0397 8.43598 10.184C8.81946 9.43138 9.43138 8.81946 10.184 8.43598C11.0397 8 12.1598 8 14.4 8H33.6C35.8402 8 36.9604 8 37.816 8.43598C38.5686 8.81946 39.1806 9.43138 39.564 10.184C40 11.0397 40 12.1598 40 14.4V18.2M38 27C38 28.6568 36.6568 30 35 30C33.3432 30 32 28.6568 32 27C32 25.3432 33.3432 24 35 24C36.6568 24 38 25.3432 38 27ZM37.117 36H32.883C31.1614 36 29.6328 37.1018 29.0884 38.735L28 42H42L40.9116 38.735C40.3672 37.1018 38.8386 36 37.117 36Z" stroke="#080D10" stroke-opacity="0.4" stroke-width="2" stroke-linecap="round" stroke-linejoin="round"/>
</svg>
