<svg width="48" height="48" viewBox="0 0 48 48" fill="none" xmlns="http://www.w3.org/2000/svg">
<path d="M24 20.798V39.998M24 20.798C24 16.3176 24 14.0774 23.128 12.3661C22.361 10.8608 21.1372 9.63699 19.6319 8.86999C17.9206 7.99805 15.6804 7.99805 11.2 7.99805H9.2C8.0799 7.99805 7.51984 7.99805 7.09202 8.21603C6.7157 8.40779 6.40974 8.71375 6.21798 9.09007C6 9.51789 6 10.0779 6 11.198V32.798C6 33.9182 6 34.4782 6.21798 34.906C6.40974 35.2824 6.7157 35.5882 7.09202 35.78C7.51984 35.998 8.0799 35.998 9.2 35.998H15.0934C16.1737 35.998 16.7139 35.998 17.2363 36.0912C17.6999 36.1738 18.1522 36.3106 18.5838 36.4992C19.0701 36.7114 19.5195 37.011 20.4184 37.6104L24 39.998M24 20.798C24 16.3176 24 14.0774 24.872 12.3661C25.639 10.8608 26.8628 9.63699 28.368 8.86999C30.0794 7.99805 32.3196 7.99805 36.8 7.99805H38.8C39.9202 7.99805 40.4802 7.99805 40.908 8.21603C41.2844 8.40779 41.5902 8.71375 41.782 9.09007C42 9.51789 42 10.0779 42 11.198V32.798C42 33.9182 42 34.4782 41.782 34.906C41.5902 35.2824 41.2844 35.5882 40.908 35.78C40.4802 35.998 39.9202 35.998 38.8 35.998H32.9066C31.8262 35.998 31.286 35.998 30.7638 36.0912C30.3 36.1738 29.8478 36.3106 29.4162 36.4992C28.93 36.7114 28.4804 37.011 27.5816 37.6104L24 39.998" stroke="#080D10" stroke-opacity="0.4" stroke-width="2" stroke-linecap="round" stroke-linejoin="round"/>
</svg>
