<svg width="48" height="48" viewBox="0 0 48 48" fill="none" xmlns="http://www.w3.org/2000/svg">
<path d="M42 32V14.4C42 12.1598 42 11.0397 41.564 10.184C41.1806 9.43138 40.5686 8.81946 39.816 8.43598C38.9604 8 37.8402 8 35.6 8H12.4C10.1598 8 9.03968 8 8.18404 8.43598C7.43138 8.81946 6.81946 9.43138 6.43598 10.184C6 11.0397 6 12.1598 6 14.4V32M4 32H44V33.6C44 35.8402 44 36.9604 43.564 37.816C43.1806 38.5686 42.5686 39.1806 41.816 39.564C40.9604 40 39.8402 40 37.6 40H10.4C8.1598 40 7.03968 40 6.18404 39.564C5.43138 39.1806 4.81946 38.5686 4.43598 37.816C4 36.9604 4 35.8402 4 33.6V32Z" stroke="#080D10" stroke-opacity="0.4" stroke-width="2" stroke-linejoin="round"/>
</svg>
