<svg width="48" height="48" viewBox="0 0 48 48" fill="none" xmlns="http://www.w3.org/2000/svg">
<path d="M8.00098 15.0021L23.2166 6.4433C23.5028 6.28234 23.6458 6.20188 23.7974 6.17034C23.9318 6.14244 24.0702 6.14244 24.2046 6.17034C24.3562 6.20188 24.4992 6.28234 24.7854 6.4433L40.001 15.0021M8.00098 15.0021V32.0663C8.00098 32.4071 8.00098 32.5773 8.05096 32.7295C8.0952 32.8641 8.1675 32.9877 8.2631 33.0921C8.37118 33.2103 8.51964 33.2939 8.81656 33.4609L24.001 42.0021M8.00098 15.0021L24.001 23.0021M40.001 15.0021V32.0663C40.001 32.4071 40.001 32.5773 39.951 32.7295C39.9068 32.8641 39.8344 32.9877 39.7388 33.0921C39.6308 33.2103 39.4824 33.2939 39.1854 33.4609L24.001 42.0021M40.001 15.0021L24.001 23.0021M24.001 42.0021V23.0021" stroke="#080D10" stroke-opacity="0.4" stroke-width="2" stroke-linecap="round" stroke-linejoin="round"/>
</svg>
