<svg width="48" height="48" viewBox="0 0 48 48" fill="none" xmlns="http://www.w3.org/2000/svg">
<path d="M38.8006 36C39.5674 34.4998 40 32.8004 40 31C40 24.9248 35.0752 20 29 20C22.9248 20 18 24.9248 18 31C18 37.0752 22.9248 42 29 42H42C42 42 40 40 38.8286 36.0584M37.7 24C37.8968 23.0306 38 22.0274 38 21C38 12.7157 31.2842 6 23 6C14.7157 6 8 12.7157 8 21C8 22.7532 8.30078 24.4362 8.85352 26C11.002 32.0234 6 36 6 36H19" stroke="#080D10" stroke-width="2" stroke-linecap="round" stroke-linejoin="round"/>
</svg>
