<svg width="48" height="48" viewBox="0 0 48 48" fill="none" xmlns="http://www.w3.org/2000/svg">
<path d="M18.0039 34H11.2127C8.69586 34 7.43744 34 7.17266 33.8046C6.8752 33.585 6.80252 33.4554 6.7703 33.0872C6.74164 32.7594 7.51292 31.4972 9.05552 28.9732C10.6482 26.367 12.0006 22.5724 12.0006 17.2C12.0006 14.2296 13.2649 11.3808 15.5153 9.2804C17.7658 7.18 20.818 6 24.0006 6C27.1832 6 30.2354 7.18 32.4858 9.2804C34.7364 11.3808 36.0006 14.2296 36.0006 17.2C36.0006 22.5724 37.353 26.367 38.9458 28.9732C40.4882 31.4972 41.2596 32.7594 41.231 33.0872C41.1988 33.4554 41.126 33.585 40.8286 33.8046C40.5638 34 39.3054 34 36.7886 34H30.0006M18.0039 34L18.0006 36C18.0006 39.3138 20.687 42 24.0006 42C27.3144 42 30.0006 39.3138 30.0006 36V34M18.0039 34H30.0006" stroke="#080D10" stroke-width="2" stroke-linecap="round" stroke-linejoin="round"/>
</svg>
