<svg width="48" height="48" viewBox="0 0 48 48" fill="none" xmlns="http://www.w3.org/2000/svg">
<path d="M8 16L12 40H36L40 16M8 16L11.4325 18.746C13.6644 20.5314 14.7803 21.4242 15.9051 21.5628C16.8906 21.6842 17.886 21.4346 18.6977 20.8628C19.6242 20.2102 20.1872 18.8966 21.313 16.2695L24 10M8 16C9.10456 16 10 15.1046 10 14C10 12.8954 9.10456 12 8 12C6.89544 12 6 12.8954 6 14C6 15.1046 6.89544 16 8 16ZM40 16L36.5676 18.746C34.3356 20.5314 33.2198 21.4242 32.0948 21.5628C31.1094 21.6842 30.114 21.4346 29.3022 20.8628C28.3758 20.2102 27.8128 18.8966 26.687 16.2695L24 10M40 16C41.1046 16 42 15.1046 42 14C42 12.8954 41.1046 12 40 12C38.8954 12 38 12.8954 38 14C38 15.1046 38.8954 16 40 16ZM24 10C25.1046 10 26 9.10456 26 8C26 6.89544 25.1046 6 24 6C22.8954 6 22 6.89544 22 8C22 9.10456 22.8954 10 24 10ZM24 8H24.02M40 14H40.02M8 14H8.02" stroke="#080D10" stroke-width="2" stroke-linecap="round" stroke-linejoin="round"/>
</svg>
