<svg width="48" height="48" viewBox="0 0 48 48" fill="none" xmlns="http://www.w3.org/2000/svg">
<path d="M6 9.2C6 8.0799 6 7.51984 6.21798 7.09202C6.40974 6.7157 6.7157 6.40974 7.09202 6.21798C7.51984 6 8.0799 6 9.2 6H38.8C39.9202 6 40.4802 6 40.908 6.21798C41.2844 6.40974 41.5902 6.7157 41.782 7.09202C42 7.51984 42 8.0799 42 9.2V12.6745C42 13.1637 42 13.4083 41.9448 13.6385C41.8958 13.8425 41.815 14.0376 41.7052 14.2166C41.5816 14.4184 41.4086 14.5914 41.0628 14.9373L28.9372 27.0628C28.5914 27.4086 28.4184 27.5816 28.2948 27.7834C28.185 27.9624 28.1042 28.1574 28.0552 28.3616C28 28.5918 28 28.8364 28 29.3254V34L20 42V29.3254C20 28.8364 20 28.5918 19.9447 28.3616C19.8957 28.1574 19.8149 27.9624 19.7053 27.7834C19.5816 27.5816 19.4086 27.4086 19.0627 27.0628L6.93726 14.9373C6.59136 14.5914 6.4184 14.4184 6.29472 14.2166C6.18506 14.0376 6.10426 13.8425 6.05526 13.6385C6 13.4083 6 13.1637 6 12.6745V9.2Z" stroke="#080D10" stroke-width="2" stroke-linecap="round" stroke-linejoin="round"/>
</svg>
