<svg width="48" height="48" viewBox="0 0 48 48" fill="none" xmlns="http://www.w3.org/2000/svg">
<path d="M30 24C30 27.3138 27.3138 30 24 30C20.6862 30 18 27.3138 18 24C18 20.6862 20.6862 18 24 18C27.3138 18 30 20.6862 30 24Z" stroke="#080D10" stroke-width="2" stroke-linecap="round" stroke-linejoin="round"/>
<path d="M25.8092 6.1201C25.3976 6 24.9318 6 24 6C23.0682 6 22.6024 6 22.1908 6.1201C21.5884 6.29588 21.0562 6.65616 20.6692 7.15022C20.4048 7.48776 20.2318 7.92032 19.8858 8.78544C19.3884 10.029 18.0079 10.6694 16.7371 10.246L15.5956 9.86562C14.7858 9.5957 14.3809 9.46072 13.9839 9.4376C13.4008 9.40362 12.8204 9.54064 12.314 9.8318C11.9693 10.03 11.6675 10.3318 11.0639 10.9354C10.4224 11.5769 10.1017 11.8976 9.89792 12.2638C9.59854 12.8017 9.4719 13.4187 9.53518 14.031C9.57824 14.4478 9.7467 14.869 10.0836 15.7113C10.6113 17.0305 10.1037 18.5376 8.88544 19.2687L8.33042 19.6017C7.48062 20.1116 7.05572 20.3666 6.74708 20.7176C6.47396 21.0282 6.26802 21.392 6.14218 21.786C6 22.2312 6 22.7316 6 23.7326C6 24.9178 6 25.5102 6.18924 26.0176C6.35646 26.4658 6.62844 26.8674 6.98248 27.1892C7.38316 27.5532 7.9279 27.7712 9.01732 28.207C10.1307 28.6522 10.7039 29.8882 10.3247 31.0258L9.89442 32.3168C9.59638 33.2108 9.44734 33.658 9.4338 34.0972C9.4175 34.6254 9.54098 35.1484 9.79174 35.6134C10.0003 36.0004 10.3336 36.3336 11 37C11.6665 37.6664 11.9997 37.9996 12.3865 38.2082C12.8516 38.459 13.3747 38.5826 13.9028 38.5662C14.342 38.5526 14.7891 38.4036 15.6833 38.1056L16.7372 37.7542C18.0079 37.3308 19.3884 37.971 19.8858 39.2146C20.2318 40.0796 20.4048 40.5122 20.6692 40.8498C21.0562 41.3438 21.5884 41.7042 22.1908 41.88C22.6024 42 23.0682 42 24 42C24.9318 42 25.3976 42 25.8092 41.88C26.4116 41.7042 26.9438 41.3438 27.3308 40.8498C27.5952 40.5122 27.7682 40.0796 28.1142 39.2146C28.6116 37.971 29.9922 37.3308 31.2626 37.7546L32.3158 38.1058C33.21 38.4038 33.6572 38.5528 34.0964 38.5664C34.6246 38.5826 35.1476 38.4592 35.6126 38.2084C35.9994 37.9998 36.3328 37.6666 36.9992 37.0002C37.6656 36.3338 37.9988 36.0004 38.2074 35.6136C38.4582 35.1486 38.5816 34.6254 38.5654 34.0974C38.5518 33.6582 38.4028 33.211 38.1048 32.3168L37.6748 31.0268C37.2954 29.8888 37.8688 28.6524 38.9826 28.207C40.072 27.7712 40.6168 27.5532 41.0176 27.1892C41.3716 26.8674 41.6436 26.4658 41.8108 26.0176C42 25.5102 42 24.9178 42 23.7326C42 22.7316 42 22.2312 41.8578 21.786C41.732 21.392 41.526 21.0282 41.253 20.7176C40.9442 20.3666 40.5194 20.1116 39.6696 19.6017L39.1138 19.2683C37.8956 18.5373 37.3878 17.0303 37.9156 15.7112C38.2524 14.8689 38.421 14.4477 38.464 14.0309C38.5272 13.4185 38.4006 12.8015 38.1012 12.2636C37.8974 11.8975 37.5768 11.5767 36.9352 10.9352C36.3316 10.3317 36.0298 10.0299 35.6852 9.83166C35.1788 9.54048 34.5984 9.40348 34.0152 9.43744C33.6182 9.46058 33.2134 9.59554 32.4036 9.86546L31.2628 10.2457C29.9922 10.6693 28.6116 10.029 28.1142 8.78544C27.7682 7.92032 27.5952 7.48776 27.3308 7.15022C26.9438 6.65616 26.4116 6.29588 25.8092 6.1201Z" stroke="#080D10" stroke-width="2" stroke-linecap="round" stroke-linejoin="round"/>
</svg>
