<svg xmlns="http://www.w3.org/2000/svg" width="140" height="140" fill="none"><g clip-path="url(#a)"><path fill="#fff" d="M77.503 28.757c6.037-.94 45.229 2.15 51.521 13.636-11.488 21.296-29.032 45.094-45.075 62.848-.8-11.619-8.09-20.235-31.054-23.13l24.608-53.354Z"/><path fill="#080D10" d="M83.95 106.215a.972.972 0 0 1-.973-.907c-.596-8.653-4.568-18.999-30.204-22.23a.975.975 0 0 1-.764-1.374L76.618 28.35a.974.974 0 0 1 .736-.555c3.229-.503 14.679.077 25.992 2.162 10.138 1.87 22.971 5.463 26.535 11.968a.968.968 0 0 1 .003.93c-5.49 10.177-12.716 21.54-20.897 32.86-7.729 10.694-16.136 21.13-24.313 30.179a.972.972 0 0 1-.724.321ZM54.334 81.32c10.472 1.456 18.012 4.187 23.022 8.335 4.104 3.398 6.515 7.766 7.33 13.306 16.429-18.452 32.838-41.427 43.218-60.545-2.818-4.36-11.619-8.092-24.913-10.543-10.405-1.918-21.195-2.56-24.83-2.215L54.335 81.32Z"/><path fill="#fff" d="M83.103 36.956c25.584 0 42.89 8.298 40.414 18.94-2.796 12.02-30.997 52.813-46.014 60.219 5.6-7.648-2.122-20.933-18.476-27.802l24.076-51.357Z"/><path fill="#080D10" d="M77.504 117.089a.977.977 0 0 1-.87-.533.97.97 0 0 1 .082-1.016c1.647-2.248 2.05-5.116 1.167-8.294-1.931-6.953-9.301-13.864-19.233-18.035a.978.978 0 0 1-.597-.933.972.972 0 0 1 .092-.378L82.22 36.543a.974.974 0 0 1 .883-.56c18.557 0 33.587 4.403 39.224 11.491 2.101 2.642 2.841 5.63 2.141 8.643-1.404 6.035-8.874 18.974-18.588 32.195-5.16 7.023-18.213 23.877-27.945 28.677a.976.976 0 0 1-.431.1ZM60.337 87.817c9.999 4.437 17.4 11.619 19.426 18.908.684 2.462.704 4.786.077 6.867 6.424-4.402 15.3-13.955 24.467-26.432 9.423-12.825 16.932-25.772 18.261-31.484.569-2.448-.025-4.8-1.768-6.99-2.502-3.147-7.223-5.815-13.653-7.718-6.564-1.941-14.651-2.989-23.424-3.036L60.337 87.817Z"/><path fill="#080D10" d="M123.518 55.897c-3.404 11.29-19.814 11.412-19.814 11.412-.122 12.031-6.038 29.761-10.768 35.475 12.832-14.29 24.504-28.919 30.582-46.887Z"/><path fill="#080D10" d="M92.936 103.758a.976.976 0 0 1-.967-1.096.97.97 0 0 1 .216-.499c4.548-5.493 10.425-23.01 10.545-34.864a.97.97 0 0 1 .968-.964c.039 0 4.047-.05 8.386-1.44 5.248-1.682 8.667-4.489 10.18-8.353.112-.318.222-.638.331-.957a.973.973 0 0 1 1.219-.614.972.972 0 0 1 .638 1.206c-.102.34-.218.677-.347 1.008-5.901 16.8-16.456 30.673-30.443 46.249a.975.975 0 0 1-.726.324Zm11.724-35.514c-.276 8.536-3.143 19.306-6.445 27.041 9.109-10.684 16.395-20.846 21.414-32.118-1.883 1.505-4.228 2.716-6.998 3.598-3.361 1.07-6.465 1.386-7.971 1.479Z"/><path fill="#080D10" d="M115.372 59.735a.976.976 0 0 1-.971-.898c-.226-2.85-1.588-5.304-4.051-7.292a.964.964 0 0 1-.36-.656.966.966 0 0 1 .505-.962.975.975 0 0 1 1.082.103c2.894 2.338 4.499 5.25 4.768 8.654a.968.968 0 0 1-.582.97.973.973 0 0 1-.391.08Zm-9.359-10.842a.971.971 0 0 1-.377-.077c-4.527-1.903-10.814-2.994-17.248-2.994a.975.975 0 0 1-.69-1.663.975.975 0 0 1 .69-.285c6.684 0 13.247 1.147 18.004 3.147a.972.972 0 0 1 .239 1.652.973.973 0 0 1-.618.22Zm1.093 15.99a.974.974 0 0 1-.967-.86c-.249-2.107-2.194-4.114-5.478-5.651-3.396-1.59-7.755-2.466-12.273-2.466a.976.976 0 0 1-.976-.974.973.973 0 0 1 .975-.974c4.8 0 9.452.941 13.102 2.65 3.917 1.834 6.256 4.387 6.587 7.187a.976.976 0 0 1-.97 1.088ZM99.085 77.51a.976.976 0 0 1-.976-.974c0-6.665-6.428-10.487-17.636-10.487a.976.976 0 0 1-.975-.974.973.973 0 0 1 .975-.974c6.061 0 10.853 1.058 14.244 3.144 3.495 2.15 5.343 5.363 5.343 9.29a.974.974 0 0 1-.975.975ZM94.1 89.894a.976.976 0 0 1-.973-.915c-.222-3.601-2.118-6.72-5.484-9.02-3.525-2.409-8.313-3.681-13.846-3.681a.976.976 0 0 1-.975-.974.973.973 0 0 1 .975-.974c5.928 0 11.097 1.39 14.947 4.02 3.825 2.614 6.073 6.347 6.33 10.51a.972.972 0 0 1-.974 1.034Z"/></g><g clip-path="url(#b)"><path fill="#fff" d="M27.347 95.12c-4.044 1.296-9.204 2.063-10.306 4.141-2.036 3.835 1.674 16.65 7.029 15.591 3.319-.656 8.38-2.957 8.38-2.957 6.96 4.114 26.581.251 29.091-3.291 4.853-6.833-.627-35.239-10.026-29.424-6.262 3.877-18.241 11.421-24.168 15.94Z"/><path fill="#080D10" d="M23.413 115.884c-1.994 0-3.528-1.45-4.505-2.761-2.928-3.947-4.35-11.31-2.747-14.322 1.018-1.924 4.281-2.803 7.726-3.71a62.695 62.695 0 0 0 2.998-.85c6.234-4.727 18.91-12.676 24.098-15.897 2.524-1.562 5.118-1.13 7.322 1.213 5.606 5.969 8.046 23.958 4.016 29.605-.74 1.032-2.454 2.022-5.104 2.943-2.385.823-5.37 1.52-8.423 1.966-3.305.488-6.513.655-9.288.502-2.984-.167-5.383-.711-7.126-1.604-1.339.586-5.3 2.259-8.144 2.831a4.002 4.002 0 0 1-.823.084Zm30.596-36.508c-.641 0-1.297.209-1.98.641-5.202 3.222-17.976 11.226-24.084 15.884a.846.846 0 0 1-.293.153c-1.046.335-2.161.628-3.249.92-2.747.74-5.871 1.576-6.499 2.748-.558 1.045-.6 3.193-.125 5.606.502 2.551 1.52 5.02 2.72 6.637.766 1.032 1.98 2.204 3.388 1.925 3.166-.628 8.116-2.873 8.172-2.887.293-.125.628-.111.907.042 2.872 1.701 8.702 2.106 15.577 1.102 2.942-.433 5.801-1.102 8.074-1.883 3.152-1.088 3.975-1.98 4.156-2.231 1.548-2.176 2.036-7.391 1.255-13.276-.823-6.066-2.775-11.379-5.104-13.861-.99-1.018-1.938-1.52-2.915-1.52Z"/><path fill="#fff" d="M62.28 93.697c2.803-.683 10.361-1.143 10.361 5.09 0 6.234-3.375 9.79-10.32 10.836-5.829.878-5.243-5.174-1.227-6.861 4.017-1.688 3.32-3.11 3.32-3.11"/><path fill="#080D10" d="M61.206 110.696c-3.04 0-3.85-1.966-4.045-2.636-.655-2.314.935-5.089 3.542-6.191 2.427-1.018 2.734-1.785 2.762-1.924a.977.977 0 0 1 1.813-.711c.07.153.292.683 0 1.436-.419 1.101-1.702 2.105-3.822 2.998-1.84.767-2.76 2.649-2.412 3.863.167.571.78 1.492 3.124 1.129 6.47-.976 9.497-4.114 9.497-9.873 0-1.45-.46-2.524-1.409-3.263-1.966-1.548-5.704-1.367-7.74-.879a.987.987 0 0 1-1.185-.725.987.987 0 0 1 .725-1.185c2.231-.544 6.708-.879 9.413 1.241 1.423 1.116 2.148 2.733 2.148 4.797 0 6.722-3.751 10.696-11.156 11.798a7.13 7.13 0 0 1-1.255.125Z"/><path fill="#fff" d="M61.833 88.217c2.803-.684 10.306-2.566 10.306 3.667 0 6.234-2.162 9.371-8.981 11.087-5.718 1.436-5.732-5.063-1.883-7.126 3.835-2.064 2.999-3.5 2.999-3.5"/><path fill="#080D10" d="M61.624 104.156c-2.566 0-3.472-1.729-3.71-2.357-.92-2.356.419-5.48 2.901-6.819 2.134-1.143 2.566-2.022 2.566-2.259a.97.97 0 0 1 .405-1.227.994.994 0 0 1 1.338.349c.084.153.349.697.126 1.506-.32 1.157-1.506 2.287-3.5 3.36-1.813.977-2.51 3.096-2.009 4.393.53 1.367 2.232 1.171 3.194.934 6.164-1.547 8.242-4.113 8.242-10.138 0-1.269-.349-2.147-1.046-2.705-1.91-1.506-6.15-.474-7.963-.028l-.098.028a.987.987 0 0 1-1.185-.725.987.987 0 0 1 .725-1.185l.098-.028c2.259-.544 6.972-1.688 9.622.39 1.186.934 1.8 2.37 1.8 4.24 0 6.902-2.72 10.263-9.72 12.034a7.338 7.338 0 0 1-1.786.237Z"/><path fill="#fff" d="M51.514 79.18c4.365-2.343 13.848-4.504 16.358 2.692 2.524 7.195-.795 11.002-2.761 12.704-1.967 1.7-6.708-.6-4.965-5.16 1.743-4.56.53-3.933.53-3.933"/><path fill="#080D10" d="M63.478 96.123c-.892 0-1.827-.292-2.65-.864-1.505-1.046-2.719-3.222-1.59-6.178.6-1.59.796-2.412.852-2.803a.945.945 0 0 1-.28-.334.97.97 0 0 1 .419-1.311c.377-.195.948-.223 1.367.167.739.656.6 2.008-.544 4.978-.879 2.33.32 3.487.892 3.891.865.6 1.953.683 2.525.181 3.333-2.9 4.17-6.819 2.482-11.644-.628-1.799-1.813-3.054-3.5-3.71-3.64-1.421-8.87.154-11.492 1.549a.989.989 0 0 1-1.325-.405.985.985 0 0 1 .405-1.324c3.514-1.883 9.12-3.208 13.109-1.646 2.245.879 3.807 2.524 4.63 4.88 1.952 5.593.906 10.348-3.04 13.765-.586.544-1.409.808-2.26.808Z"/><path fill="#fff" d="M38.32 93.168c2.455-1.311 16.26-9.135 18.813-11.017 4.114-3.068 6.945.251 3.598 5.634-3.333 5.383-7.545 7.377-7.545 7.377 2.008 5.355-5.522 12.243-12.509 10.779"/><path fill="#080D10" d="M42.63 107.113c-.711 0-1.422-.07-2.147-.224a.973.973 0 0 1-.753-1.157.973.973 0 0 1 1.157-.753c3.919.823 7.754-1.255 9.818-3.668 1.66-1.938 2.231-4.058 1.576-5.829a.98.98 0 0 1 .502-1.227c.041-.014 4.002-1.952 7.126-7 1.52-2.454 1.604-4.407.892-5.048-.571-.53-1.785-.251-3.082.711-2.635 1.952-16.623 9.86-18.924 11.1a.985.985 0 0 1-1.325-.404.985.985 0 0 1 .405-1.325c2.705-1.45 16.274-9.148 18.687-10.947 1.66-1.24 3.988-2.036 5.578-.585 1.59 1.464 1.367 4.406-.558 7.516-2.65 4.267-5.801 6.484-7.21 7.335.502 2.245-.264 4.741-2.161 6.958-2.092 2.427-5.676 4.547-9.58 4.547Z"/></g><g clip-path="url(#c)"><path fill="#080D10" d="m49.549 99.122 15.827-27.87 4.22 2.393-15.827 27.87-4.22-2.393Z"/><path fill="#080D10" d="M53.769 102.491a.978.978 0 0 1-.481-.127l-4.22-2.393a.978.978 0 0 1-.368-1.331l15.827-27.87a.976.976 0 0 1 1.332-.368l4.22 2.393a.977.977 0 0 1 .368 1.331L54.62 101.997a.98.98 0 0 1-.851.494Zm-2.888-3.737 2.521 1.43 14.863-26.172-2.52-1.43L50.88 98.754Z"/><path fill="#FF7A00" d="M55.05 56.06c-6.402 18.294 27.493 32.474 35.565 8.701 6.57-19.35-27.313-32.28-35.565-8.701Z"/><path fill="#080D10" d="M74.522 78.578c-2.148 0-4.332-.384-6.448-1.144-3.154-1.134-5.932-3.013-8.032-5.436-1.768-2.039-2.989-4.427-3.53-6.905-.598-2.732-.401-5.546.584-8.363 2.035-5.814 5.594-10.018 10.291-12.159 4.115-1.875 8.858-2.055 13.354-.507 7.98 2.746 14.251 10.846 10.8 21.011-2.465 7.258-7.317 11.94-13.665 13.182a17.456 17.456 0 0 1-3.354.321ZM58.02 57.053l.922.322c-1.668 4.765-.752 9.504 2.578 13.345 3.878 4.473 10.3 6.732 15.98 5.62 5.632-1.102 9.962-5.325 12.191-11.892 3.041-8.957-2.52-16.106-9.585-18.538-7.62-2.623-17.119-.095-21.164 11.465l-.922-.322Z"/><path fill="#fff" d="M61.922 57.95c-4.87 13.917 18.659 23.95 24.799 5.864 4.998-14.721-18.52-23.802-24.799-5.864Z"/><path fill="#080D10" d="M74.527 74.553c-4.183 0-8.47-1.883-11.242-5.08-2.91-3.358-3.743-7.676-2.284-11.846 1.57-4.484 4.319-7.73 7.952-9.385 3.185-1.451 6.855-1.591 10.332-.394 6.18 2.127 11.036 8.402 8.362 16.28-1.903 5.604-5.658 9.22-10.573 10.182-.835.164-1.69.243-2.548.243Zm-.024-25.564c-4.633 0-9.34 2.66-11.658 9.283-1.24 3.543-.559 7.066 1.917 9.922 2.898 3.343 7.695 5.03 11.937 4.2 4.198-.822 7.429-3.98 9.097-8.893 2.265-6.67-1.881-11.994-7.147-13.807a12.774 12.774 0 0 0-4.146-.705Z"/><path fill="#FF7A00" d="M70.486 60.32c-2.09 5.973 8.007 10.278 10.642 2.517 2.145-6.318-7.948-10.215-10.642-2.517Z"/><path fill="#080D10" d="M77.511 67.04a6.978 6.978 0 0 1-5.214-2.376c-1.384-1.596-1.78-3.65-1.085-5.632 1.606-4.59 5.56-5.57 8.555-4.54 2.912 1.003 5.2 3.967 3.934 7.692-.883 2.603-2.644 4.285-4.958 4.738a6.41 6.41 0 0 1-1.232.118Zm-4.455-7.364c-.625 1.786.182 3.09.718 3.71 1.117 1.287 2.963 1.938 4.594 1.62 1.13-.222 2.651-1 3.483-3.45.894-2.634-.784-4.551-2.721-5.218-2.179-.75-4.902-.009-6.074 3.338Z"/><path fill="#080D10" d="M75.926 67.314c-1.273 0-2.562-.13-3.843-.396-5.265-1.094-9.404-4.315-11.072-8.615a.975.975 0 0 1 .284-1.102c4.31-3.605 10.74-4.902 16.78-3.386 4.846 1.216 8.605 4.096 10.054 7.704a.976.976 0 0 1-.213 1.05c-3.028 3.06-7.404 4.745-11.99 4.745Zm-12.812-9.063c1.585 3.353 5.031 5.854 9.367 6.755 5.015 1.043 10.146-.239 13.567-3.35-1.384-2.755-4.487-4.953-8.448-5.947-5.185-1.302-10.66-.326-14.486 2.542Z"/><path fill="#080D10" d="M77.462 62.225a1.647 1.647 0 1 0 .001-3.295 1.647 1.647 0 0 0 0 3.295Z"/></g><g clip-path="url(#d)"><path fill="#fff" d="M38.022 93.532c2.425-1.309 16.104-9.108 18.622-10.996 4.07-3.055 6.873.248 3.566 5.622-3.307 5.374-7.464 7.356-7.464 7.356 1.992 5.35-5.47 12.213-12.386 10.761"/><path fill="#080D10" d="M42.291 107.448c-.702 0-1.413-.069-2.128-.22a.963.963 0 0 1-.612-.419.982.982 0 0 1 .28-1.349.966.966 0 0 1 .726-.139c3.878.814 7.68-1.249 9.726-3.655 1.645-1.934 2.213-4.051 1.558-5.81a.981.981 0 0 1 .492-1.222c.037-.018 3.956-1.951 7.056-6.99 1.509-2.452 1.588-4.392.887-5.042-.573-.53-1.772-.249-3.055.715-2.605 1.954-16.462 9.843-18.743 11.074a.96.96 0 0 1-1.309-.399.98.98 0 0 1 .396-1.318c2.672-1.443 16.116-9.13 18.501-10.92 2.505-1.88 4.492-1.535 5.517-.587 1.574 1.457 1.358 4.402-.551 7.504-2.62 4.257-5.742 6.475-7.14 7.318.5 2.243-.256 4.728-2.14 6.945-2.046 2.404-5.599 4.514-9.46 4.514Z"/></g><g clip-path="url(#e)"><path fill="#fff" d="M36.193 51.8C17.733 60.984.07 40.668 19.293 26.916c17.14-12.262 40.597 6.84 25.72 19.794-.114-.222.862 3.535 3.282 5.535 0 0-4.795 1.02-8.596-1.126"/><path fill="#080D10" d="M26.84 55.086c-1.89 0-3.535-.271-4.868-.62-4.293-1.122-7.957-3.77-10.052-7.266-1.89-3.153-2.402-6.832-1.44-10.358 1.067-3.916 3.919-7.623 8.247-10.72 4.806-3.438 10.605-4.79 16.329-3.806 5.132.881 9.756 3.52 12.686 7.241 3.55 4.506 4.925 11.415-1.637 17.482.338 1.007 1.26 3.173 2.81 4.454a.976.976 0 0 1-.419 1.706c-.21.045-5.2 1.07-9.276-1.23a.975.975 0 0 1 .956-1.7c2.047 1.156 4.46 1.298 6.08 1.224a13.15 13.15 0 0 1-1.368-2.293c-.24-.506-.45-1.026-.63-1.556-.255-.755-.269-.96-.184-1.232a.977.977 0 0 1 .409-.535c5.033-4.455 5.683-10.095 1.73-15.112-5.308-6.74-16.893-9.824-26.354-3.056-8.953 6.406-9.109 13.75-6.27 18.487 3.528 5.886 12.497 9.544 22.17 4.731a.972.972 0 0 1 1.305.44.976.976 0 0 1-.439 1.307c-3.654 1.818-6.988 2.412-9.785 2.412Z"/><path fill="#080D10" d="M29.788 43.003a.973.973 0 0 1-.971-.92c-.142-2.482 1.464-3.256 2.636-3.82 1.25-.603 2.152-1.038 2.15-3.147-.003-1.668-.848-2.46-1.557-2.83-1.09-.57-2.533-.497-3.506.18-.558.388-1.187 1.142-1.014 2.528a.976.976 0 0 1-1.224 1.061.974.974 0 0 1-.708-.82c-.226-1.81.443-3.402 1.835-4.37 1.568-1.091 3.786-1.214 5.519-.308 1.65.863 2.599 2.524 2.602 4.556.004 3.337-1.878 4.244-3.252 4.906-1.192.575-1.601.83-1.537 1.953a.978.978 0 0 1-.587.952.973.973 0 0 1-.386.08ZM29.835 47.105a1.209 1.209 0 1 0-.002-2.418 1.209 1.209 0 0 0 .002 2.418Z"/></g><defs><clipPath id="a"><path fill="#fff" d="M51.92 27.625H130v89.464H51.92z"/></clipPath><clipPath id="b"><path fill="#fff" d="M15.492 75.973h58.794v39.911H15.492z"/></clipPath><clipPath id="c"><path fill="#fff" d="M48.572 43.027H92.5v59.464H48.572z"/></clipPath><clipPath id="d"><path fill="#fff" d="M37.055 80.393h25.58v27.053h-25.58z"/></clipPath><clipPath id="e"><path fill="#fff" d="M10 22h40.714v33.08H10z"/></clipPath></defs></svg>