<svg width="48" height="48" viewBox="0 0 48 48" fill="none" xmlns="http://www.w3.org/2000/svg">
<path d="M30.9996 10.9994L36.6564 16.6563M6 41.9989L6.0949 41.3345C6.43072 38.9839 6.59864 37.8085 6.98058 36.7111C7.3195 35.7373 7.78248 34.8113 8.35812 33.9561C9.00682 32.9921 9.84638 32.1525 11.5255 30.4735L34.8214 7.17743C36.3836 5.61533 38.9162 5.61533 40.4784 7.17743C42.0404 8.73953 42.0404 11.2722 40.4784 12.8343L16.7549 36.5577C15.2316 38.0811 14.4699 38.8427 13.6024 39.4483C12.8324 39.9859 12.0019 40.4313 11.128 40.7753C10.1434 41.1629 9.0875 41.3759 6.97586 41.8019L6 41.9989Z" stroke="#080D10" stroke-width="2" stroke-linecap="round" stroke-linejoin="round"/>
</svg>
