<svg width="48" height="48" viewBox="0 0 48 48" fill="none" xmlns="http://www.w3.org/2000/svg">
<path d="M6 30H42M6 38H26M42 14H26M42 22H26M9.2 22H14.8C15.9201 22 16.4802 22 16.908 21.782C17.2843 21.5902 17.5903 21.2844 17.782 20.908C18 20.4802 18 19.9201 18 18.8V13.2C18 12.0799 18 11.5198 17.782 11.092C17.5903 10.7157 17.2843 10.4097 16.908 10.218C16.4802 10 15.9201 10 14.8 10H9.2C8.0799 10 7.51984 10 7.09202 10.218C6.7157 10.4097 6.40974 10.7157 6.21798 11.092C6 11.5198 6 12.0799 6 13.2V18.8C6 19.9201 6 20.4802 6.21798 20.908C6.40974 21.2844 6.7157 21.5902 7.09202 21.782C7.51984 22 8.0799 22 9.2 22Z" stroke="#080D10" stroke-width="2" stroke-linecap="round" stroke-linejoin="round"/>
</svg>
