<svg width="48" height="48" viewBox="0 0 48 48" fill="none" xmlns="http://www.w3.org/2000/svg">
<path d="M24 36H24.02M18.4 42H29.6C31.8402 42 32.9604 42 33.816 41.564C34.5686 41.1806 35.1806 40.5686 35.564 39.816C36 38.9604 36 37.8402 36 35.6V12.4C36 10.1598 36 9.03968 35.564 8.18404C35.1806 7.43138 34.5686 6.81946 33.816 6.43598C32.9604 6 31.8402 6 29.6 6H18.4C16.1598 6 15.0397 6 14.184 6.43598C13.4314 6.81946 12.8195 7.43138 12.436 8.18404C12 9.03968 12 10.1598 12 12.4V35.6C12 37.8402 12 38.9604 12.436 39.816C12.8195 40.5686 13.4314 41.1806 14.184 41.564C15.0397 42 16.1598 42 18.4 42Z" stroke="#080D10" stroke-width="2" stroke-linecap="round" stroke-linejoin="round"/>
</svg>
