<svg width="48" height="48" viewBox="0 0 48 48" fill="none" xmlns="http://www.w3.org/2000/svg">
<path d="M16.8 27.6C16.8 27.6 19.5 31.2 24 31.2C28.5 31.2 31.2 27.6 31.2 27.6M29.4 18.6H29.418M18.6 18.6H18.618M42 24C42 33.9412 33.9412 42 24 42C14.0589 42 6 33.9412 6 24C6 14.0589 14.0589 6 24 6C33.9412 6 42 14.0589 42 24ZM30.3 18.6C30.3 19.0971 29.897 19.5 29.4 19.5C28.903 19.5 28.5 19.0971 28.5 18.6C28.5 18.1029 28.903 17.7 29.4 17.7C29.897 17.7 30.3 18.1029 30.3 18.6ZM19.5 18.6C19.5 19.0971 19.0971 19.5 18.6 19.5C18.1029 19.5 17.7 19.0971 17.7 18.6C17.7 18.1029 18.1029 17.7 18.6 17.7C19.0971 17.7 19.5 18.1029 19.5 18.6Z" stroke="#080D10" stroke-width="2" stroke-linecap="round" stroke-linejoin="round"/>
</svg>
