<svg width="164" height="48" viewBox="0 0 164 48" fill="none" xmlns="http://www.w3.org/2000/svg">
<path fill-rule="evenodd" clip-rule="evenodd" d="M18.0102 6C8.0679 6 0.000732422 14.0629 0.000732422 24C0.000732422 33.9372 8.0679 42 18.0102 42C27.933 42 36.0197 33.9372 36.0197 24C36.0197 14.0629 27.933 6 18.0102 6ZM29.9058 14.2972C32.0545 16.9132 33.3438 20.2516 33.3828 23.8633C32.8749 23.7656 27.7962 22.731 22.6786 23.3753C22.5614 23.1215 22.4638 22.8481 22.3465 22.5749C22.034 21.8331 21.6824 21.0717 21.3308 20.3492C26.9955 18.0456 29.5737 14.7267 29.9058 14.2972ZM18.0102 8.65509C21.9168 8.65509 25.4914 10.1193 28.2065 12.5206C27.933 12.9111 25.6085 16.0152 20.1394 18.065C17.6195 13.4382 14.8264 9.65076 14.3966 9.06513C15.549 8.7918 16.7602 8.65509 18.0102 8.65509ZM11.4667 10.0998C11.8768 10.6464 14.6115 14.4534 17.1703 18.9826C9.98213 20.8959 3.63388 20.8568 2.95024 20.8568C3.94643 16.0933 7.16941 12.1302 11.4667 10.0998ZM2.61814 24.0194C2.61814 23.8633 2.61814 23.7071 2.61814 23.551C3.28233 23.5705 10.7439 23.6682 18.4204 21.3644C18.8697 22.2234 19.2799 23.1019 19.6705 23.9806C19.4752 24.0391 19.2603 24.0977 19.065 24.1561C11.1346 26.7138 6.91547 33.7028 6.56384 34.2884C4.1222 31.5748 2.61814 27.9631 2.61814 24.0194ZM18.0102 39.384C14.4552 39.384 11.1736 38.1736 8.57577 36.1432C8.84924 35.5771 11.9745 29.5641 20.6472 26.538C20.6862 26.5185 20.7058 26.5185 20.7449 26.4988C22.9129 32.1019 23.7921 36.8069 24.0264 38.1539C22.1708 38.9544 20.1394 39.384 18.0102 39.384ZM26.5853 36.7484C26.429 35.8112 25.6087 31.321 23.5967 25.796C28.4214 25.0346 32.6405 26.2842 33.1679 26.46C32.5038 30.7354 30.0426 34.4251 26.5853 36.7484Z" fill="#080D10"/>
<path d="M95.0412 25.8092C95.6949 25.8092 96.2998 25.9007 96.8554 26.0834C97.4109 26.2627 97.8998 26.5264 98.3221 26.8745C98.7444 27.2189 99.0881 27.6419 99.3519 28.1445C99.6157 28.6471 99.7786 29.2222 99.8426 29.8689H97.2045C97.1693 29.5985 97.0969 29.3545 96.9881 29.1368C96.8792 28.9188 96.7338 28.7324 96.5546 28.5778C96.3754 28.4231 96.1629 28.3053 95.9162 28.2245C95.674 28.1401 95.4051 28.0979 95.1098 28.0979C94.5859 28.0979 94.1337 28.2255 93.7538 28.482C93.3775 28.7386 93.0868 29.1097 92.8824 29.5947C92.6816 30.0799 92.5816 30.6678 92.5816 31.3569C92.5817 32.0738 92.6842 32.6753 92.8885 33.1604C93.0956 33.6418 93.3864 34.0059 93.7591 34.252C94.1353 34.4944 94.5801 34.6158 95.0931 34.6159C95.3821 34.6159 95.6443 34.578 95.8793 34.5042C96.1187 34.4305 96.328 34.3239 96.508 34.1834C96.6908 34.0393 96.8403 33.8644 96.9565 33.6605C97.0752 33.4531 97.1586 33.2192 97.2045 32.9591L99.8426 32.9758C99.7966 33.4536 99.6579 33.9245 99.4258 34.3882C99.1971 34.8521 98.8819 35.276 98.4813 35.6591C98.0807 36.0387 97.5915 36.3412 97.0145 36.5662C96.4409 36.7912 95.7832 36.9037 95.0412 36.9037C94.0634 36.9037 93.1871 36.69 92.4137 36.2612C91.6429 35.8287 91.0338 35.1986 90.5872 34.3724C90.1408 33.5465 89.9172 32.5413 89.9171 31.3569C89.9171 30.1685 90.1448 29.1605 90.5986 28.3343C91.0525 27.5084 91.6667 26.8806 92.44 26.4517C93.2134 26.023 94.0806 25.8092 95.0412 25.8092Z" fill="#080D10"/>
<path d="M51.8325 25.8092C52.6695 25.8092 53.3961 25.9508 54.0116 26.2355C54.6307 26.5167 55.1108 26.9131 55.452 27.4229C55.793 27.9325 55.9673 28.5227 55.9744 29.1939H53.4734C53.4381 28.8074 53.2816 28.5073 53.0038 28.293C52.7295 28.075 52.3373 27.9661 51.8272 27.9661C51.4897 27.9661 51.2081 28.01 50.9831 28.0979C50.7581 28.1857 50.589 28.3071 50.4765 28.4618C50.3642 28.6127 50.306 28.7864 50.3024 28.983C50.2954 29.1447 50.3271 29.2879 50.3974 29.411C50.4713 29.5338 50.5771 29.6423 50.714 29.7371C50.8547 29.8285 51.0236 29.9101 51.2205 29.9805C51.4174 30.0508 51.6392 30.1115 51.8853 30.1642L52.8139 30.3751C53.3484 30.4911 53.8199 30.646 54.2279 30.8392C54.6393 31.0325 54.9842 31.263 55.2621 31.53C55.5433 31.7971 55.7562 32.105 55.9005 32.4529C56.0447 32.8009 56.1186 33.192 56.1221 33.6245C56.1185 34.3063 55.9461 34.8919 55.605 35.3805C55.2637 35.8689 54.7729 36.2428 54.133 36.5029C53.4963 36.7631 52.7277 36.8931 51.8272 36.8931C50.9234 36.8931 50.1353 36.7578 49.4635 36.4871C48.7918 36.2164 48.2693 35.805 47.8965 35.2531C47.5238 34.7013 47.332 34.0038 47.3214 33.1604H49.8223C49.8434 33.5083 49.9367 33.7986 50.1019 34.0305C50.2672 34.2624 50.4944 34.4375 50.7826 34.557C51.0744 34.6765 51.4123 34.7363 51.7956 34.7363C52.1473 34.7363 52.4463 34.6888 52.6925 34.5939C52.9421 34.499 53.134 34.3678 53.2677 34.1993C53.4014 34.0305 53.4699 33.8363 53.4734 33.6183C53.4698 33.4147 53.4064 33.2411 53.2835 33.0971C53.1604 32.9494 52.9705 32.8229 52.7136 32.7174C52.4604 32.6084 52.1368 32.5083 51.7428 32.4168L50.6137 32.1523C49.6782 31.9378 48.9411 31.5915 48.403 31.1134C47.8651 30.6319 47.5976 29.9819 47.601 29.1631C47.5975 28.4953 47.7771 27.9097 48.1392 27.4071C48.5015 26.9044 49.0027 26.5115 49.6429 26.2302C50.283 25.949 51.013 25.8093 51.8325 25.8092Z" fill="#080D10"/>
<path d="M66.4239 28.0759H61.5012V30.2916H66.0387V32.4168H61.5012V34.637H66.4239V36.7569H58.8895V25.9569H66.4239V28.0759Z" fill="#080D10"/>
<path d="M72.1196 34.637H76.6149V36.7569H69.5079V25.9569H72.1196V34.637Z" fill="#080D10"/>
<path d="M86.9493 28.0759H82.0274V30.2916H86.565V32.4168H82.0274V34.637H86.9493V36.7569H79.4157V25.9569H86.9493V28.0759Z" fill="#080D10"/>
<path d="M111.565 28.0759H108.288V36.7569H105.713V28.0759H102.431V25.9569H111.565V28.0759Z" fill="#080D10"/>
<path fill-rule="evenodd" clip-rule="evenodd" d="M50.5979 11.1596C51.4542 11.1596 52.1915 11.3304 52.8095 11.6711C53.4274 12.009 53.9024 12.4951 54.235 13.1292C54.5703 13.7636 54.738 14.5229 54.738 15.4065C54.7379 16.2928 54.5703 17.0546 54.235 17.6917C53.9025 18.3284 53.4248 18.817 52.8016 19.1577C52.1809 19.4983 51.4379 19.6692 50.5733 19.6692H47.5553V11.1596H50.5979ZM49.3553 18.1276H50.4985C51.0304 18.1275 51.4783 18.0338 51.8413 17.8455C52.207 17.6543 52.4815 17.3592 52.6644 16.9604C52.8501 16.5588 52.9423 16.0407 52.9423 15.4065C52.9423 14.7779 52.85 14.2637 52.6644 13.8649C52.4815 13.466 52.2078 13.1726 51.8448 12.9842C51.4818 12.7959 51.0342 12.7012 50.502 12.7012H49.3553V18.1276Z" fill="#080D10"/>
<path fill-rule="evenodd" clip-rule="evenodd" d="M60.7669 11.1596C61.4098 11.1596 61.9587 11.2752 62.4131 11.505C62.8702 11.7321 63.2177 12.0547 63.456 12.4727C63.6971 12.8881 63.8183 13.3773 63.8183 13.9396C63.8183 14.5045 63.6962 14.9906 63.4525 15.3977C63.2086 15.8021 62.8547 16.1124 62.392 16.3285C62.3664 16.3405 62.3399 16.3505 62.3137 16.3619L64.1217 19.6692H62.1343L60.5216 16.6528H59.2078V19.6692H57.4077V11.1596H60.7669ZM59.2078 15.207H60.4301C60.7737 15.207 61.0594 15.1596 61.2866 15.0655C61.5136 14.9713 61.6823 14.83 61.7931 14.6418C61.9068 14.4535 61.9637 14.2193 61.9637 13.9396C61.9637 13.6571 61.9068 13.4189 61.7931 13.225C61.6823 13.0312 61.5121 12.8844 61.2822 12.7847C61.0549 12.6822 60.7678 12.6309 60.4213 12.6309H59.2078V15.207Z" fill="#080D10"/>
<path d="M68.2257 19.6692H66.4265V11.1596H68.2257V19.6692Z" fill="#080D10"/>
<path fill-rule="evenodd" clip-rule="evenodd" d="M74.4517 11.1596C75.0784 11.1596 75.6009 11.2527 76.0196 11.4382C76.4373 11.6238 76.7524 11.8814 76.9631 12.2108C77.1729 12.5376 77.2788 12.9147 77.2788 13.3411C77.2788 13.6734 77.2125 13.9661 77.0792 14.2182C76.946 14.4673 76.7635 14.672 76.5305 14.8326C76.301 14.9904 76.0378 15.1027 75.7408 15.1692V15.2527C76.0648 15.2666 76.3683 15.358 76.651 15.5269C76.9363 15.6958 77.1674 15.9326 77.3448 16.2371C77.5221 16.5389 77.6112 16.8991 77.6112 17.3172C77.6112 17.7688 77.4987 18.172 77.2744 18.5266C77.0529 18.8783 76.7244 19.1567 76.2895 19.3616C75.8537 19.5665 75.3178 19.6692 74.6803 19.6692H71.0432V11.1596H74.4517ZM72.8433 18.1979H74.3101C74.8116 18.1979 75.1788 18.1025 75.4084 17.9114C75.6379 17.7175 75.7531 17.46 75.7531 17.1388C75.7531 16.9034 75.696 16.6958 75.5825 16.5157C75.4691 16.3357 75.3069 16.1945 75.0962 16.092C74.8884 15.9897 74.6402 15.9383 74.3523 15.9382H72.8433V18.1979ZM72.8433 14.7209H74.1773C74.4239 14.7209 74.6434 14.6775 74.8342 14.5917C75.0278 14.5031 75.1816 14.3789 75.2923 14.2182C75.4057 14.0576 75.462 13.865 75.4621 13.6408C75.4621 13.3333 75.352 13.0855 75.1332 12.8972C74.9171 12.7089 74.6104 12.6142 74.2107 12.6142H72.8433V14.7209Z" fill="#080D10"/>
<path fill-rule="evenodd" clip-rule="evenodd" d="M83.5276 11.1596C84.1535 11.1596 84.6759 11.2527 85.0947 11.4382C85.5133 11.6238 85.8275 11.8813 86.0382 12.2108C86.2489 12.5376 86.3539 12.9147 86.3539 13.3411C86.3539 13.6734 86.2876 13.9661 86.1543 14.2182C86.022 14.4673 85.8385 14.672 85.6065 14.8326C85.3768 14.9905 85.1122 15.1027 84.8159 15.1692V15.2527C85.1401 15.2665 85.4442 15.358 85.7269 15.5269C86.0122 15.6958 86.2434 15.9326 86.4208 16.2371C86.5981 16.5389 86.6863 16.8991 86.6863 17.3172C86.6863 17.7688 86.5746 18.172 86.3495 18.5266C86.128 18.8783 85.7995 19.1567 85.3646 19.3616C84.9297 19.5665 84.3929 19.6692 83.7563 19.6692H80.1183V11.1596H83.5276ZM81.9184 18.1979H83.3861C83.8876 18.1979 84.2539 18.1025 84.4844 17.9114C84.7138 17.7175 84.8291 17.46 84.8291 17.1388C84.8291 16.9034 84.772 16.6958 84.6576 16.5157C84.5442 16.3357 84.382 16.1945 84.1713 16.092C83.9633 15.9897 83.7155 15.9382 83.4274 15.9382H81.9184V18.1979ZM81.9184 14.7209H83.2533C83.4999 14.7209 83.7185 14.6775 83.9093 14.5917C84.1036 14.5032 84.2558 14.3787 84.3666 14.2182C84.48 14.0576 84.538 13.865 84.538 13.6408C84.538 13.3334 84.4279 13.0855 84.2091 12.8972C83.9931 12.7089 83.6855 12.6143 83.2867 12.6142H81.9184V14.7209Z" fill="#080D10"/>
<path fill-rule="evenodd" clip-rule="evenodd" d="M92.6027 11.1596C93.2294 11.1596 93.7519 11.2527 94.1706 11.4382C94.5883 11.6238 94.9035 11.8813 95.1142 12.2108C95.3249 12.5376 95.429 12.9147 95.429 13.3411C95.429 13.6734 95.3635 13.9661 95.2303 14.2182C95.097 14.4674 94.9138 14.672 94.6816 14.8326C94.4511 14.9905 94.1881 15.1027 93.891 15.1692V15.2527C94.2152 15.2665 94.5193 15.358 94.802 15.5269C95.0873 15.6958 95.3185 15.9326 95.4958 16.2371C95.6732 16.5389 95.7623 16.8991 95.7623 17.3172C95.7623 17.7688 95.6497 18.172 95.4255 18.5266C95.204 18.8783 94.8755 19.1567 94.4406 19.3616C94.0057 19.5665 93.4689 19.6692 92.8314 19.6692H89.1943V11.1596H92.6027ZM90.9944 18.1979H92.4611C92.9626 18.1979 93.329 18.1025 93.5586 17.9114C93.7891 17.7175 93.9042 17.4601 93.9042 17.1388C93.9042 16.9034 93.847 16.6958 93.7336 16.5157C93.6201 16.3357 93.458 16.1946 93.2473 16.092C93.0393 15.9896 92.7915 15.9382 92.5025 15.9382H90.9944V18.1979ZM90.9944 14.7209H92.3292C92.5758 14.7209 92.7944 14.6776 92.9853 14.5917C93.1787 14.5032 93.3318 14.3787 93.4425 14.2182C93.5559 14.0576 93.6131 13.865 93.6131 13.6408C93.6131 13.3334 93.5039 13.0855 93.2842 12.8972C93.0682 12.7089 92.7614 12.6143 92.3627 12.6142H90.9944V14.7209Z" fill="#080D10"/>
<path d="M100.069 18.1856H103.72V19.6692H98.2694V11.1596H100.069V18.1856Z" fill="#080D10"/>
<path d="M111.985 12.6432H108.048V14.6708H111.689V16.1544H108.048V18.1856H112.001V19.6692H106.248V11.1596H111.985V12.6432Z" fill="#080D10"/>
</svg>
